<?xml version="1.0" encoding="utf-8"?>
<!-- Generator: Adobe Illustrator 20.1.0, SVG Export Plug-In . SVG Version: 6.00 Build 0)  -->
<svg version="1.1" id="Layer_1" xmlns="http://www.w3.org/2000/svg" xmlns:xlink="http://www.w3.org/1999/xlink" x="0px" y="0px"
	 width="100px" height="200px" viewBox="0 0 100 200" enable-background="new 0 0 100 200" xml:space="preserve">
<g>
	<path fill="#332E2D" d="M63.434,103.342c0.267,1.1,0.853,0.574,1.395,0.274c0.614-0.249,0.733,0.253,0.891,0.622
		c1.003,2.347,2.033,4.686,1.765,7.345c-0.062,0.62,0.271,1.147,0.596,1.654c0.352,0.548,0.545,1.129,0.332,1.784
		c-0.435,1.927-0.863,3.856-1.311,5.78c-0.092,0.393-0.206,0.604,0.394,0.727c0.76,0.156,1.051,1.05,1.697,1.453
		c0.309,0.289,0.288,0.664,0.227,1.024c-0.183,1.083-0.304,2.173-0.41,3.266c-0.071,0.722-0.183,1.419-0.72,2.023
		c-0.4,0.449-0.343,1.123-0.398,1.721c-0.469,5.116,0.147,10.152,1.108,15.163c0.357,1.86,0.677,3.724,0.828,5.615
		c0.048,0.608,0.145,1.223,0.319,1.776c-0.179-0.782-0.314-1.602-0.357-2.445c-0.035-0.694,0.243-0.833,0.833-0.589
		c0.605,1.241,0.88,2.535,0.712,3.924c-0.255,2.112-0.114,4.214,0.258,6.303c0.418,2.877,0.894,5.742,1.629,8.559
		c0.142,0.653,0.4,1.311-0.051,1.949c-1.756,1.365-2.3,3.341-2.748,5.384c-0.519,2.365-1.426,4.634-1.767,6.864
		c0.434-1.251,0.997-2.635,1.615-3.996c0.122-0.269,0.32-0.598,0.656-0.51c0.336,0.088,0.317,0.474,0.325,0.766
		c0.041,1.479-0.365,2.899-0.616,4.337c-0.101,0.578-0.183,1.116,0.197,1.618c-0.186,0.665,0.084,1.03,0.673,1.4
		c2.982,1.87,6.257,2.909,9.675,3.584c0.423,0.084,0.86,0.13,1.219,0.405c0.224,0.289,0.119,0.58-0.04,0.834
		c-1.738,2.78-3.425,5.594-5.362,8.245c-6.733,0-13.467,0-20.2,0c-0.418-0.682-0.416-1.463-0.454-2.213
		c-0.113-2.254,0.068-4.509,0.06-6.764c-0.001-0.386,0.139-0.732,0.496-0.918c0.68-0.355,0.352-0.638-0.048-0.921
		c-0.334-0.237-0.704-0.341-1.12-0.352c-1.554-0.043-3.025-0.387-4.344-1.255c-0.249-0.164-0.511-0.309-0.797-0.407
		c-1.122-0.386-1.436-0.259-1.979,0.8c-0.227,0.443-0.396,0.925-0.733,1.297c-0.225,0.248-0.489,0.633-0.86,0.134
		c-0.218-1.456-0.204-2.922-0.079-4.375c0.091-1.062,0.143-2.12,0.141-3.184c-0.012-6.148,0.257-12.291,0.282-18.437
		c0.104-0.405,0.159-0.823,0.292-1.221c0.892-1.234,0.622-2.718,0.825-4.089c0.129-0.872,0.162-1.774,0.292-2.653
		c0.055-0.376,0.044-1.004,0.783-0.734c0.262,0.371,0.342,0.8,0.34,1.235c-0.019,3.831,0.363,7.647,0.446,11.475
		c0.062,2.893,0.268,5.784,0.351,8.678c0.009,0.325,0.053,0.657,0.005,0.833c0.007-1.274,0.014-2.695-0.016-4.116
		c-0.111-5.298,0.321-10.59,0.216-15.888c-0.009-0.455-0.167-1.218,0.443-1.245c0.603-0.027,0.558,0.722,0.56,1.201
		c0.016,3.93,0.296,7.851,0.45,11.775c0.123,3.125,0.241,6.248,0.252,8.984c0.168-5.845,0.042-12.082,0.083-18.319
		c0.003-0.464-0.053-0.948,0.182-1.372c0.24-0.434,0.538-0.469,0.813-0.016c0.217,0.357,0.227,0.763,0.227,1.163
		c-0.003,4.33,0.338,8.648,0.442,12.975c0.04,1.658,0.151,3.319,0.152,4.981c-0.032-6.438-0.021-12.876-0.014-19.314
		c0-0.434,0.011-0.872,0.196-1.275c0.093-0.201,0.171-0.47,0.47-0.433c0.261,0.032,0.374,0.25,0.451,0.478
		c0.087,0.256,0.101,0.523,0.102,0.79c0.007,1.599,0.143,3.197,0.159,4.789c0.028,2.766,0.21,5.524,0.289,8.286
		c0.064,2.22,0.096,4.45,0.276,6.849c0.472-20.582,0.157-40.986,0.263-61.389c0.003-0.513-0.211-1.167,0.506-1.46
		c0.273,0.257,0.263,0.596,0.266,0.929c0.068,9.724,0.044,19.448,0.046,29.172c0.001,6.163-0.008,12.327,0.003,18.49
		c0.009,4.861,0.368,9.709,0.615,14.561c0.014,0.266,0.022,0.544,0.153,0.779c0.676,1.211,1.307,2.449,2.183,3.723
		c0.11-3.395-0.139-6.618-0.28-9.838c-0.096-2.192-0.171-4.392-0.242-6.582c-0.097-2.992-0.164-5.992-0.301-8.981
		c-0.209-4.554-0.292-9.112-0.512-13.666c-0.219-4.522-0.616-9.031-0.89-13.548c-0.24-3.95-0.571-7.896-0.829-11.847
		c-0.033-0.498-0.029-0.999,0.008-1.496c0.473-0.739,1.219-0.291,1.835-0.42c0.397,1.011,0.443,2.079,0.437,3.137
		c-0.021,3.934,0.535,7.832,0.696,11.753c0.06,1.456-0.16,2.916,0.055,4.05c0.385-2.387,0.89-5.079,1.501-7.746
		c0.404-1.764,0.705-3.546,0.705-5.333c0.001-3.098,0.235-6.186,0.258-9.281c0.02-2.694,0.266-5.385,0.198-8.083
		C63.099,103.986,63.101,103.603,63.434,103.342z"/>
	<path fill="#373130" d="M16.6,200.2c-0.4,0-0.8,0-1.2,0c-0.269-0.308-0.272-0.676-0.195-1.04c0.57-2.691,0.232-5.434,0.475-8.145
		c0.216-2.416,0.37-4.839,0.556-7.259c0.082-1.068,0.071-2.127-0.045-3.189c-0.05-0.462-0.133-0.926,0.038-1.381
		c0.567-0.566,0.664,0.126,0.816,0.365c0.676,1.066,1.105,2.263,1.711,3.368c0.186,0.339,0.271,0.746,0.738,1.081
		c0.11-1.405-0.154-2.699-0.255-3.988c-0.082-1.039,0.002-2.135-0.594-3.092c-0.119-0.191-0.117-0.469-0.026-0.682
		c0.41-0.968-0.157-1.306-0.938-1.573c-0.629-0.215-1.282-0.337-1.912-0.545c-0.398-0.23-0.575-0.627-0.784-1.008
		c-0.37-0.672-0.656-0.7-1.204-0.153c-0.366,0.365-0.522,0.845-0.715,1.304c-0.103,0.246-0.189,0.499-0.311,0.736
		c-0.168,0.327-0.348,0.743-0.775,0.657c-0.507-0.102-0.329-0.569-0.301-0.915c0.148-1.823,0.39-3.637,0.584-5.469
		c-0.619,0.405-0.883,0.099-0.902-0.523c-0.026-0.868,0.171-1.719,0.274-2.577c0.06-0.498,0.156-1,0.056-1.49
		c-0.421-2.054,0.674-3.825,1.042-5.73c1.496-1.171,1.516-3.012,2.02-4.609c0.51-1.616,1.139-3.201,1.463-4.875
		c0.103-0.531,0.237-1.066,0.958-1.071c0.676-0.004,1.324-0.048,1.64,0.783c0.234,0.614,0.491,1.226,0.65,1.587
		c-0.883-2.746-1.722-5.78-2.65-8.787c-0.143-0.462-0.411-0.941-0.012-1.416c0.47,0.029,0.531,0.44,0.699,0.75
		c0.2,0.37,0.279,0.828,0.877,1.077c0.173-0.988,0.045-1.931-0.14-2.824c-0.413-1.99-0.467-4.024-0.847-6.018
		c-0.368-1.928-0.593-3.882-0.886-5.824c-0.035-0.23-0.085-0.46-0.086-0.693c-0.001-0.233-0.009-0.527,0.244-0.599
		c0.314-0.089,0.459,0.199,0.581,0.437c0.123,0.239,0.18,0.501,0.228,0.763c0.907,4.91,1.958,9.792,2.969,14.682
		c0.094,0.456,0.157,0.918,0.476,1.428c0.066-0.845,0.039-1.583-0.068-2.318c-1.049-7.246-2.112-14.49-3.196-21.731
		c-0.252-1.686-0.676-3.394-1.705-4.846c-0.386-0.945,0.247-1.622,0.724-2.241c1.318-1.712,2.212-3.539,2.066-5.771
		c-0.112,0.339-0.118,0.697-0.274,1.012c-0.288,0.579-0.847,0.699-1.15,0.15c-0.619-1.122-1.236-2.272-1.228-3.619
		c0.317-0.613,0.892-0.972,1.416-1.357c1.433-1.05,1.726-2.569,1.826-4.184c0.026-0.427-0.042-0.864,0.072-1.28
		c0.092-0.334,0.196-0.731,0.71-0.48c0.563,1.774,0.672,3.63,0.951,5.452c0.203,1.326,0.637,2.64,0.44,4.014
		c-0.621,0.51-0.66,1.183-0.522,1.9c1.293,6.717,2.216,13.494,3.231,20.255c0.138,0.917,0.211,1.843,0.447,2.745
		c0.447,1.927,0.503,3.884,0.445,5.848c-0.034,1.497-0.28,2.975-0.438,4.461c-0.039,0.369-0.105,0.809-0.552,0.835
		c-0.424,0.024-0.574-0.389-0.703-0.739c-0.023-0.062-0.044-0.126-0.055-0.192c-0.284-1.75-0.667-3.464-1.775-4.709
		c0.242,2.784,0.662,5.749,0.921,8.732c0.029,0.336,0.083,0.671,0.251,0.96c0.869,1.498,1.135,3.191,1.588,4.823
		c0.099,0.357,0.126,0.719,0.084,1.088c-0.637,5.555-1.305,11.105-2.246,16.62c-0.19,1.111-0.365,2.23-0.493,3.352
		c-0.496,2.308-0.559,4.683-1.085,6.986c-0.143,0.625-0.186,1.261-0.114,1.884c0.135,1.184,0.35,2.356,0.206,3.558
		c-0.035,0.289,0.007,0.652,0.316,0.787c0.389,0.17,0.47-0.262,0.664-0.453c0.189-0.186,0.344-0.412,0.552-0.575
		c1.373-1.081,2.168-2.484,2.383-4.216c0.078-0.238,0.155-0.478,0.258-0.707c0.278-0.445,0.521-0.912,0.82-1.345
		c0.189-0.274,0.4-0.61,0.746-0.586c0.912,0.063,1.307-0.574,1.815-1.14c0.387-0.432,0.729-0.98,1.391-1.084
		c0.413,0.95,0.34,1.972,0.433,2.968c0.046,0.484-0.013,0.979,0.153,1.452c0.412,3.794,0.709,7.599,1.098,11.394
		c0.189,1.842,0.244,3.699,0.565,5.528c-0.003,0.715,0.153,1.417,0.187,2.128c0.019,0.387,0.023,0.785-0.271,1.102
		c-4.733,0-9.467,0-14.2,0c-0.278-0.325-0.144-0.696-0.114-1.054c0.186-2.231,0.762-4.396,1.097-6.602
		c0.063-0.415,0.179-0.829,0.056-1.328c-0.469,2.895-1.177,5.662-1.78,8.452C16.817,199.868,16.735,200.046,16.6,200.2z"/>
	<path fill="#2C2827" d="M70.801,185.801c-0.925-0.217-0.585-0.873-0.487-1.432c0.301-1.715,0.793-3.407,0.651-5.49
		c-1.144,1.699-1.353,3.565-2.51,5.24c-0.08-1.63,0.44-2.85,0.777-4.104c0.497-1.851,1.067-3.684,1.501-5.548
		c0.331-1.42,1.157-2.425,2.269-3.267c0.37,0.384,0.26,0.873,0.274,1.327c0.021,0.665,0.016,1.332,0.006,1.998
		c-0.011,0.726,0.331,0.991,1.042,0.992c1.192,0.002,1.387,0.182,1.34,1.4c-0.061,1.59-0.506,3.148-0.457,4.754
		c0.007,0.229-0.074,0.459,0.094,0.704c0.279-0.92,0.27-1.89,0.408-2.833c0.26-1.777,0.384-3.571,0.758-5.334
		c0.132-0.624,0.364-1.124,0.913-1.471c0.484-0.305,0.908-0.68,1.152-1.216c0.211-0.465,0.616-0.59,1.068-0.589
		c0.745,0.001,0.907-0.356,0.736-1.026c-0.75-2.935-1.346-5.906-2.12-8.829c-0.459-0.326-0.451,0.207-0.611,0.363
		c-0.295,0.287-0.441,0.768-0.996,0.65c-0.084-0.044-0.192-0.092-0.213-0.175c-0.103-0.413-0.246-0.243-0.4-0.036
		c-0.857,0.317-0.939,0.285-0.878-0.534c0.04-0.536-0.156-1.029-0.168-1.549c-0.004-0.219,0.023-0.434,0.08-0.645
		c0.381-1.301,0.759-2.604,1.172-3.895c0.098-0.306,0.198-0.731,0.59-0.705c0.481,0.032,0.442,0.506,0.471,0.855
		c0.061,0.731-0.048,1.449-0.18,2.168c-0.075,0.409-0.291,0.828-0.04,1.251c0.196,0.364,0.006,0.705-0.101,1.177
		c1.531-1.905,3.423-3.349,4.544-5.451c0.203-0.381,0.393-0.769,0.607-1.142c0.166-0.29,0.254-0.734,0.767-0.615
		c0.248,0.153,0.393,0.398,0.373,0.664c-0.112,1.471-0.139,2.956-0.632,4.372c-0.577,1.568-0.386,3.191-0.441,4.813
		c-0.104,3.042,0.415,6.025,0.516,8.704c-0.161-0.952-0.228-2.263-0.265-3.554c-0.082-2.818-0.452-5.635-0.16-8.46
		c0.441-0.488,1.04-0.781,1.515-1.246c0.514-0.503,1.074-0.21,1.241,0.621c0.306,1.523,0.733,3.041,0.566,4.616
		c-0.088,0.824,0.252,1.563,0.332,2.351c0.053,0.524,0.349,0.462,0.679,0.187c0.481-0.401,0.599-0.942,0.588-1.522
		c-0.018-0.923,0.303-1.765,0.655-2.583c0.176-0.409,0.455-0.984,1.091-0.43c-0.033,2.312-0.365,4.604-0.451,6.912
		c-0.011,0.302-0.112,0.585-0.38,0.772c-0.283,0.153-0.44-0.169-0.741-0.221c-0.06,3.943-0.447,7.836-0.459,11.745
		c-0.052,3.357-0.369,6.699-0.541,10.049c-0.066,1.294,0.002,2.594-0.182,3.883c-0.043,0.299-0.032,0.678,0.32,0.748
		c0.31,0.061,0.377-0.306,0.492-0.538c0.359-0.725,0.407-1.622,1.173-2.122c0.338,0.241,0.289,0.588,0.188,0.898
		c-0.696,2.137-1.42,4.265-2.326,6.325c-0.085,0.193-0.242,0.308-0.408,0.418c-2.2,0-4.4,0-6.6,0
		c-0.144-0.769,0.391-1.306,0.69-1.907c0.488-0.979,0.973-1.929,1.17-3.039c0.209-1.18,0.953-2.176,1.456-3.256
		c0.182-0.39,0.41-0.76,0.438-1.204c0.52-1.52,0.484-1.548-0.905-2.299c-2.455-1.328-4.824-2.802-7.215-4.241
		c-0.285-0.171-0.569-0.344-0.869-0.487c-1.073-0.513-1.173-0.461-1.334,0.683C72.306,185.339,71.842,185.724,70.801,185.801z"/>
	<path fill="#383230" d="M40.2,200.2c-0.267,0-0.533,0-0.8,0c-0.696-1.287-0.537-2.728-0.66-4.1
		c-0.164-1.823-0.497-3.63-0.475-5.134c0.128,0.829,0.016,1.975-0.215,3.114c-0.052,0.255-0.108,0.563-0.448,0.58
		c-0.363,0.018-0.538-0.253-0.602-0.559c-0.157-0.751-0.177-1.522-0.239-2.282c-0.271-3.317-0.529-6.633,0.24-9.934
		c0.331-1.423-0.065-2.853-0.184-4.275c-0.119-1.426-0.338-2.844-0.396-4.275c0.607-4.021,0.454-8.037-0.414-8.956
		c-0.238,0.548,0.079,1.064-0.031,1.55c-0.164,0.661-0.449,1.281-0.633,1.937c-0.092,0.327-0.258,0.674-0.664,0.77
		c-0.47-0.321-0.325-0.817-0.351-1.258c-0.036-0.621,0.046-1.246-0.074-1.862c-0.142-1.484-0.627-2.919-0.652-4.241
		c0.136,0.924-0.014,2.046,0.213,3.145c0.047,0.228,0.059,0.463,0.036,0.694c-0.036,0.364-0.05,0.832-0.496,0.86
		c-0.435,0.027-0.382-0.456-0.452-0.754c-0.255-1.09-0.391-2.204-0.586-3.41c-0.171,1.406,0.14,2.676,0.174,3.962
		c0.012,0.452,0.112,0.965-0.535,1.109c-0.545-0.248-0.359-0.765-0.446-1.185c-0.111-0.538-0.162-1.086-0.287-1.621
		c-0.121-0.474-0.062-0.967-0.159-1.444c0.081-1.24-0.598-2.272-0.944-3.393c-0.281-0.909-0.634-1.796-0.957-2.695
		c-0.153-1.888-0.054-3.778-0.061-5.667c-0.001-0.232-0.008-0.498,0.133-0.675c1.102-1.389,0.564-2.975,0.56-4.495
		c-0.007-2.545-0.528-5.078-0.188-7.632c0.353-0.615,0.521-1.291,0.648-1.981c0.048-0.262,0.09-0.527,0.171-0.781
		c0.119-0.369,0.166-0.912,0.653-0.869c0.46,0.04,0.504,0.583,0.537,0.96c0.103,1.197,0.334,2.375,0.484,3.564
		c0.232,1.847,0.544,3.684,0.542,5.155c-0.135-2.726-0.298-5.846,0-8.969c0.281-0.39,0.519-0.134,0.695,0.087
		c0.302,0.38,0.597,0.777,0.617,1.297c-0.203,0.77,0.028,1.525,0.12,2.278c0.186,1.508,0.37,3.02,0.635,4.611
		c0.788-0.411,1.159-1.049,1.608-1.608c0.318-0.179,0.512,0.043,0.661,0.249c0.484,0.668,1.118,1.266,1.384,2.048
		c0.651,1.913,1.824,3.599,2.356,5.558c0.033,0.121,0.065,0.26,0.228,0.288c0.551,0.629,0.533,1.464,0.774,2.202
		c0.208,0.64,0.41,0.611,0.863,0.223c0.316-0.271,0.557-0.919,1.177-0.435c0.299,2.035,0.464,4.079,0.378,6.135
		c-0.024,0.565-0.066,1.127-0.013,1.691c0.016,0.165,0.087,0.339,0.053,0.493c-0.417,1.902-0.408,3.878-0.992,5.75
		c-0.391,0.539-0.696,1.133-1.056,1.693c-0.488,0.76-1.042,1.369-2.041,1.392c-0.632,0.015-0.726,0.543-0.902,1.03
		c-1.005,2.782-0.9,5.613-0.433,8.465c0.14,0.855,0.112,1.729,0.344,2.57c0.052-0.044,0.004-0.116,0.012-0.176
		c0.074-0.542-0.174-1.273,0.436-1.539c0.646-0.281,1.066,0.38,1.507,0.747c0.556,0.462,0.833,1.095,0.903,1.562
		c0.005-1.432-0.164-3.103-0.333-4.779c-0.085-0.847-0.128-1.811,0.737-2.43c0.797,0.707,0.833,1.708,1.029,2.648
		c0.53,2.912,1.65,5.649,2.538,8.454c0.299,0.945,0.648,1.877,0.969,2.816c0.143,0.419,0.309,0.88,0.121,1.349
		c-0.972-0.178-1.569-0.843-1.949-1.669c-0.857-1.862-1.181-3.873-1.44-5.185c0.126,0.985,0.137,2.654-0.305,4.3
		c-0.1,0.374-0.11,0.914-0.611,0.901c-0.474-0.012-0.516-0.544-0.622-0.918c-0.163-0.577-0.244-1.174-0.38-1.759
		c-0.121-0.523-0.295-1.027-0.623-1.46c-0.137-0.182-0.285-0.417-0.555-0.343c-0.213,0.059-0.221,0.308-0.294,0.491
		c-0.184,0.461-0.112,1.256-0.805,1.174c-0.666-0.079-0.658-0.826-0.709-1.387c-0.066-0.723-0.321-1.389-0.544-2.069
		c-0.232,1.377,0.029,2.717,0.198,4.06c0.468,3.702,1.28,7.353,1.644,11.07c0.033,0.338,0.218,0.63,0.294,0.951
		C40.493,198.728,40.656,199.483,40.2,200.2z"/>
	<path fill="#2D2725" d="M16.405,178.996c0.065,1.02,0.213,2.042,0.178,3.058c-0.089,2.574-0.365,5.14-0.518,7.707
		c-0.103,1.729-0.398,3.455-0.141,5.241c0.191,1.326-0.216,2.746-0.413,4.116c-0.052,0.361-0.104,0.718-0.11,1.081
		c-1.333,0-2.667,0-4,0c-0.338-0.364-0.396-0.828-0.455-1.29c-0.288-2.27-0.533-4.545-0.793-6.819
		c-0.088-0.769-0.257-1.488-0.609-2.186c-0.37-0.734-0.442-1.502-0.053-2.296c0.353-0.719,0.454-1.51,0.473-2.359
		c-0.524-0.078-0.801,0.333-1.18,0.471c-0.846,0.308-1.346,0.035-1.419-0.797c0.564-3.074,1.111-6.152,1.7-9.222
		c0.179-0.931,0.092-1.859,0.123-2.788c0.085-2.527-0.045-5.06,0.178-7.584c0.416,0.359,0.309,0.853,0.314,1.304
		c0.021,1.894-0.006,3.788,0.096,5.699c0.255-0.815,0.404-1.659,0.511-2.5c0.096-0.758,0.178-1.519,0.304-2.272
		c0.123-0.739,0.128-1.451-0.113-2.164c-0.129-0.381-0.171-0.781-0.157-1.181c0.103-3.157-0.177-6.307-0.152-9.462
		c0.003-0.439-0.047-0.861-0.203-1.27c-0.121-0.316-0.241-0.671-0.09-0.971c0.598-1.189,0.089-2.419,0.167-3.625
		c0.029-0.444-0.057-0.934-0.425-1.288c-0.021-2.887-0.067-5.775,0.157-8.658c0.477,1.14,0.141,2.349,0.293,3.52
		c0.098,0.752,0.002,1.525,0.039,2.289c0.02-0.304-0.003-0.61,0.039-0.911c0.05-0.361,0.079-0.821,0.549-0.814
		c0.425,0.006,0.574,0.442,0.621,0.798c0.112,0.857,0.14,1.722,0.178,2.587c0.142,3.287,0.31,6.574,0.582,9.853
		c0.014,0.163,0.006,0.335,0.137,0.481c0.319-0.26,0.344-0.648,0.391-0.993c0.375-2.737,1.234-5.377,1.597-8.119
		c0.196-1.48,1.044-1.856,2.546-1.135c-1.299-5.787-2.779-11.424-4.204-17.284c-0.284,0.598-0.256,1.043-0.254,1.475
		c0.015,3.131-0.157,6.248-0.597,9.351c-0.096,0.673-0.345,1.283-0.582,1.902c-0.078,0.204-0.168,0.469-0.466,0.436
		c-0.258-0.029-0.384-0.244-0.484-0.459c-0.13-0.278-0.171-0.577-0.15-0.878c0.101-1.394-0.204-2.785-0.018-4.18
		c0.032-0.238-0.042-0.461-0.179-0.661c0.004-1.657,0.025-3.314,0.001-4.97c-0.007-0.514,0.148-0.761,0.67-0.663
		c0.851,0.159,0.946-0.29,0.952-1.001c0.017-1.922,0.111-3.843,0.174-5.765c0.566,0.081,0.573,0.592,0.693,0.969
		c0.985,3.079,1.899,6.179,2.782,9.288c0.51,1.795,1.088,3.57,1.582,5.37c0.106,0.384,0.258,0.762,0.135,1.173
		c0.367,2.063,1.128,4.015,1.708,6.018c0.501,1.733,0.995,3.469,1.276,5.287c-0.431-0.912-0.963-1.792-1.263-2.745
		c-0.298-0.946-1.002-0.312-1.479-0.513c-0.445-0.187-0.419,0.377-0.503,0.667c-0.853,2.924-1.697,5.851-2.55,8.775
		c-0.079,0.27-0.103,0.702-0.497,0.612c-0.568-0.13-0.564,0.314-0.596,0.567c-0.112,0.901-0.498,1.719-0.709,2.588
		c-0.227,0.934-0.437,1.821-0.225,2.825c0.218,1.034-0.138,2.101-0.282,3.148c-0.067,0.492-0.118,0.964,0,1.457
		c0.517-0.029,0.395-0.63,0.859-0.739c0.231,0.791-0.148,1.545-0.173,2.304c-0.045,1.381-0.294,2.756-0.465,4.133
		c-0.023,0.186-0.18,0.414,0.088,0.504c0.239,0.081,0.347-0.151,0.423-0.329c0.208-0.488,0.41-0.98,0.59-1.479
		c0.126-0.35,0.283-0.669,0.551-0.935c0.947-0.943,1.162-0.9,1.701,0.317c0.147,0.331,0.367,0.629,0.554,0.942
		C16.393,175.623,16.836,177.257,16.405,178.996z"/>
	<path fill="#3B3533" d="M40.2,200.2c-0.008-1.021-0.216-2-0.407-3.002c-0.266-1.397-0.407-2.852-0.608-4.279
		c-0.411-2.912-0.935-5.808-1.33-8.721c-0.135-0.994-0.021-2.022,0.105-3.049c0.815,0.742,0.787,1.761,1.033,2.676
		c0.042,0.156-0.003,0.333,0.011,0.498c0.031,0.37,0.092,0.861,0.462,0.906c0.47,0.057,0.249-0.51,0.406-0.767
		c0.034-0.056,0.054-0.122,0.074-0.185c0.133-0.417,0.038-1.143,0.521-1.138c0.463,0.005,0.858,0.582,1.101,1.063
		c0.484,0.96,0.532,2.043,0.806,3.063c0.077,0.288,0.075,0.595,0.423,0.852c0.772-2.242,0.73-4.508,0.329-7.048
		c0.576,0.412,0.639,0.705,0.676,1.04c0.226,2.017,0.73,3.962,1.46,5.859c0.339,0.88,1.15,1.232,1.737,1.832
		c0.066,0.022,0.133,0.022,0.199,0c0.661-0.337,0.801-1.039,1.101-1.617c0.817-1.58,1.482-1.795,3-0.764
		c1.282,0.87,2.707,1.312,4.2,1.333c0.776,0.011,1.322,0.271,1.904,0.647c0.244,0.158,0.447,0.336,0.348,0.64
		c-0.088,0.271-0.165,0.548-0.615,0.466c-0.468-0.086-0.561,0.395-0.506,0.674c0.314,1.59-0.118,3.163-0.064,4.75
		c0.048,1.427,0.188,2.846,0.234,4.271C51.267,200.2,45.733,200.2,40.2,200.2z"/>
	<path fill="#352E2D" d="M85.6,200.2c0.787-2.116,1.579-4.231,2.356-6.351c0.146-0.398,0.307-0.805,0.244-1.249
		c-0.193-0.206-0.124-0.435-0.041-0.651c0.688-1.792,1.271-3.629,2.278-5.283c0.66-1.101,1.534-1.923,2.846-2.162
		c0.525-0.096,0.573-0.416,0.521-0.881c-0.15-1.325-0.595-2.529-1.43-3.563c-0.513-0.636-0.683-1.273-0.316-2.026
		c0.102-0.209,0.201-0.439,0.197-0.667c-0.046-2.287,1.232-4.001,2.472-5.725c0.628-0.872,0.968-1.894,1.544-2.792
		c0.209-0.326,0.155-0.714,0.065-1.071c-0.375-1.485-0.167-2.984-0.069-4.471c0.038-0.579,0.024-1.102-0.143-1.657
		c-0.36-1.202-0.141-2.447-0.192-3.673c-0.009-0.21,0.127-0.372,0.354-0.423c0.631,0.473,0.444,1.222,0.533,1.832
		c0.441,3.044,0.629,6.111,0.713,9.187c0.021,0.784,0.192,1.566,0.168,2.361c-0.009,0.303,0.01,0.597-0.193,0.848
		c-0.339,0.329-0.69-0.075-1.084,0.016c-0.057,0.443-0.118,0.895-0.364,1.303c-0.26,0.429-0.05,0.846,0.15,1.23
		c0.504,0.968,0.772,1.985,0.653,3.078c-0.088,0.814,0.467,1.444,0.591,2.197c-0.061,1.381,0.262,2.778-0.189,4.137
		c-0.34,0.22-0.399-0.073-0.455-0.28c-0.122-0.45-0.117-0.914-0.1-1.379c0.033-0.892,0.025-0.892-0.84-1.606
		c0.026,1.242-0.399,2.375-0.427,3.573c-0.02,0.891,0.232,1.551,1.111,1.916c0.44-0.272-0.065-1.033,0.59-1.196
		c0.568,0.59,0.41,1.355,0.285,1.982c-0.3,1.511-0.019,3.041-0.305,4.55c-0.176,0.929-0.208,1.889-0.427,2.818
		c-0.377,1.603-0.124,3.235-0.22,4.851c-0.025,0.428,0.043,0.87-0.278,1.227C92.667,200.2,89.133,200.2,85.6,200.2z"/>
	<path fill="#433D3B" d="M7.365,184.925c0.355,0.748,0.885,0.915,1.542,0.451c0.427-0.302,0.896-0.86,1.356-0.603
		c0.418,0.234-0.06,0.845-0.092,1.294c-0.047,0.676-0.135,1.373-0.575,1.963c-0.401,0.538-0.148,1.27,0.103,1.59
		c0.772,0.983,0.685,2.133,0.844,3.209c0.362,2.446,0.58,4.913,0.856,7.371c-3.467,0-6.933,0-10.4,0
		c-0.246-0.282-0.216-0.61-0.158-0.944c0.08-0.458,0.161-0.918,0.328-1.353c0.761-1.981,1.084-4.025,0.948-6.146
		c-0.091-1.426,0.236-2.759,0.924-4.017c0.575-1.052,0.901-2.207,1.278-3.339c0.104-0.312,0.084-0.783,0.652-0.589
		c0.092,1.006,0.617,1.487,1.653,1.541C7.053,185.378,7.209,185.225,7.365,184.925z"/>
	<path fill="#2D2826" d="M34.782,168.629c0.324-0.876,0.648-1.752,0.972-2.627c0.578,0.658,0.357,1.509,0.52,2.263
		c0.346,1.609,0.383,3.256,0.341,4.901c0.195,1.739,0.283,3.499,0.61,5.213c0.557,2.921-0.587,5.712-0.496,8.581
		c0.055,1.724,0.178,3.451,0.373,5.165c0.072,0.632,0.047,1.258,0.11,1.884c0.024,0.234,0.07,0.509,0.38,0.473
		c0.267-0.032,0.172-0.306,0.21-0.487c0.26-1.247,0.187-2.511,0.204-3.771c0.004-0.303-0.092-0.642,0.334-1.157
		c0.37,3.883,0.716,7.508,1.062,11.133c-1.133,0-2.267,0-3.4,0c-0.363-0.415-0.321-0.926-0.31-1.416
		c0.059-2.611-0.347-5.209-0.202-7.821c0.011-0.203-0.064-0.389-0.109-0.582c0.001-2.628-0.167-5.253-0.304-7.874
		c-0.169-3.217-0.268-6.44-0.543-9.652c-0.097-1.13-0.053-2.264-0.031-3.396C34.507,169.159,34.546,168.857,34.782,168.629z"/>
	<path fill="#CA8A37" d="M31.215,162.641c0.305,0.411,0.148,0.892,0.201,1.341c0.501,3.499,0.671,7.026,0.881,10.549
		c0.06,1.011,0.442,2.027,0.029,3.044c-0.43,0.358-0.48,0.829-0.407,1.343c0.416,2.937,0.525,5.908,0.944,8.845
		c0.037,0.261,0.017,0.529,0.021,0.793c0.109,1.143,0.381,2.261,0.511,3.4c0.048,0.427,0.11,0.847-0.054,1.261
		c-0.386,0.762-0.381,1.601-0.426,2.416c-0.061,1.093-0.239,2.174-0.278,3.269c-0.016,0.458-0.105,0.927-0.435,1.297
		c-0.133,0-0.267,0-0.4,0c0.146-1.083-0.298-2.135-0.174-3.217c0.108-1.659-0.189-3.297-0.257-4.947
		c-0.126-3.051-0.474-6.091-0.47-9.15c0.001-1.282-0.223-2.543-0.293-3.951c-0.441,0.398-0.279,0.874-0.625,1.096
		c-0.286-1.084-0.203-2.21-0.374-3.307c-0.06-0.383,0.04-0.793-0.194-1.147c-0.507-0.884-0.441-1.875-0.324-2.796
		c0.4-3.156,1.107-6.262,1.695-9.387C30.838,163.1,30.938,162.815,31.215,162.641z"/>
	<path fill="#474140" d="M97,183.8c0.427-0.947,0.106-1.943,0.19-2.914c0.043-0.492,0.009-0.991,0.01-1.487
		c-0.331-1.857-0.265-3.735-0.272-5.606c-0.003-0.685,0.047-1.396,0.468-2c0.179-1.269-0.134-2.516-0.166-3.775
		c-0.073-2.818-0.257-5.63-0.651-8.421c-0.094-0.665-0.042-1.374-0.382-1.997c-0.368-0.384-0.26-0.87-0.26-1.32
		c-0.001-1.143-0.271-2.209-0.708-3.265c-0.704-1.702-1.459-3.391-1.824-5.214c0-0.409-0.081-0.832,0.211-1.189
		c0.311-0.015,0.374,0.228,0.449,0.445c1.093,3.124,2.679,6.098,2.908,9.487c0.161,2.385,0.555,4.744,0.728,7.131
		c0.178,2.448,0.15,4.911,0.525,7.345c0.123,0.801-0.092,1.597-0.191,2.376c-0.271,2.128-0.113,4.256-0.152,6.382
		c-0.033,1.798,0,3.597-0.008,5.396c-0.015,3.192-0.255,6.359-0.712,9.527c-0.218,1.514-0.544,3.091-0.153,4.657
		c0.075,0.301,0,0.596-0.213,0.84c-0.2,0-0.4,0-0.6,0c0.095-2.011-0.167-4.032,0.195-6.036c0.37-2.046,0.687-4.084,0.577-6.193
		c-0.038-0.733,0.253-1.543,0.225-2.337c-0.01-0.289,0.084-0.607-0.196-0.835C96.715,184.467,96.715,184.134,97,183.8z"/>
	<path fill="#E49F40" d="M33.166,193.255c0.077-1.584-0.447-3.095-0.564-4.655c0.064-0.059,0.131-0.115,0.199-0.169
		c0.293-1.004,0.03-2.035,0.156-3.045c0.033-0.264,0.067-0.564,0.37-0.643c0.316-0.083,0.487,0.131,0.606,0.416
		c-0.464-0.647-0.982-1.255-0.785-2.131c0.091-0.404,0.067-0.407,0.536-0.316c0.019,0.004,0.022-0.139,0-0.204
		c-0.364-1.086-0.412-2.202-0.32-3.334c0.035-0.17,0.102-0.321,0.24-0.434c0.346-0.112,0.575,0.042,0.749,0.324
		c0.227,0.735,0.299,1.488,0.335,2.258c0.184,3.917,0.304,7.837,0.575,11.749c0.081,1.163,0.05,2.331,0.049,3.496
		c0,0.305-0.017,0.77-0.431,0.772c-0.343,0.002-0.334-0.427-0.393-0.712c-0.027-0.13-0.075-0.261-0.071-0.393
		c0.076-2.417-0.325-4.815-0.319-6.616c0.2,2.704,0.308,6.024,0.486,9.341c0.023,0.43,0.137,0.866-0.186,1.242c-0.2,0-0.4,0-0.6,0
		c-0.697-0.695-0.473-1.619-0.567-2.446C33.065,196.261,32.729,194.76,33.166,193.255z"/>
	<path fill="#7F7C7B" d="M96.8,200.2c-0.431-2.904,0.138-5.739,0.536-8.594c0.192-1.376,0.232-2.78,0.244-4.172
		c0.034-3.698,0.025-7.396,0.012-11.094c-0.005-1.531,0.213-3.04,0.339-4.559c0.084-1.014-0.018-2.061-0.172-3.072
		c-0.266-1.748-0.147-3.511-0.341-5.262c-0.379-3.424-0.564-6.878-1.352-10.241c-0.315-1.345-0.869-2.651-1.455-3.909
		c-0.408-0.876-0.591-1.817-0.995-2.684c-0.029-0.231-0.084-0.469,0.152-0.638c0.273-0.058,0.368,0.159,0.41,0.334
		c0.462,1.943,1.485,3.691,2.001,5.604c1.068,3.955,1.582,8.005,1.821,12.092c0.126,2.155,0.233,4.312,0.44,6.46
		c0.12,1.242-0.082,2.452-0.148,3.675c-0.235,4.356-0.202,8.716-0.193,13.075c0.004,2.199-0.184,4.379-0.5,6.553
		c-0.281,1.94-0.534,3.884-0.308,5.854c0.022,0.193,0.04,0.402-0.093,0.577C97.067,200.2,96.933,200.2,96.8,200.2z"/>
	<path fill="#B1762E" d="M34.4,200.2c-0.337-4.083-0.16-8.185-0.576-12.266c0.096-0.007,0.192-0.013,0.288-0.02
		c0.224,3.098,0.448,6.195,0.671,9.293c0.059-0.002,0.118-0.003,0.176-0.005c0-1.467,0.047-2.936-0.027-4.399
		c-0.025-0.488-0.104-0.984-0.123-1.481c-0.139-3.615-0.278-7.23-0.431-10.845c-0.021-0.493-0.12-0.983-0.183-1.475
		c-0.253-0.375-0.293-0.797-0.295-1.237c-0.003-0.661,0.031-1.32-0.117-1.98c-0.084-0.372-0.126-0.931,0.356-0.998
		c0.539-0.075,0.531,0.498,0.536,0.866c0.012,0.799,0.208,1.587,0.196,2.373c-0.035,2.291,0.243,4.566,0.38,6.843
		c0.109,1.823-0.006,3.672,0.385,5.477c0.048,0.223,0.132,0.446,0.138,0.67c0.081,3.06,0.152,6.121,0.225,9.182
		C35.467,200.2,34.933,200.2,34.4,200.2z"/>
	<path fill="#1A1615" d="M82.999,190.782c-0.085,0.811-0.512,1.521-0.915,2.157c-0.891,1.408-0.915,3.096-1.674,4.527
		c-0.481,0.906-0.941,1.822-1.41,2.734c-0.667,0-1.333,0-2,0c0.403-1.487,1.58-2.509,2.3-3.809c0.977-1.762,2.282-3.331,3.106-5.187
		C82.494,190.909,82.642,190.698,82.999,190.782z"/>
	<path fill="#2D2725" d="M16.6,200.2c-0.098-0.849,0.234-1.628,0.399-2.433c0.417-2.032,0.838-4.064,1.285-6.09
		c0.068-0.306,0.108-0.661,0.435-0.931c0.649,0.888,0.178,1.816,0.014,2.642c-0.45,2.26-0.817,4.53-1.133,6.811
		C17.267,200.2,16.933,200.2,16.6,200.2z"/>
	<path fill="#36302C" d="M33.166,193.255c0.105,2.325,0.317,4.64,0.634,6.945c-0.533,0-1.067,0-1.6,0
		c0.211-2.223,0.423-4.446,0.634-6.669C32.853,193.329,32.977,193.252,33.166,193.255z"/>
	<path fill="#383432" d="M56.23,95.401c0.137-3.851,0.273-7.702,0.41-11.553c0.044-0.002,0.087-0.004,0.131-0.005
		c0.212,2.719,0.424,5.438,0.636,8.157c0.316,4.051,0.645,8.102,0.934,12.156c0.041,0.578,0.214,0.755,0.768,0.629
		c0.745-0.17,1.497-0.307,2.246-0.459c0.233,0.134,0.278,0.368,0.286,0.6c0.041,1.161,0.053,2.322-0.007,3.482
		c-0.012,0.225-0.038,0.498-0.306,0.572c-0.213,0.059-0.365-0.128-0.494-0.269c-0.865-0.948-2.058-1.562-2.738-2.703
		c-0.297-0.499-0.88-0.554-1.357-0.77c-1.083-0.979-1.182-1.181-1.392-2.875c-0.096,0.398-0.028,0.763-0.029,1.123
		c-0.005,11.964-0.003,23.928-0.006,35.892c0,0.498,0.056,1.007-0.121,1.486c-0.154,0.416-0.404,0.408-0.633,0.062
		c-0.314-0.472-0.267-1.022-0.266-1.552c0.009-4.363-0.284-8.718-0.46-13.074c-0.18-4.457-0.321-8.913-0.447-13.371
		c0.232,9.983,0.088,19.968,0.127,29.952c0.002,0.499,0.044,1.003-0.097,1.491c-0.052,0.181-0.106,0.404-0.364,0.395
		c-0.183-0.007-0.292-0.148-0.375-0.295c-0.117-0.208-0.155-0.44-0.166-0.674c-0.198-4.255-0.707-8.493-0.711-12.977
		c0.112,5.419-0.197,10.617-0.098,15.818c0.01,0.498,0.161,1.302-0.474,1.348c-0.644,0.046-0.589-0.779-0.639-1.262
		c-0.178-1.721-0.503-3.43-0.484-5.17c0.001-0.133,0.022,0.035,0.011-0.098c-0.095,0.049-0.004,0.146-0.054,0.215
		c-0.47,1.526-0.575,3.105-0.759,4.668c-0.096,0.821-0.263,1.625-0.418,2.433c-0.054,0.281-0.088,0.606-0.469,0.672
		c-0.556-0.29-0.537-0.836-0.489-1.315c0.359-3.554,0.102-7.122,0.286-10.683c0.18-3.479,0.45-6.968,0.293-10.45
		c-0.174-3.853-0.232-7.71-0.439-11.562c-0.131-2.425-0.214-4.853-0.346-7.278c-0.022-0.407-0.056-0.598-0.478-0.315
		c-0.87-1.36-1.298-2.903-1.752-4.42c-0.37-1.237-0.643-2.507-0.947-3.766c-0.247,1.776-0.292,3.562-0.259,5.353
		c0.02,1.089,0.228,2.156,0.266,3.254c0.122,3.499-0.769,6.803-1.565,10.135c-0.269,1.128-0.359,2.308-0.9,3.366
		c-0.468,0.303-0.902-0.061-1.356-0.065c-1.129,0.015-2.258,0.038-3.385-0.014c-0.701-0.032-1.145-0.374-1.108-1.118
		c0.103-2.057,0.014-4.115,0.061-6.171c0.008-0.332,0.028-0.666,0.236-0.948c0.606-0.315,0.65,0.197,0.769,0.548
		c0.309,0.904,0.467,1.85,0.765,2.758c0.049,0.125,0.161-0.074,0.055,0.007c-0.027,0.02-0.052-0.002-0.071-0.068
		c-0.633-2.169-1.378-4.402-1.331-6.605c0.045-2.104-0.901-3.797-1.302-5.694c-0.054-0.258-0.149-0.513-0.296-0.738
		c-0.207-0.319-0.515-0.454-0.858-0.297c-0.343,0.157-0.159,0.463-0.083,0.699c0.415,1.298,0.857,2.589,1.392,3.842
		c0.383,0.896,0.543,1.847,0.761,2.784c0.069,0.296,0.074,0.594-0.065,0.88c-0.662,1.119-1.298,2.257-2.248,3.168
		c-0.228,0.219-0.42,0.601-0.809,0.433c-0.331-0.143-0.397-0.518-0.446-0.848c-0.132-0.89-0.111-1.793-0.173-2.688
		c-0.144-2.051-0.391-4.107-0.227-6.172c-0.11,0.582-0.031,1.194-0.039,1.775c-0.036,2.632-0.325,5.246-0.435,7.872
		c-0.006,0.133,0.002,0.268-0.025,0.399c-0.063,0.315-0.043,0.757-0.489,0.738c-0.431-0.019-0.439-0.458-0.45-0.776
		c-0.087-2.394-0.268-4.783-0.451-7.169c-0.1-1.308,0.07-2.659-0.439-3.925c-0.215-1.071-0.23-2.142-0.001-3.212
		c0.381-0.202,0.58-0.436,0.292-0.891c-0.23-0.363-0.323-0.803-0.516-1.188c-0.897-1.79-0.887-3.45,0.372-5.135
		c0.694-0.929,0.858-2.143,0.942-3.316c0.066-0.922,0.245-1.832,0.339-2.756c-1.333,0.098-1.523-0.063-1.538-1.387
		c-0.019-1.73,0.002-3.46-0.012-5.19c-0.003-0.314,0.115-0.661-0.164-0.983c-0.437,0.26-0.525,0.752-0.787,1.114
		c-0.154,0.213-0.288,0.485-0.609,0.428c-0.325-0.058-0.359-0.362-0.416-0.617c-0.311-1.403-0.242-2.844-0.404-4.263
		c-0.12-1.054-0.256-2.111-0.26-3.178c-0.001-0.409-0.156-0.777-0.389-1.113c-0.015-0.541-0.079-1.118,0.702-1.177
		c0.336-0.025,0.322-0.252,0.346-0.493c0.205-2.082,0.592-4.147,0.601-6.248c0-0.1,0.011-0.201,0.038-0.297
		c0.106-0.376,0.134-0.918,0.619-0.9c0.532,0.02,0.466,0.579,0.471,0.954c0.039,2.511,0.865,4.941,0.656,7.47
		c0.009-1.441,0.304-2.847,0.445-4.265c0.059-0.596,0.132-1.191,0.185-1.788c0.033-0.376,0.144-0.794,0.595-0.8
		c0.511-0.006,0.508,0.475,0.509,0.82c0.004,1.457,0.075,2.908,0.256,4.247c0.591-2.279,0.512-4.732,0.841-7.138
		c0.077-0.562-0.044-1.39,0.659-1.529c0.776-0.154,0.946,0.679,1.23,1.22c0.721,1.37,1.056,2.867,1.427,4.353
		c0.094,0.378,0.121,0.803,0.534,1.019c0.728,0.498,1.407,1.044,1.801,1.866c0.306,1.7-0.246,3.298-0.436,4.738
		c0.424-0.991,0.114-2.417,0.854-3.599c0.607,0.8,0.978,5.268,0.975,10.885c0.145-3.508,0.338-7.284,0.64-11.055
		c0.111-1.391,0.178-2.788,0.263-4.183c0.024-0.396-0.024-0.805,0.217-1.159c0.452-0.275,0.597,0.041,0.694,0.383
		c0.101,0.355,0.073,0.727,0.073,1.093c0.002,3.23,0.01,6.46-0.005,9.69c-0.004,0.783,0.157,1.519,0.439,2.237
		c0.076,0.193,0.189,0.365,0.428,0.353c0.244-0.012,0.323-0.204,0.381-0.4c0.047-0.16,0.124-0.344,0.08-0.488
		c-0.357-1.154,0.078-2.423-0.531-3.542c-0.214-0.393-0.237-0.859-0.152-1.272c0.442-2.153-0.093-4.312,0.112-6.487
		c0.204-2.17,0.274-4.378,0.303-6.575c0.033-2.524,0.31-5.041,0.365-7.567c0.008-0.36,0.157-0.761-0.552-0.703
		c-0.442,0.036-0.632-0.538-0.741-0.961c-0.249-0.966-0.5-1.931-0.73-2.902c0.293-1.466,0.516-2.942,0.648-4.432
		c0.021-0.232,0.04-0.465,0.118-0.686c0.1-0.284,0.195-0.603,0.542-0.648c0.323-0.042,0.572,0.156,0.744,0.417
		c0.145,0.222,0.321,0.424,0.439,0.664c0.461,1.215,0.412,2.538,0.802,3.941c0.551-0.843,1.252-1.087,2.13-0.981
		c0.475,0.057,0.555-0.615,1.102-0.757c0.122,2.581,0.307,5.121,0.352,7.663c0.167,9.539,1.169,18.997,2.68,28.407
		c0.051,0.315,0.035,0.671,0.342,0.894c0.24,1-0.163,1.873-0.55,2.746c-0.065,0.146-0.195,0.311-0.378,0.254
		c-0.243-0.075-0.339-0.314-0.403-0.538c-0.25-0.876-0.145-1.786-0.233-2.679c-0.096-0.976,0.05-1.968-0.108-2.69
		c0.205,3.055,0.227,6.375,0.105,9.685c-0.115,3.118-0.01,6.268-0.789,9.336c-0.208,0.82-0.169,1.652,0.004,2.479
		c0.301,1.434,0.628,2.863,0.913,4.369c0.148-1.121,0.151-2.187,0.2-3.25c0.012-0.252,0.024-0.604,0.347-0.644
		c0.378-0.046,0.476,0.301,0.536,0.595c0.1,0.493,0.053,0.996,0.062,1.495c0.019,1.098-0.008,2.194,0.109,3.293
		c0.088,0.827-0.048,1.633-0.618,2.348c-0.538,0.674-0.327,1.55-0.332,2.325c-0.036,5.725-0.238,11.448-0.163,17.174
		c0.035,2.661,0.262,5.316,0.269,7.983c0.156-2.268,0.453-4.518,0.649-6.778c0.12-1.39,0.25-2.779,0.537-4.144
		c0.1-0.477-0.022-0.927-0.023-1.39c0.094-3.01,0.405-6.004,0.634-9.003c0.171-2.243,0.511-4.475,0.149-6.727
		c-0.259-4.451-0.141-8.91-0.35-13.364c-0.149-3.191-0.074-6.391-0.057-9.587c0.01-1.897-0.07-3.796,0.061-5.692
		c0.01-0.139-0.049-0.258-0.137-0.362c0.084-0.684,0.168-1.369,0.252-2.053c0.072-0.007,0.143-0.014,0.215-0.021
		c0.297,1.497,0.607,2.991,0.889,4.49c0.708,3.759,1.453,7.512,2.082,11.285c0.3,1.801,0.366,3.64,0.545,5.461
		c0.032,0.327-0.025,0.671,0.161,0.973c0.511,0.798,0.074,1.69,0.235,2.354c0.09-1.865-0.154-3.904,0.177-5.933
		C56.445,96.317,56.535,95.823,56.23,95.401z"/>
	<path fill="#332E2D" d="M82.405,157.801c0.357-1.434,0.41-2.909,0.587-4.367c0.035-0.29-0.123-0.506-0.391-0.632
		c-0.118-0.443,0.24-0.654,0.464-0.922c0.234-0.281,0.65-0.582,0.562-0.903c-0.416-1.526,0.767-2.784,0.637-4.248
		c-0.023-0.255,0.131-0.58-0.174-0.713c-0.327-0.142-0.549,0.142-0.766,0.342c-0.305,0.28-0.452,0.648-0.561,1.038
		c-0.126,0.448-0.276,0.889-0.426,1.329c-0.122,0.358-0.142,0.928-0.659,0.836c-0.418-0.074-0.257-0.595-0.313-1.094
		c-0.67,1.977-1.306,3.815-2.111,5.586c-0.164,0.36-0.217,0.895-0.836,0.819c-1.159-1.009-1.877-2.123-1.596-3.816
		c0.26-1.564,0.176-3.182,0.257-4.776c0.117-2.298,0.53-4.55,0.817-6.822c0.103-0.813,0.15-1.638,0.272-2.037
		c-0.818,6.389-2.137,13.108-3.285,19.855c-0.062,0.364-0.146,0.718-0.354,1.031c-0.333,0.38-0.685,0.828-1.252,0.553
		c-0.534-0.26-0.635-0.829-0.662-1.372c-0.19-3.807,0.071-7.588,0.888-11.307c0.581-2.64,0.711-5.349,1.323-7.74
		c0.04-0.268,0.034-0.236,0.013-0.138c-0.107,0.509-0.092,1.299-0.723,1.245c-0.67-0.057-0.591-0.858-0.601-1.409
		c-0.027-1.565-0.058-3.133,0.002-4.697c0.08-2.084-0.243-4.112-0.673-6.134c-0.097-0.455-0.22-0.92,0.161-1.32
		c0.144,0.221,0.301,0.436,0.43,0.665c0.298,0.528,0.588,0.523,1.186,0.299c1.719-0.643,3.2-1.74,4.901-2.409
		c0.729-0.287,1.052-0.122,1.33,0.566c0.285,0.706,0.704,1.356,1.029,2.047c1.063,2.263,2.361,4.371,3.905,6.345
		c1.716,2.194,2.237,4.844,2.633,7.52c0.105,0.71,0.038,1.474,0.646,2.031c0.08,0.074,0.117,0.245,0.103,0.362
		c-0.167,1.413,0.341,2.8,0.06,4.237c-0.578,2.959,0.355,5.783,0.907,8.829c0.439-0.445,0.523-1.024,1.055-1.111
		c0.829,0.076,1.138,0.488,0.992,1.338c-0.271,1.577-0.326,3.11,0.176,4.718c0.487,1.562-0.058,3.234-0.157,4.857
		c-0.028,0.462-0.09,0.927-0.158,1.388c-0.038,0.26-0.09,0.564-0.43,0.588c-0.319,0.023-0.459-0.24-0.556-0.49
		c-0.206-0.532-0.246-1.101-0.35-1.657c-0.297-1.601-0.585-3.208-1.339-4.678c-0.155-0.212-0.127-0.488-0.24-0.723
		c-0.137,0.152-0.149,0.377-0.331,0.487c-0.511,0.054-0.741,0.39-0.835,0.849c-0.169,0.824-0.654,1.567-0.528,2.472
		c0.097,0.695-0.181,1.263-0.799,1.683c-0.241,0.163-0.385,0.484-0.736,0.314c-0.326-0.158-0.234-0.502-0.309-0.782
		c-0.415-1.548-0.226-3.142-0.386-4.708c-0.084-0.82-0.503-1.573-0.45-2.425c0.013-0.201-0.112-0.467-0.366-0.546
		c-0.315-0.098-0.527,0.121-0.65,0.343c-0.299,0.538-0.667,0.906-1.337,0.8C82.089,158.732,82.327,158.267,82.405,157.801z"/>
	<path fill="#2A2625" d="M73.004,125.988c-0.187,1.022,0.254,1.98,0.453,2.923c0.623,2.946,0.184,5.899,0.345,8.841
		c0.031,0.575-0.157,1.194,0.303,1.744c0.512-0.392,0.341-1.087,0.78-1.515c0.349,0.763-0.023,1.478-0.109,2.182
		c-0.305,2.523-0.799,5.017-1.266,7.516c-0.271,1.449-0.388,2.945-0.554,4.42c-0.201,1.782,0.057,3.551-0.105,5.321
		c-0.042,0.454,0.096,0.996,0.474,1.26c0.496,0.346,0.682-0.372,1.072-0.482c0.152,0.124,0.216,0.292,0.246,0.478
		c-0.213,3.137-0.426,6.276-0.818,9.398c-0.065,0.518-0.134,1.146-0.822,1.331c-0.819-2.814-1.344-5.683-1.605-8.601
		c0.357-1.507,0.263-3.022,0.22-4.558c-0.058-2.087,0.193-4.179,0.641-6.23c0.064-0.292,0.14-0.576,0.147-0.875
		c-0.038,0.367,0,0.857-0.518,0.828c-0.347-0.02-0.315-0.45-0.339-0.742c-0.057-0.704,0.364-1.309,0.371-1.972
		c-0.137,0.156,0.109,0.668-0.357,0.591c-0.416-0.069-0.425-0.484-0.429-0.805c-0.026-2.062-0.112-4.128,0.045-6.186
		c0.058-0.766-0.054-1.529,0.003-2.292c0.045,1.573-0.316,3.124-0.272,4.686c0.066,2.333-0.306,4.647-0.208,6.977
		c0.006,0.135-0.036,0.262-0.107,0.378c-0.35,0.007-0.731-0.118-0.623,0.534c0.144,0.872,0.157,1.765,0.049,2.674
		c-0.341-1.965-0.715-3.925-1.013-5.896c-0.325-2.156-0.87-4.271-1.118-6.444c-0.097-0.851-0.141-1.714-0.229-2.564
		c-0.318-3.092-0.438-6.2,0.129-9.289c0.036-0.193,0.036-0.527,0.128-0.556c0.93-0.294,0.682-1.144,0.782-1.751
		c0.238-1.431,0.336-2.885,0.491-4.33c0.19-0.333,0.38-0.667,0.569-1c0.64-0.004,0.682,0.539,0.817,0.948
		c0.168,0.509,0.184,1.066,0.067,1.577c-0.373,1.631,0.2,3.225,0.105,4.845c0.295-1.598,0.382-3.212,0.57-4.815
		c0.042-0.359-0.079-0.831,0.481-0.936C72.203,124.396,72.604,125.192,73.004,125.988z"/>
	<path fill="#282322" d="M89.404,161.196c0.506,0.344,0.659,0.885,0.801,1.432c0.395,1.528,0.8,3.055,0.99,4.627
		c0.039,0.326,0.045,0.658,0.477,0.875c0.257-0.703,0.17-1.437,0.284-2.124c0.198-1.199,0.172-2.435,0.245-3.655
		c0.035-0.574-0.064-1.104-0.319-1.634c-0.637-1.321-0.074-2.67-0.008-4.005c0.022-0.442,0.51-1.049-0.522-0.83
		c-0.171,0.036-0.132-0.326-0.162-0.513c0.98-2.184,1.625-4.467,1.998-6.828c0.041-0.262,0.022-0.529,0.22-0.74
		c0.617,0.72,0.81,1.677,1.063,2.509c0.412,1.353,1.138,2.567,1.488,3.945c0.286,1.127,0.173,2.231,0.24,3.345
		c0.09,1.567-0.274,3.163,0.423,4.693c0.284,0.623-0.116,1.309-0.137,1.977c-0.034,1.126-0.204,2.251,0.122,3.343
		c0.444,1.487-0.684,2.43-1.274,3.46c-0.779,1.362-1.624,2.708-2.48,4.035c-0.205,0.319-0.281,0.67-0.253,1.047
		c0.059,0.81-0.03,1.598-0.437,2.315c-0.293,0.517-0.041,0.908,0.279,1.253c1.167,1.257,1.498,2.834,1.742,4.446
		c0.032,0.209,0.093,0.548-0.247,0.543c-1.572-0.024-2.523,0.913-3.337,2.084c-0.445-0.569-0.468-1.229-0.371-1.898
		c0.19-1.317,0.303-2.641,0.503-4.002c-0.459,0.242-0.518,1.081-1.127,0.833c-0.571-0.232-0.519-0.9-0.479-1.419
		c0.242-3.131,0.009-6.237-0.384-9.343c-0.21-1.662,0.098-3.324,0.216-4.98c0.088-1.231,0.173-2.454,0.124-3.686
		C89.064,161.906,89.066,161.498,89.404,161.196z"/>
	<path fill="#3F3A39" d="M16.799,140.601c-1.009-2.825-1.703-5.744-2.603-8.601c-0.861-2.733-1.473-5.545-2.59-8.198
		c-0.889-3.054-0.923-6.218-1.278-9.344c0.593-0.105,0.829,0.522,1.418,0.459c0-1.285,0-2.567,0-3.849
		c0.066-0.007,0.132-0.015,0.198-0.022c0.289,1.398,0.605,2.792,0.856,4.197c0.123,0.689,0.433,1.075,1.151,1.078
		c1.281,0.354,1.281,0.354,1.346,2.297c0.128-1.018-0.062-2.074,0.119-3.117c0.109-0.306,0.242-0.591,0.585-0.699
		c0.598-0.283,0.549,0.24,0.671,0.543c0.961,2.383,1.394,4.885,1.737,7.417c0.408,3.008,0.917,6.003,1.344,9.009
		c0.51,3.596,0.991,7.196,1.455,10.798c0.079,0.61,0.011,1.239,0.011,2.046c-0.955-0.901-0.997-1.948-1.199-2.917
		c-0.854-4.109-1.693-8.221-2.532-12.333c-0.193-0.948-0.216-1.941-0.859-2.784c0.148,1.05,0.308,2.099,0.442,3.15
		c0.359,2.815,0.976,5.591,1.176,8.436c0.077,1.094,0.402,2.196,0.481,3.315c0.019,0.264,0.058,0.527,0.066,0.79
		c0.008,0.272-0.013,0.56-0.336,0.645c-0.275,0.073-0.406-0.181-0.57-0.333C17.304,142.046,17.335,141.167,16.799,140.601z"/>
	<path fill="#1A1514" d="M57.016,105.208c0.325-0.086,0.643-0.167,0.877,0.193c0.885,1.367,2.345,2.167,3.461,3.513
		c0-1.601,0-3.095,0-4.589c-0.064-3.154-0.16-6.308-0.173-9.462c-0.005-1.125,0.378-2.211,0.703-3.543
		c1.154,4.085,1.199,8.073,1.549,12.022c-0.011,0.498-0.024,0.995-0.033,1.493c-0.068,3.554,0.009,7.118-0.249,10.658
		c-0.217,2.982,0.109,5.982-0.366,8.941c-0.283,1.76-0.691,3.501-1.045,5.25c-0.379,1.878-0.761,3.755-1.138,5.633
		c-0.038,0.188,0.008,0.407-0.357,0.551c0.05-1.398-0.372-2.698-0.179-4.095c0.151-1.093,0.096-2.26-0.115-3.346
		c-0.243-1.251-0.166-2.509-0.299-3.758c-0.21-1.97-0.323-3.964-0.276-5.961c0.023-0.969-0.054-1.964-0.379-2.906
		c-0.651-0.581-0.642-1.444-0.737-2.173c-0.12-0.921-0.256-1.886-0.049-2.831c0.061-0.197,0.201-0.333,0.37-0.437
		c0.523-0.32,0.345-0.611-0.032-0.897c-0.443-0.336-0.875-0.683-1.206-1.14C56.96,107.312,56.667,106.294,57.016,105.208z"/>
	<path fill="#302B29" d="M37,68.399c-0.665-0.028-0.656-0.611-0.759-1.018c-0.389-1.54-0.727-3.092-1.447-4.527
		c-0.235-0.468-0.404-1.205-0.919-1.15c-0.497,0.053-0.391,0.845-0.441,1.285c-0.275,2.464-0.298,4.955-0.825,7.393
		c-0.069,0.319-0.02,0.663-0.487,0.961c-0.112-1.138-0.243-2.199-0.313-3.264c-0.048-0.73-0.001-1.466-0.015-2.199
		c-0.004-0.21,0.1-0.539-0.233-0.561c-0.286-0.019-0.36,0.268-0.352,0.505c0.052,1.435-0.346,2.824-0.422,4.247
		c-0.045,0.845-0.213,1.683-0.556,2.524c-0.318-2.951-0.637-5.902-0.956-8.853c-0.089-0.012-0.179-0.024-0.268-0.035
		c-0.289,2.79-0.578,5.581-0.874,8.442c-1.175-0.982-0.921,0.183-1.131,0.654c0.02,0.027,0.056,0.052,0.058,0.08
		c0.145,1.944-0.291,3.807-0.804,5.658c-0.027,0.097-0.158,0.108-0.253,0.136c-0.653-0.29-0.53-0.893-0.463-1.38
		c0.454-3.295,0.205-6.643,0.759-9.93c0.043-0.255,0.123-0.529-0.081-0.765c-0.127-0.624,0.248-1.188,0.216-1.801
		c0.9-0.847,1.111-2.073,1.689-3.098c0.248-0.44,0.216-1.225,0.883-1.151c0.716,0.08,0.715,0.862,0.823,1.433
		c0.087,0.458-0.043,0.921-0.055,1.174c0.304-2.467,0.878-5.102,1.232-7.774c0.15-1.131,0.112-2.18-0.429-3.191
		c0.016-0.159-0.012-0.339,0.194-0.407c0.995,0.27,0.984,0.249,1.244-0.812c0.107-0.439-0.093-0.825-0.046-1.238
		c0.912-2.105,1.623-4.311,3.101-6.129c0.495,0.19,0.516,0.198,0.311,0.763c-0.421,1.159-1.02,2.234-1.611,3.312
		c-0.144,0.262-0.308,0.513-0.443,0.78c-0.145,0.287-0.209,0.578,0.079,0.812c0.303,0.246,0.563,0.073,0.795-0.135
		c0.518-0.465,0.965-1.014,1.603-1.334c0.124-0.062,0.25-0.082,0.387-0.045c0.084,0.077,0.134,0.17,0.155,0.281
		c-0.119,3.555-0.297,7.107-0.473,10.657c-0.144,2.915,0.54,5.675,1.173,8.461C37.139,67.57,37.323,67.997,37,68.399z"/>
	<path fill="#312C2A" d="M51.799,124.998c0.374,1.22-0.137,2.41-0.302,3.566c-0.212,1.49-0.241,2.994-0.447,4.483
		c-0.216,1.553-0.411,3.142-0.289,4.732c0.011,0.14,0.006,0.297-0.141,0.317c-0.107,0.015-0.248-0.065-0.344-0.14
		c-0.299-0.237-0.266-0.581-0.278-0.917c-0.201-5.729-0.241-11.46-0.19-17.192c0.018-1.987,0.137-3.972,0.187-5.958
		c0.027-1.054-0.003-2.11,0.008-3.164c0.006-0.542-0.088-1.037,0.581-1.439c0.436-0.262,0.466-1.123,0.372-1.653
		c-0.277-1.562-0.078-3.122-0.156-4.679c-0.014-0.282,0.056-0.593-0.381-0.914c-0.044,1.713,0.04,3.305-0.507,4.885
		c-0.202-0.904-0.431-1.802-0.601-2.712c-0.285-1.525-0.895-3.013-0.693-4.599c0.171-1.343,0.449-2.673,0.678-4.009
		c0.039-0.228,0.093-0.457,0.099-0.686c0.073-2.807,0.272-5.619,0.162-8.419c-0.084-2.142,0.351-4.293-0.123-6.427
		c-0.057-0.258,0.116-0.567,0.257-0.852c0.5,2.166,0.21,4.42,0.747,6.684c0.636-0.955,0.568-2.021,0.948-2.94
		c-0.029-0.949,0.171-1.863,0.433-2.766c0.707-0.151,0.363,0.418,0.364,0.62c0.025,3.457,0.032,6.914,0.014,10.37
		c-0.021,4.17,0.297,8.333,0.221,12.506c-0.033,1.834,0.115,3.671,0.182,5.506c-0.548-0.277-0.636,0.102-0.76,0.502
		c-0.662,2.129-0.724,4.315-0.512,6.498c0.259,2.673,0.372,5.346,0.374,8.028C51.701,124.486,51.617,124.761,51.799,124.998z"/>
	<path fill="#262222" d="M9.809,136.201c0.265,0.132,0.454,0.353,0.371,0.639c-0.397,1.355,0.23,2.696,0.03,4.049
		c-0.074,0.499,0.124,0.958,0.478,1.527c1.642-4.525,0.975-9.185,1.738-13.696c1.864,6.073,3.295,12.214,4.775,18.353
		c-0.461,0.1-0.584-0.19-0.776-0.351c-0.936-0.782-1.62-0.637-1.847,0.584c-0.296,1.592-0.63,3.173-0.972,4.754
		c-0.335,1.545-0.633,3.097-0.953,4.645c-0.068,0.328-0.166,0.767-0.542,0.735c-0.456-0.039-0.286-0.516-0.306-0.819
		c-0.24-3.765-0.529-7.526-0.647-11.3c-0.022-0.701,0.255-1.602-0.542-2.217c-0.409,0.637-0.137,1.318-0.213,1.956
		c-0.032,0.268-0.024,0.629-0.345,0.621c-0.388-0.009-0.247-0.406-0.249-0.64c-0.021-2.032-0.026-4.064-0.035-6.096
		C9.785,138.029,9.797,137.115,9.809,136.201z"/>
	<path fill="#302B29" d="M24.598,74.995c0.539-0.49,0.5-1.229,0.789-1.827c0.571,1.022,0.282,2.132,0.235,3.187
		c-0.045,1.008-0.106,2.04-0.382,3.03c-0.164,0.587-0.024,0.927,0.654,0.88c0.196,0.352,0.099,0.716,0.037,1.074
		c-0.505,2.95-0.942,5.913-1.52,8.85c-0.559,0.931-1.47,1.502-2.286,2.158c-0.491,0.394-0.779,1.116-1.572,1.075
		c-0.239-0.24-0.359-0.509-0.198-0.843c0.718-0.361,0.927-0.834,0.516-1.609c-1.013-1.908-1.062-4.1-1.712-6.12
		c-0.254-0.789-0.532-1.573-0.748-2.373c-0.116-0.433-0.356-0.885-0.02-1.334c1.782-0.165,2.801,0.581,2.982,2.263
		c0.076,0.705,0.442,1.297,0.539,2.158c0.582-2.005,1.178-3.8,1.256-5.713c0.025-0.6,0.196-1.19,0.483-1.719
		C24.183,77.147,24.142,75.997,24.598,74.995z"/>
	<path fill="#47413F" d="M36.2,47.803c-0.067-0.001-0.134-0.002-0.2-0.003c-0.386-0.419-0.212-0.893-0.071-1.318
		c0.764-2.305,1.6-4.575,3.524-6.227c0.076-0.065,0.112-0.162,0.132-0.262c2.124-0.524,3.314,0.106,3.932,2.098
		c0.175,0.563,0.308,1.138,0.461,1.707c-0.056-0.035-0.112-0.069-0.169-0.104c-0.381-0.23-0.613-0.961-1.043-0.741
		c-0.45,0.231-0.289,0.94-0.385,1.449c-0.253,1.334-0.061,2.759-0.783,4c-0.354,0.145-0.663-0.016-0.929-0.198
		c-0.957-0.657-1.985-0.606-3.049-0.381C37.151,47.924,36.668,48.177,36.2,47.803z"/>
	<path fill="#494442" d="M24.598,74.995c0.069,1.156-0.224,2.232-0.726,3.262c-0.356,0.729-0.471,1.503-0.485,2.311
		c-0.03,1.704-0.794,3.248-1.123,4.89c-0.051,0.256-0.055,0.705-0.475,0.615c-0.326-0.069-0.164-0.452-0.184-0.696
		c-0.07-0.86-0.518-1.611-0.608-2.492c-0.151-1.484-1.578-1.34-2.591-1.691c-0.411-0.136-0.471-0.522-0.599-0.854
		c-0.627-1.632-1.094-3.328-1.975-4.857c-0.131-0.228-0.251-0.48-0.009-0.724c1.782,0.713,3.442,1.676,5.138,2.561
		c0.787,0.411,1.298,0.499,1.86-0.34C23.31,76.249,23.998,75.651,24.598,74.995z"/>
	<path fill="#2C2827" d="M30.576,52.192c1.07,0.595,0.918,1.65,0.792,2.549c-0.392,2.78-0.903,5.544-1.377,8.312
		c-0.032,0.186-0.132,0.361-0.303,0.812c-0.174-1.051,0.06-1.885-0.3-2.628c-0.098-0.203-0.115-0.508-0.381-0.534
		c-0.365-0.037-0.427,0.308-0.436,0.552c-0.044,1.177-1.23,1.882-1.235,3.098c-0.002,0.376-0.521,0.442-0.901,0.445
		c0.315-1.675,0.709-3.34,0.924-5.027c0.23-1.812,0.844-3.451,1.765-5.004C29.624,53.92,30.092,53.052,30.576,52.192z"/>
	<path fill="#262222" d="M9.616,147.6c1.021,0.25,0.737,1.105,0.729,1.75c-0.005,0.392-0.173,0.756,0.15,1.103
		c0.078,0.084,0.135,0.283,0.089,0.372c-0.914,1.786-0.192,3.651-0.082,5.421c0.202,3.231-0.337,6.498,0.44,9.697
		c0.117,0.484,0.04,0.977-0.035,1.477c-0.214,1.416-0.353,2.843-0.539,4.264c-0.029,0.223-0.112,0.461-0.24,0.643
		c-0.205,0.29,0.008,0.96-0.422,0.89c-0.543-0.088-0.289-0.718-0.294-1.108c-0.033-2.259-0.034-4.519-0.046-6.779
		c0.042-4.516,0.077-9.033,0.129-13.549C9.511,150.388,9.574,148.994,9.616,147.6z"/>
	<path fill="#262220" d="M16.002,114.801c-0.134,0.201-0.267,0.401-0.401,0.602c-0.83-0.479-0.628-1.28-0.588-2
		c0.122-2.176,0.372-4.345,0.29-6.529c-0.006-0.164,0.011-0.332-0.09-0.478c-0.996-0.824-1.199-1.811-0.673-2.993
		c0.198-0.446,0.281-0.944,0.416-1.418c0.249-0.253,0.472-0.605,0.895-0.46c0.427,0.146,0.388,0.561,0.411,0.915
		c0.031,0.49-0.021,0.984,0.078,1.47c0.012,0.178-0.036,0.34-0.138,0.486c0.226,1.176,0.767,2.242,1.183,3.352
		c0.084,0.225,0.229,0.421,0.502,0.414c0.319-0.009,0.296-0.306,0.385-0.505c0.223-0.495,0.048-1.125,0.67-1.702
		c0.073,1.113,0.268,2.12-0.078,3.018c-0.523,1.359-0.948,2.771-2.078,3.87C16.355,113.263,15.887,113.999,16.002,114.801z"/>
	<path fill="#1F1917" d="M15.823,74.758c1.085,2.055,1.753,4.278,2.583,6.436c0.043,1.046,0.5,1.984,0.829,2.944
		c0.688,2.003,0.782,4.158,1.609,6.119c0.139,0.331,0.18,0.702,0.472,0.972c0.356,0.33,0.081,0.683-0.046,1
		c-0.154,0.383-0.433,0.586-0.866,0.366c-0.644-0.651-0.652-1.536-0.863-2.346c-0.05-0.801-0.185-1.589-0.514-2.321
		c-0.221-0.493-0.312-1.005-0.398-1.526c-0.678-2.485-1.335-4.976-2.044-7.451c-0.336-1.173-0.793-2.31-1.145-3.479
		C15.362,75.212,15.012,74.621,15.823,74.758z"/>
	<path fill="#3C3432" d="M39.585,39.993c0.723,0.361-0.043,0.52-0.14,0.618c-1.976,2.005-3.08,4.417-3.444,7.189
		c-0.596,0.562-1.197,1.117-1.784,1.687c-0.3,0.291-0.592,0.424-0.937,0.084c-0.307-0.303-0.633-0.551-0.287-1.082
		c0.881-1.35,1.603-2.79,2.205-4.288c0.093-0.23,0.333-0.488-0.129-0.596C36.201,41.935,37.582,40.576,39.585,39.993z"/>
	<path fill="#373130" d="M19.799,90.2c0.201,0.798,0.403,1.596,0.604,2.394c0.066,0.267,0.132,0.534,0.198,0.801
		c-0.051,0.17-0.157,0.28-0.337,0.309c-0.554-0.071-0.616-0.533-0.732-0.941c-0.134-0.473-0.25-0.951-0.555-1.358
		c-0.4,0.161-0.362,0.503-0.43,0.769c-0.712,2.795-1.32,5.615-1.955,8.428c-0.163,0.721-0.095,1.452-0.122,2.18
		c-0.016,0.421,0.081,0.873-0.273,1.221c-0.364-0.398-0.175-0.884-0.188-1.328c-0.033-1.119-0.014-1.12-1.052-0.69
		c0.512-2.775,1.268-5.493,1.944-8.23c0.528-2.138,1.12-4.26,1.684-6.389C19.171,88.233,19.351,89.274,19.799,90.2z"/>
	<path fill="#373130" d="M15.214,106.396c0.573,1.453,0.289,2.955,0.286,4.448c-0.004,1.519-0.631,3.057,0.101,4.559
		c-0.001,1.131,0,2.261-0.006,3.391c-0.001,0.226,0.031,0.53-0.286,0.541c-0.324,0.011-0.326-0.295-0.301-0.518
		c0.114-1.034,0.133-2.018-1.056-2.497c0.401-2.879,0.807-5.758,1.198-8.639C15.208,107.258,15.195,106.825,15.214,106.396z"/>
	<path fill="#332E2D" d="M71.802,123.599c-0.416,0.791-0.182,1.677-0.364,2.515c-0.216,0.991-0.18,2.039-0.234,3.063
		c-0.02,0.385-0.059,0.853-0.484,0.854c-0.462,0.001-0.314-0.501-0.313-0.8c0.001-1.848-0.338-3.692-0.018-5.545
		c0.113-0.653-0.133-1.242-0.626-1.706c0.843-0.423,1.479-0.356,1.728,0.704C71.564,122.997,71.697,123.295,71.802,123.599z"/>
	<path fill="#2C2827" d="M25.796,80.199c-0.32,0.099-0.358,0.464-0.671,0.697c-0.294-0.776-0.092-1.456,0.013-2.215
		c0.252-1.817,0.385-3.666,0.249-5.513c0.362-2.178,0.273-4.414,0.831-6.568c0.495,0.082,0.413,0.476,0.366,0.778
		c-0.204,1.334-0.37,2.668-0.397,4.021c-0.027,1.338,0.073,2.68-0.174,4.014c-0.137,0.74-0.164,1.502-0.204,2.257
		c-0.017,0.314-0.115,0.671,0.193,0.929C26.322,79.183,26.145,79.702,25.796,80.199z"/>
	<path fill="#615E5D" d="M68.414,115.021c-0.002-0.473-0.062-0.946-0.37-1.315c-0.83-0.997-0.9-2.16-0.864-3.382
		c0.047-1.589-0.381-3.071-1.135-4.474c-0.264-0.492-0.423-1.045-0.591-1.582c-0.106-0.337-0.196-0.643-0.624-0.652
		c0.255-0.207,0.51-0.415,0.765-0.622c0.503-0.049,0.585,0.338,0.693,0.683c0.744,2.394,1.75,4.728,1.606,7.323
		c-0.034,0.606,0.339,1.134,0.561,1.683c0.204,0.506,0.319,1.006,0.18,1.545C68.61,114.505,68.616,114.792,68.414,115.021z"/>
	<path fill="#201C1B" d="M56.23,95.401c0.358-0.16,0.401,0.054,0.368,0.324c-0.313,2.559-0.133,5.135-0.306,7.708
		c-0.551-0.985-0.136-2.077-0.33-3.099C56.051,98.689,56.14,97.045,56.23,95.401z"/>
	<path fill="#3C3432" d="M31.968,49.735c0.414,0.527,0.284,2.25-0.192,2.676c-0.202,0.181-0.358,0.109-0.482-0.07
		c-0.148-0.213-0.253-0.46-0.523-0.556C31.169,51.102,31.569,50.418,31.968,49.735z"/>
	<path fill="#302B29" d="M19.799,90.2c-0.645-0.842-1.145-1.745-1.214-2.834c0.015-0.322,0.029-0.643,0.044-0.965
		C19.209,87.609,19.786,88.818,19.799,90.2z"/>
	<path fill="#423B39" d="M57.016,105.208c0.231,1.056,0.116,2.176,0.589,3.187c0.479,0.658,0.757,1.387,0.789,2.204
		c-0.011,1.759,0.129,3.5,0.604,5.203c-0.371,0.726-0.921,0.171-1.39,0.195c-0.503-0.237-0.288-0.696-0.292-1.058
		c-0.006-0.426-0.095-0.847-0.087-1.251c-0.105,0.278,0.163,0.61-0.05,0.904c-0.324,0.378-0.171,0.832-0.172,1.249
		c-0.009,17.329,0.03,34.657-0.047,51.985c-0.013,2.854-0.129,5.714-0.175,8.572c-0.011,0.678-0.176,1.354-0.455,2.058
		c-0.11-0.786-0.329-1.576-0.31-2.359c0.07-2.83-0.194-5.648-0.262-8.472c-0.086-3.548-0.359-7.093-0.362-10.647
		c0-0.225,0.038-0.477-0.256-0.625c-0.369,0.436-0.341,0.958-0.341,1.475c0,6.498,0.004,12.996-0.012,19.495
		c-0.001,0.385,0.235,1.09-0.306,1.076c-0.495-0.012-0.258-0.722-0.271-1.121c-0.086-2.69-0.073-5.385-0.23-8.071
		c-0.2-3.414-0.388-6.826-0.381-10.247c0.001-0.366,0.021-0.738-0.319-1.017c-0.46,0.263-0.27,0.709-0.271,1.069
		c-0.014,4.465-0.055,8.931,0.009,13.396c0.032,2.232-0.319,4.444-0.222,6.673c0.009,0.197-0.001,0.398-0.183,0.526
		c-0.226,0.027-0.203-0.142-0.206-0.254c-0.072-2.691-0.091-5.384-0.22-8.072c-0.159-3.315-0.297-6.63-0.44-9.945
		c-0.064-1.491-0.085-2.984-0.15-4.475c-0.013-0.311,0.081-0.657-0.233-0.924c-0.281,0.285-0.159,0.596-0.157,0.867
		c0.054,6.912-0.354,13.82-0.21,20.733c0.004,0.199,0.007,0.402-0.022,0.598c-0.024,0.163-0.104,0.349-0.306,0.306
		c-0.096-0.02-0.192-0.171-0.234-0.282c-0.045-0.119-0.04-0.263-0.032-0.395c0.141-2.397-0.178-4.78-0.232-7.172
		c-0.076-3.349-0.2-6.705-0.434-10.043c-0.134-1.915,0.136-3.859-0.339-5.75c-0.395-0.407-0.305-0.927-0.311-1.414
		c-0.041-3.118,0.149-6.226,0.469-9.326c0.084-0.819,0.07-1.648,0.241-2.458c0.375-0.245,0.058-0.706,0.363-1.075
		c0.305,2.504,0.6,4.93,0.896,7.356c0.116-0.003,0.232-0.006,0.348-0.01c-0.115-6.104,0.143-12.197,0.467-18.309
		c0.34,5.019,0.681,10.039,1.021,15.058c0.105-0.003,0.21-0.007,0.316-0.01c0-11.023,0-22.046,0-33.07
		c0.374,0.001,0.385,0.163,0.38,0.278c-0.087,1.996,0.184,3.98,0.209,5.971c0.052,4.017,0.332,8.025,0.444,12.041
		c0.094,3.381,0.374,6.758,0.362,10.144c-0.001,0.36-0.034,0.729,0.403,1.179c0-13.386,0-26.598,0-39.809
		c0.085-0.02,0.169-0.041,0.254-0.061C55.806,102.611,55.647,104.282,57.016,105.208z"/>
	<path fill="#423B39" d="M47.21,107.803c0.18-0.373,0.36-0.746,0.537-1.115c0.311,0.117,0.242,0.344,0.249,0.53
		c0.09,2.285,0.321,4.572,0.345,6.848c0.028,2.683,0.268,5.353,0.276,8.035c0.007,2.296,0.251,4.592,0.236,6.887
		c-0.005,0.796,0.049,1.623-0.106,2.413c-0.087,0.442-0.178,0.799,0.116,1.215c0.351,0.497-0.293,0.841-0.299,1.363
		c-0.037,3.574-0.222,7.145-0.179,10.723c0.014,1.178-0.124,2.358-0.185,3.537c-0.021,0.4-0.026,0.802,0.199,1.162
		c0.33,0.318,0.279,0.725,0.255,1.122c-0.16,2.752-0.32,5.503-0.362,8.262c-0.018,1.21-0.023,2.45-0.491,3.612
		c-0.056,0.335,0.128,0.718-0.198,1c-0.356-0.209-0.427-0.565-0.471-0.929c-0.202-1.696-0.423-3.391-0.613-5.087
		c-0.028-0.52-0.179-1.033-0.085-1.554c-0.222,1.096-0.684,2.101-1.156,3.1c-0.09,0.19-0.246,0.423-0.539,0.219
		c-0.296-0.413-0.249-0.89-0.25-1.352c-0.003-5.197-0.033-10.394,0.023-15.591c0.017-1.548,0.166-3.096,0.27-4.642
		c-0.091,1.552-0.235,3.101-0.28,4.655c-0.085,2.93-0.395,5.842-0.607,8.762c-0.022,0.299-0.052,0.602-0.3,0.821
		c-0.385,0.353-0.769,0.706-1.154,1.058c-0.43,0.393-0.718,0.569-0.871-0.257c-0.164-0.884-0.502-1.736-0.764-2.601
		c-0.645-1.533-1.086-3.134-1.496-4.738c-0.782-3.057-1.563-6.113-2.369-9.164c-0.092-0.349-0.216-0.708-0.005-1.063
		c0.763-0.12,0.852,0.522,0.996,0.976c0.474,1.493,1.246,2.852,1.872,4.275c0.979,2.229,1.644,4.561,2.423,6.856
		c0.031,0.091,0.004,0.161,0.019,0.147c-0.321-2.175-0.472-4.424-0.89-6.671c-0.455-2.44-0.814-4.915-1.16-7.383
		c-0.361-2.571-0.811-5.127-1.264-7.682c-0.149-0.844-0.074-1.563,0.509-2.227c0.543-0.618,0.796-1.473,1.554-1.921
		c0.334,0.133,0.667,0.265,1.001,0.398c0.417,0.458,0.301,1.005,0.206,1.519c-0.214,1.154-0.06,2.225,0.422,3.304
		c0.692,1.549,1.256,3.155,1.939,4.71c0.46,1.047,0.722,2.136,0.76,3.282c0.076,2.269,0.303,4.531,0.361,6.141
		c-0.17-2.074-0.202-4.819-0.491-7.545c-0.147-1.391-0.17-2.792-0.222-4.179c-0.129-3.423-0.511-6.833-0.472-10.263
		c0.011-0.939,0.085-1.858,0.343-2.763c0.666-2.337,1.199-4.709,1.821-7.058C46.773,108.534,46.821,108.085,47.21,107.803z"/>
	<path fill="#110F0F" d="M57.18,114.591c-0.234-0.555-0.246-1.11,0.015-1.669c0.212,0.528,0.368,1.051,0.255,1.634
		c-0.094,0.486-0.129,0.986,0.16,1.44c0.06,2.485,0.308,4.957,0.552,7.429c0.11,1.122,0.086,2.248,0.202,3.376
		c0.244,2.372,0.279,4.764,0.445,7.145c0.24,3.435,0.52,6.868,0.781,10.301c0.01,0.133,0.005,0.266,0.008,0.4
		c0.068,3.325,0.055,6.653,0.227,9.972c0.199,3.849,0.283,7.699,0.413,11.549c0.118,3.483,0.244,6.968,0.413,10.448
		c0.103,2.128,0.086,4.249,0.155,6.442c-0.526-0.128-0.548-0.593-0.737-0.89c-0.698-1.09-1.472-2.153-2.002-3.324
		c-0.536-1.183-0.391-2.54-0.445-3.816c-0.847-19.974-0.239-39.959-0.42-59.939C57.198,114.924,57.187,114.758,57.18,114.591z"/>
	<path fill="#141110" d="M73.003,169.404c0.726-0.883,0.638-1.999,0.76-3.016c0.239-1.995,0.297-4.011,0.443-6.017
		c0.043-0.59,0.131-1.177,0.198-1.766c0.599-0.248,0.665,0.216,0.796,0.595c-0.001,0.199-0.001,0.399-0.002,0.598
		c-0.073,1.36,0.011,2.727-0.219,4.119c0.247-0.849,0.591-1.602,1.024-2.315c0.452-0.249,0.448,0.19,0.599,0.396
		c0.51,0.279,0.551,0.811,0.649,1.286c0.388,1.885,0.807,3.763,1.225,5.449c-0.261-2.205-0.488-4.6-0.539-7.007
		c-0.008-0.393-0.221-0.973,0.462-1.125c0.774,3.219,1.539,6.44,2.331,9.654c0.174,0.709-0.02,1.028-0.763,0.945
		c-0.638-0.072-1.165-0.02-1.314,0.785c-0.041,0.22-0.308,0.48-0.532,0.57c-1.586,0.637-1.533,2.141-1.682,3.409
		c-0.238,2.034-0.647,4.054-0.661,6.114c-0.001,0.192-0.107,0.382-0.157,0.574c-0.047,0.182,0.002,0.458-0.271,0.451
		c-0.247-0.006-0.404-0.223-0.487-0.447c-0.108-0.292,0.03-0.59,0.029-0.877c-0.008-1.762,0.456-3.473,0.517-5.226
		c0.022-0.645-0.14-0.849-0.848-0.78c-1.521,0.148-1.558,0.066-1.56-1.473c-0.001-1.033,0.001-2.066,0.001-3.098
		C73.442,170.602,73.001,170.003,73.003,169.404z"/>
	<path fill="#1B1615" d="M46.783,157.203c0.274,2.065,0.548,4.129,0.822,6.194c-0.003,3.486,0.148,6.982-0.052,10.457
		c-0.195,3.395,0.031,6.79-0.193,10.171c-0.128,1.929-0.114,3.85-0.161,5.776c-0.066,0.116-0.133,0.114-0.199,0
		c-0.265-1.407-0.906-2.691-1.334-4.045c-0.808-2.552-1.747-5.063-2.4-7.663c-0.071-0.284-0.051-0.592-0.073-0.889
		c0.835-0.357,0.857,0.66,1.386,0.828c0.344-0.217,0.29-0.574,0.318-0.893c0.341-3.899,0.746-7.796,0.948-11.703
		c0.116-2.251,0.31-4.504,0.281-6.765C46.118,158.121,45.968,157.421,46.783,157.203z"/>
	<path fill="#3F3736" d="M82.999,190.782c-0.198,0.141-0.395,0.281-0.593,0.422c-2.355-0.403-4.701-0.923-6.933-1.735
		c-1.699-0.618-3.244-1.672-4.834-2.574c-0.769-0.436,0.07-0.732,0.162-1.094c1.047-0.342,1.614-0.983,1.407-2.157
		c-0.091-0.514,0.149-0.601,0.64-0.476c1.487,0.38,2.638,1.37,3.929,2.102c1.761,0.998,3.483,2.066,5.259,3.035
		C83.609,189.164,83.673,189.227,82.999,190.782z"/>
	<path fill="#1C1918" d="M70.597,150.602c-0.388-1.001-0.261-2.057-0.142-3.056c0.102-0.864,0.159-1.719,0.136-2.577
		c-0.063-2.428,0.328-4.824,0.34-7.262c0.44,0.044,0.68,0.32,0.623,0.525c-0.202,0.73,0.091,1.447-0.003,2.147
		c-0.317,2.355-0.075,4.715-0.129,7.071c-0.002,0.076,0.082,0.155,0.14,0.256c0.385-0.219,0.131-0.63,0.329-0.924
		c0.417,1.04-0.31,2.049,0.017,3.16c0.464-0.489,0.18-1.138,0.614-1.539c0.265,0.833-0.063,1.616-0.142,2.404
		c-0.159,1.61-0.513,3.212-0.525,4.82c-0.008,1.112,0.169,2.244,0.135,3.371c-0.02,0.646-0.006,1.332-0.592,1.805
		c-0.253-0.677-0.396-1.377-0.399-2.099c-0.007-1.669-0.119-3.326,0.118-5.009C71.257,152.708,70.791,151.636,70.597,150.602z"/>
	<path fill="#2D2523" d="M47.804,162.396c0.134-3.708,0.249-7.418,0.421-11.124c0.029-0.62,0.212-1.237,0.176-1.872
		c0.492-1.505,0.587-3.078,0.804-4.631c0.148-1.064,0.22-2.145,0.593-3.168c0.032,4.404-0.557,8.79-0.399,13.198
		c-0.685,0.802-0.557,1.843-0.539,2.725c0.027,1.285-0.543,2.491-0.307,3.791C48.631,161.745,48.252,162.17,47.804,162.396z"/>
	<path fill="#423D3C" d="M25.796,80.199c-0.091-0.554,0.19-1.059,0.206-1.599c0.478-1.406,0.5-2.895,0.792-4.335
		c0.098-0.482,0.14-0.976,0.208-1.464c0.316-0.149,0.39-0.003,0.418,0.297c0.115,1.25,0.239,2.499,0.383,3.746
		c0.186,1.603,0.141,3.231,0.496,4.966c0.56-0.452,0.646-1.075,0.977-1.527c0.188-0.256,0.381-0.663,0.739-0.555
		c0.346,0.104,0.176,0.525,0.177,0.802c0.014,1.999,0.006,3.999,0.008,5.998c0.001,1.373,0.026,1.387,1.343,0.902
		c0.115-0.042,0.236-0.067,0.482-0.135c-0.715,1.901-0.471,3.857-1.038,5.69c-0.254,0.819-0.758,1.477-1.195,2.171
		c-0.494,0.785-0.518,1.564-0.232,2.373c0.461,1.299,0.973,2.58,1.467,3.88c-0.496,0.122-0.588-0.26-0.822-0.412
		c-0.635-0.432-0.72-1.174-0.987-1.805c-0.299-0.703-0.539-1.432-0.863-2.135c0.096,0.647,0.217,1.306,0.441,1.907
		c0.7,1.884,0.49,3.794,0.364,5.724c-0.116,1.792-0.237,3.59-0.246,5.382c-0.009,1.736-0.262,3.453-0.244,5.185
		c0.004,0.334-0.048,0.668-0.325,0.912c-0.609,0.188-0.617-0.35-0.742-0.665c-0.477-1.194-1.015-2.364-1.44-3.578
		c-2.042-5.389-4.229-10.724-6.175-16.025c-0.058,0.267,0.466,0.705,0.004,1.104c-0.466,0.215-0.422,0.642-0.387,1.03
		c0.105,1.171-0.179,2.298-0.436,3.412c-0.203,0.877-1.076,1.298-1.656,1.913c-0.379,0.401-0.87,0.696-1.311,1.038
		c-0.002-0.131-0.004-0.263-0.005-0.394c-0.269-2.93,0.649-5.684,1.26-8.483c0.295-1.352,0.64-2.694,0.935-4.046
		c0.068-0.313,0.112-0.622,0.487-0.634c0.331-0.011,0.419,0.307,0.484,0.551c0.134,0.508,0.469,0.944,0.467,1.508
		c-0.001,0.322,0.146,0.658,0.57,0.7c0.557,0.082,1.025-0.24,1.542-0.345c0.581-0.119,0.96,0.038,1.154,0.636
		c0.237,0.731,0.372,1.486,0.562,2.227c0.941,3.679,1.796,7.379,2.765,11.051c0.124,0.469,0.153,0.994,0.792,1.483
		c0.138-1.214,0.411-2.282,0.49-3.372c0.08-1.098,0.194-2.189,0.363-3.273c0.226-1.448-0.114-2.693-1.119-3.777
		c-1.2-1.294-2.293-2.681-3.421-4.038c-0.574-0.69-0.636-1.344-0.126-2.086c0.359-0.521,0.657-1.082,0.796-1.711
		c0.019-1.49,0.456-2.914,0.688-4.37C25.196,84.084,25.494,82.141,25.796,80.199z"/>
	<path fill="#251E1C" d="M28.198,116.2c0.465-1.208,0.293-2.507,0.335-3.731c0.119-3.477,0.342-6.95,0.5-10.424
		c0.068-1.486-0.526-2.778-0.826-4.152c-0.13-0.595-0.263-1.147,0.111-1.839c0.629,1.648,1.259,3.296,1.889,4.944
		c-0.001,1.135-0.002,2.271-0.003,3.406c0.433,0.921,0.125,1.904,0.224,2.855c0.141,1.356,0.154,2.726-0.023,4.087
		c-0.048,0.364-0.077,0.729-0.08,1.096c-0.06,7.696-0.318,15.39-0.206,23.087c0.012,0.829,0.047,1.669-0.305,2.456
		c-0.098,3.546,0.411,7.07,0.382,10.614c-0.005,0.567,0.189,1.206-0.616,1.498c-0.308,0.112-0.17,0.538-0.171,0.823
		c-0.01,1.96-0.006,3.92-0.007,5.88c0.018,1.139-0.313,2.227-0.551,3.32c-0.148,0.679-0.286,1.357-0.42,2.04
		c-0.564,2.868-0.659,5.801-1.195,8.662c-0.519,2.774-0.998,5.57-1.876,8.269c-0.084,0.257-0.212,0.487-0.355,0.712
		c-0.007,0.22,0.034,0.456-0.199,0.602c-0.872-0.655-1.126-2.007-0.449-2.749c0.28-0.307,0.311-0.544,0.167-0.879
		c-0.106-0.247-0.209-0.526-0.133-0.776c0.441-1.443,0.501-2.936,0.561-4.421c0.084-2.076,0.447-4.131,0.362-6.221
		c-0.054-1.322,0.287-2.63,0.322-3.96c0.082-3.118,0.597-6.221,0.473-9.341c-0.108-2.717-0.037-5.437-0.25-8.155
		c-0.078-1.003-0.18-2.046-0.022-3.067c0.061-0.396-0.025-0.888,0.52-1.055c0.596,0.724,0.458,1.605,0.543,2.293
		c0.244-3.323,0.473-6.798,0.728-10.27c0.114-1.555,0.33-3.112,0.266-4.675c-0.144-3.492,0.374-6.972,0.159-10.465
		C28.04,116.494,28.086,116.334,28.198,116.2z"/>
	<path fill="#1D1716" d="M26.204,139.793c0.055,0.985-0.518,1.997,0.128,2.957c-0.616,1.981,0.238,3.976-0.08,5.988
		c-0.181,1.144,0.184,2.361,0.16,3.561c-0.043,2.168-0.26,4.319-0.41,6.476c-0.112,1.609-0.035,3.274-0.281,4.857
		c-0.269,1.729,0.31,3.514-0.46,5.198c-0.138,0.302,0.173,0.781,0.124,1.158c-0.231,1.79-0.036,3.632-0.619,5.374
		c-0.207,0.618-0.216,1.166,0.196,1.689c0.153,0.194,0.313,0.496,0.029,0.585c-1.511,0.476-0.443,1.5-0.501,2.272
		c-0.012,0.156,0.204,0.33,0.315,0.495c-0.149,1.478-0.475,2.852-1.737,3.857c-0.561,0.447-1.161,0.926-1.481,1.598
		c-0.355,0.745-0.648,0.415-0.989,0.022c-0.165-0.191-0.214-0.412-0.195-0.65c0.205-2.507-0.443-5.001,0.22-7.554
		c0.421-1.623,0.551-3.377,0.782-5.076c0.553-1.347,0.844-2.734,1.963-3.91c1.2-1.26,1.328-3.144,1.274-4.898
		c-0.052-1.689,0.024-3.366,0.145-5.051c0.066-0.91,0.042-1.841,0.043-2.761c0.003-3.119,0.154-6.235-0.029-9.36
		c-0.149-2.549-0.206-5.115,0.161-7.667c0.072-0.502,0.137-1.061-0.16-1.552c0.056-2.013-0.02-4.016-0.399-6
		c0.164-0.733-0.311-1.52,0.188-2.225c0.467,0.047,0.439,0.434,0.482,0.743c0.406,2.884,0.847,5.762,1.258,8.645
		C26.388,138.976,26.55,139.414,26.204,139.793z"/>
	<path fill="#251E1C" d="M24.801,137.4c0.655,0.736,0.464,1.669,0.345,2.452c-0.244,1.599-0.131,3.187-0.124,4.776
		c0.013,2.938,0.263,5.883,0.11,8.809c-0.07,1.338-0.151,2.746-0.113,4.033c0.066,2.204-0.233,4.39-0.119,6.6
		c0.101,1.959-0.14,4.095-1.972,5.509c-0.291,0.225-0.533,0.507-0.577,0.902c-0.09,0.808-0.5,1.472-0.947,2.12
		c0.359-2.383,0.766-4.76,1.064-7.15c0.453-3.626,1.257-7.209,1.333-10.881c0.003-0.133-0.024-0.275,0.013-0.398
		c0.789-2.586-0.171-4.901-1.244-7.133c-0.467-0.97-0.368-1.952-0.506-2.91c-0.388-2.698-0.583-5.423-0.874-8.332
		c1.266,1.829,2.269,3.546,2.408,5.633c0.013,0.195,0.046,0.399,0.122,0.578c0.083,0.196,0.129,0.507,0.439,0.437
		c0.222-0.051,0.222-0.298,0.24-0.5C24.532,140.429,24.667,138.914,24.801,137.4z"/>
	<path fill="#56504D" d="M19.993,97.004c0.141-0.547-0.369-1.056-0.042-1.791c2.184,5.62,4.313,11.102,6.443,16.583
		c0.34,1.2-0.026,2.31-0.325,3.467c-0.437,1.692-0.62,3.452-1.293,5.083c-0.226,0.549-0.405,1.252-1.285,1.024
		c-0.504-0.577-0.417-1.319-0.519-1.993c-0.584-3.846-1.118-7.7-1.725-11.543c-0.066-0.42-0.209-0.855,0.141-1.231
		c-0.458-2.967-0.918-5.934-1.371-8.902C19.984,97.473,20.001,97.237,19.993,97.004z"/>
	<path fill="#2B2524" d="M25.003,179.803c0.723-3.348,1.533-6.681,2.12-10.052c0.192-1.1,0.109-2.333,0.384-3.389
		c0.319-1.228,0.24-2.467,0.484-3.688c0.274-1.374,0.822-2.7,0.843-4.141c0.008-0.58,0.368-1.155,0.567-1.732
		c0.653,0.833,0.791,1.887,1.135,2.84c0.244,0.677,0.638,1.304,0.75,2.046c0.053,0.351,0.047,0.642-0.07,0.955
		c-0.616,3.356-1.229,6.712-1.849,10.066c-0.178,0.962,0.16,1.912,0.046,2.87c0.132,0.671-0.521,0.735-0.821,1.075
		c-0.605,0.686-0.955,1.694-2.225,1.421c-0.32-0.069-0.449,0.516-0.677,0.79C25.441,179.16,25.411,179.619,25.003,179.803z"/>
	<path fill="#494341" d="M16.405,178.996c-0.2-1.663-0.4-3.327-0.599-4.99c0.973-0.095,1.824,0.352,2.675,0.688
		c0.505,0.199,1.01,0.634,0.445,1.321c-0.182,0.222-0.226,0.582-0.082,0.758c0.769,0.944,0.507,2.1,0.669,3.152
		c0.2,1.304,0.207,2.639,0.279,3.962c0.013,0.242,0.108,0.596-0.262,0.656c-0.342,0.056-0.394-0.3-0.516-0.519
		C18.095,182.373,17.466,180.573,16.405,178.996z"/>
	<path fill="#251E1C" d="M21.389,106.604c0.342,2.419,0.661,4.842,1.033,7.257c0.347,2.252,0.775,4.491,0.993,6.762
		c0.025,0.26,0.131,0.511,0.199,0.767c0.401,0.454,0.391,1.039,0.475,1.584c0.248,1.598,0.458,3.201,0.731,4.796
		c0.082,0.48,0.173,0.989-0.214,1.41c-0.117,0.736,0.222,1.513-0.205,2.22c-0.454-1.563-0.52-3.191-0.788-4.785
		c-0.329-1.956-0.566-3.927-0.87-5.887c-0.502-3.233-1.019-6.464-1.545-9.693c-0.133-0.816-0.314-1.625-0.5-2.431
		c-0.122-0.529-0.176-1.055,0.005-1.57C20.808,106.739,20.905,106.337,21.389,106.604z"/>
	<path fill="#EFA843" d="M29.98,180.032c0.009-0.398,0.019-0.797,0.027-1.195c0.004-0.207,0.03-0.437,0.25-0.493
		c0.217-0.056,0.339,0.165,0.478,0.3c0.176,0.171,0.276,0.381,0.252,0.627c-0.124,1.267,0.242,2.503,0.222,3.768
		c-0.054,3.383,0.425,6.744,0.438,10.129c0.005,1.272,0.316,2.543-0.021,3.817c-0.336-3.236-0.687-6.471-1.004-9.709
		C30.385,184.862,30.192,182.446,29.98,180.032z"/>
	<path fill="#B07F3A" d="M30.459,191.036c0.078,1.635,0.391,3.259-0.494,4.76C30.13,194.209,30.294,192.622,30.459,191.036z"/>
	<path fill="#1E1A19" d="M89.404,161.196c0.032,2.022,0.1,4.068-0.243,6.048c-0.54,3.115,0.358,6.144,0.321,9.228
		c-0.016,1.344-0.09,2.698-0.083,4.047c0.002,0.399-0.037,0.805,0.315,1.169c0.47-0.351,0.515-0.983,0.893-1.382
		c0.11-0.116,0.225-0.277,0.417-0.204c0.213,0.081,0.134,0.264,0.11,0.424c-0.229,1.534-0.49,3.065-0.666,4.605
		c-0.062,0.544,0.081,1.111,0.13,1.668c-0.962,1.867-1.699,3.826-2.399,5.801c-0.43,0.746-0.754,1.536-1.022,2.355
		c-0.118,0.361-0.212,0.886-0.729,0.792c-0.547-0.099-0.717-0.648-0.623-1.099c0.266-1.279,0.127-2.568,0.208-3.849
		c0.215-3.398,0.491-6.792,0.567-10.198c0.296-2.217,0.369-4.45,0.515-6.678c0.11-1.67,0.429-3.311,0.884-4.923
		c0.346-1.31,0.261-2.665,0.375-3.997c0.109-1.273,0.195-2.545,0.423-3.803c-0.006-0.425-0.02-0.853,0.487-1.071
		C89.498,160.49,89.354,160.854,89.404,161.196z"/>
	<path fill="#403937" d="M78.599,154.8c1.262-2.175,1.681-4.727,3.006-6.887c0.227,0.533-0.233,1.034,0.182,1.662
		c0.288-0.887,0.565-1.674,0.79-2.475c0.074-0.261,0.117-0.514,0.327-0.701c0.407-0.363,0.739-1.028,1.385-0.746
		c0.604,0.264,0.107,0.875,0.19,1.298c0.166,0.842-0.135,1.464-0.57,2.108c-0.115,0.171-0.166,0.481-0.093,0.667
		c0.481,1.223-0.124,2.027-0.989,2.753c-0.097,0.082-0.153,0.214-0.227,0.322c-0.705,1.87-1.844,3.457-3.203,4.899
		c-0.876,0.929-1.755,1.856-2.671,2.825c-0.322-0.639,0.301-1.022,0.271-1.526C77.189,157.468,77.9,156.136,78.599,154.8z"/>
	<path fill="#24201F" d="M78.599,154.8c-0.328,1.478-0.995,2.827-1.601,4.199c-0.614-0.148-0.4-0.589-0.311-0.95
		c0.267-1.09,0.431-2.181,0.146-3.329c-0.79,1.404-0.926,3.051-1.633,4.48c-0.351-0.084-0.365-0.619-0.796-0.595
		c-0.002-0.136-0.004-0.272-0.006-0.408c0.534-3.022,1.073-6.044,1.599-9.067c0.673-3.87,1.338-7.741,1.996-11.613
		c0.056-0.327,0.113-0.64,0.458-1.14c-0.188,1.734-0.336,3.227-0.516,4.716c-0.202,1.671-0.413,3.339-0.572,5.017
		c-0.178,1.88-0.022,3.772-0.337,5.645C76.797,153.113,77.892,153.876,78.599,154.8z"/>
	<path fill="#24201F" d="M78.4,160.601c-0.376,0.994-0.187,2.005-0.099,3.016c0.184,2.131,0.348,4.264,0.416,6.414
		c-1.036-2.597-1.312-5.385-2.113-8.034c0.624-0.047,0.673-0.665,1.001-1.005C77.821,160.769,77.894,160.242,78.4,160.601z"/>
	<path fill="#161313" d="M82.405,157.801c-0.001,0.466-0.003,0.932-0.004,1.399c0.067,2.817,0.03,5.642,0.244,8.449
		c0.116,1.524,0.098,3.031-0.007,4.558c-0.279-2.246-0.809-4.496-0.77-6.736c0.044-2.52-0.284-5.077,0.336-7.576
		c0.007-0.03,0.016-0.08,0.033-0.083C82.291,157.798,82.349,157.803,82.405,157.801z"/>
	<path fill="#282322" d="M87.999,168.999c0.16,2-0.718,3.875-0.68,5.874c0.024,1.241-0.229,2.486-0.309,3.732
		c-0.044,0.691-0.12,1.361-0.409,1.995c0.173-4.234,0.345-8.469,0.529-12.972C87.757,168.167,87.44,168.839,87.999,168.999z"/>
	<path fill="#1E1A19" d="M85.047,199.595c0-1.204,0-2.407,0-3.721c0.383,0.291,0.619,0.609,0.986,0.754
		c0.281,0.111,0.374,0.327,0.232,0.641c-0.358,0.792-0.692,1.595-1.036,2.393C85.169,199.64,85.108,199.618,85.047,199.595z"/>
	<path fill="#24201F" d="M76.004,161.602c-0.101,1.146-0.831,2.045-1.103,3.124c-0.085-0.017-0.17-0.035-0.256-0.052
		c0.185-1.625,0.369-3.251,0.554-4.876c0.114,0.692,0.354,1.377,0.055,2.07C75.64,162.005,75.759,161.654,76.004,161.602z"/>
	<path fill="#4C4442" d="M29.813,137.985c-0.003-5.528-0.104-11.058,0.028-16.582c0.076-3.177,0.003-6.361,0.21-9.527
		c0.163-2.496,0.066-4.984,0.153-7.473c0.285,0.032,0.38,0.204,0.395,0.475c0.129,2.345,0.267,4.69,0.401,7.035
		c0.079,1.381,0.289,2.753,0.215,4.146c0.102,0.003,0.203,0.006,0.305,0.009c0.232-3.602,0.463-7.205,0.695-10.807
		c0.072-0.005,0.143-0.011,0.215-0.016c0.237,3.268,0.474,6.535,0.716,9.878c1.446-1.027,2.001-2.587,3.067-3.734
		c0.768,0.502,0.925,1.185,0.598,2.012c-0.32,0.252-0.195,0.609-0.208,0.927c-0.081,2.119,0.14,4.243-0.121,6.361
		c-0.069,0.564,0.315,0.72,0.827,0.713c1.229-0.015,2.458-0.002,3.687,0c-0.204,0.342-0.342,0.753-0.622,1.015
		c-1.422,1.331-1.25,2.927-0.948,4.627c0.73,4.1,1.436,8.206,2.03,12.326c0.24,1.664,0.777,3.282,0.846,4.953
		c0.045,1.075,0.247,2.159,0.046,3.316c-0.891-1.382-1.191-2.948-1.715-4.411c-0.735-2.049-1.496-4.073-2.638-5.932
		c-0.173-0.282-0.157-0.561-0.204-0.852c-0.091-0.566-0.29-1.089-0.776-1.45c-0.755-0.751-0.769-1.796-1.018-2.726
		c-0.413-1.544-0.813-3.092-1.231-4.635c-0.245-0.907-0.383-0.946-1.118-0.338c-0.846,0.7-1.713,1.377-2.499,2.149
		c-0.459,0.451-0.509,0.828-0.094,1.368c0.754,0.981,1.121,2.186,1.737,3.253c0.164,0.283,0.29,0.616,0.018,0.93
		c0,3.258,0,6.517,0,9.775c-0.068,0.008-0.135,0.016-0.203,0.023c-0.477-3.415-0.954-6.829-1.469-10.521
		c-0.528,0.965-0.489,1.781-0.735,2.512C30.258,137.211,30.299,137.728,29.813,137.985z"/>
	<path fill="#2B2220" d="M32.809,134.996c-0.411-1.475-1.178-2.783-1.99-4.055c-0.372-0.583-0.592-0.956,0.033-1.552
		c1.006-0.959,2.091-1.812,3.153-2.7c0.477-0.399,0.678-0.364,0.841,0.29c0.638,2.559,1.329,5.105,2.005,7.654
		c0.033,0.126,0.109,0.241,0.164,0.361c0.754,2.981,1.509,5.962,2.262,8.944c0.511,2.019,1.02,4.039,1.531,6.058
		c-0.271,0.157-0.28-0.121-0.308-0.228c-0.473-1.85-1.645-3.397-2.228-5.204c-0.35-1.082-1.133-1.92-1.87-2.767
		c-0.856-0.762-1.142-1.862-1.609-2.838c-0.366-0.764-0.952-1.453-0.994-2.358C33.577,136,33.312,135.425,32.809,134.996z"/>
	<path fill="#11100F" d="M46.783,157.203c-0.259,0.238-0.377,0.54-0.381,0.886c-0.02,1.554-0.119,3.108-0.163,4.658
		c-0.107,3.734-0.512,7.438-0.781,11.156c-0.08,1.111-0.409,2.207-0.266,3.338c0.028,0.223,0.003,0.475-0.078,0.683
		c-0.102,0.263-0.047,0.689-0.403,0.739c-0.39,0.055-0.576-0.298-0.669-0.623c-0.129-0.453-0.333-0.793-0.849-0.836
		c-0.267-0.864-0.535-1.728-0.802-2.592c-0.661-0.448-0.492-1.126-0.404-1.721c0.232-1.573,0.414-3.154,0.685-4.722
		c0.605-1.298,0.707-2.709,0.903-4.094c0.241-1.697,0.498-3.382,1.422-4.877c0.478-1.273,0.955-2.546,1.508-4.018
		C46.618,156.002,46.701,156.602,46.783,157.203z"/>
	<path fill="#2D2826" d="M42.801,168.203c0.051,1.512-0.309,2.975-0.523,4.456c-0.095,0.66-0.183,1.316,0.113,1.951
		c-0.797,1.251-0.563,2.626-0.335,3.935c0.237,1.359,0.031,2.696,0.181,4.185c-0.477-0.376-0.487-0.803-0.605-1.155
		c-0.153-0.456-0.363-0.855-0.727-1.167c-0.394-0.338-0.855-0.935-1.266-0.8c-0.5,0.164-0.182,0.887-0.23,1.364
		c-0.031,0.303-0.052,0.591-0.287,0.893c-0.481-0.481-0.429-1.13-0.484-1.654c-0.191-1.839-0.405-3.675-0.61-5.513
		c-0.164-1.472,0.621-2.83,0.794-4.272c0.129-1.079,0.468-1.841,1.793-1.651c0.469,0.067,0.712-0.41,0.978-0.753
		c0.505-0.651,0.778-1.461,1.404-2.026C43.37,166.77,43.063,167.485,42.801,168.203z"/>
	<path fill="#2D2524" d="M42.801,168.203c-0.129-0.753,0.205-1.465,0.196-2.208c0.169-0.701,0.37-1.389,0.371-2.128
		c0.001-0.789,0.061-1.566,0.383-2.333c0.263-0.627,0.032-1.366,0.081-2.036c0.191-2.581-0.181-5.134-0.235-7.7
		c0.171-3.6,0.491-7.188,0.764-10.781c0.09-1.185,0.211-2.37,0.277-3.613c0.744,1.021,0.178,2.092,0.185,3.097
		c0.043,6.053-0.005,12.106-0.023,18.16c-0.001,0.203,0.015,0.4,0.198,0.536c-0.302,1.143-0.621,2.282-0.903,3.43
		c-0.347,1.411-0.541,2.849-0.686,4.293C43.356,167.435,43.291,167.91,42.801,168.203z"/>
	<path fill="#2B2524" d="M31.966,166.803c0.629-0.744,0.209-1.575,0.131-2.345c-0.113-1.113-0.132-2.201,0.123-3.308
		c0.683,1.498,0.634,3.15,1.342,4.681c-0.089-1.883-0.177-3.765-0.266-5.648c0.091-0.013,0.182-0.025,0.273-0.038
		c0.31,1.761,0.801,3.486,0.85,5.298c0.169,1.26-0.029,2.514-0.153,3.757c-0.126,1.262-0.05,2.529-0.184,3.777
		c-0.176,1.635-0.109,3.283-0.353,4.91c-0.766,0.252-0.675-0.426-0.742-0.773c-0.206-1.072-0.331-2.161-0.46-3.245
		c-0.223-1.872-0.514-3.736-0.697-5.613C31.782,167.775,31.682,167.265,31.966,166.803z"/>
	<path fill="#C98A37" d="M33.577,177.958c0.116-4.183,0.239-8.365,0.842-12.515c0.339,0.685,0.092,1.421,0.187,2.128
		c0.048,0.355-0.034,0.731,0.176,1.058c-0.003,4.224,0.337,8.433,0.524,12.648c0.134,3.023,0.221,6.047,0.33,9.071
		c-0.071,0.05-0.176,0.427-0.206,0.106c-0.192-2.041-0.294-4.09-0.435-6.135c-0.216-3.127-0.44-6.254-0.676-9.609
		c-0.611,0.863-0.035,1.541-0.106,2.199c-0.075,0.69-0.016,1.395-0.016,2.094c-0.191-0.063-0.382-0.127-0.573-0.19
		C33.36,178.541,33.344,178.257,33.577,177.958z"/>
	<path fill="#A16628" d="M33.577,177.958c0.015,0.285,0.031,0.569,0.046,0.854c-0.008,0.129-0.015,0.258-0.023,0.387
		c-0.098,0.136-0.164,0.286-0.197,0.45c-0.059,0.29-0.21,0.487-0.53,0.483c-0.345-0.004-0.543-0.216-0.646-0.52
		c-0.149-0.443-0.058-0.923-0.193-1.37c-0.036-0.234,0.004-0.45,0.158-0.637c-0.187-2.691-0.394-5.381-0.553-8.074
		c-0.109-1.848-0.151-3.701-0.223-5.551c0.395,0.899,0.215,1.911,0.55,2.822c0.423,3.449,0.84,6.9,1.28,10.347
		C33.281,177.428,33.334,177.744,33.577,177.958z"/>
	<path fill="#4A4341" d="M33.799,136.602c1.033,1.649,1.763,3.45,2.603,5.196c-0.073,1.042-1.012,1.419-1.612,2.042
		c-0.265,0.275-0.359-0.069-0.389-0.313c-0.201-1.673-0.413-3.344-0.6-5.018C33.73,137.877,33.326,137.238,33.799,136.602z"/>
	<path fill="#ECA341" d="M36.615,173.166c-0.287-2.388-0.574-4.776-0.86-7.164c0.035-0.76-0.275-1.5-0.127-2.355
		c0.867,0.615,1.551,1.142,1.422,2.417c-0.216,2.138-0.195,4.3-0.278,6.452C36.763,172.74,36.821,172.987,36.615,173.166z"/>
	<path fill="#282322" d="M97,183.8c0,0.333,0,0.666,0,0.999c0,0.066,0.015,0.137-0.004,0.198c-0.152,0.493,0.357,1.153-0.293,1.485
		c-0.261,0.133-1.466-1.349-1.507-1.749c-0.165-1.633,0.554-3.17,0.418-4.828C97.497,180.771,96.866,182.415,97,183.8z"/>
	<path fill="#433D3B" d="M97.396,171.795c-0.413,2.055,0.03,4.14-0.216,6.197c-0.058,0.485,0.461,0.94,0.019,1.409
		c-0.475-0.756-0.73-1.57-0.597-2.467c0.158-1.066-0.372-1.935-0.809-2.82c-0.234-0.473-0.297-0.879,0.078-1.275
		c0.25-0.264,0.392-0.523,0.213-0.891c-0.102-0.21-0.175-0.489,0.061-0.631c0.223-0.135,0.442,0.075,0.63,0.197
		C96.972,171.638,97.141,171.805,97.396,171.795z"/>
	<path fill="#EBA441" d="M32.192,177.606c0.003,0.197,0.007,0.395,0.01,0.592c0.609,3.09,0.785,6.218,0.793,9.359
		c0.001,0.353,0.099,0.738-0.196,1.042H32.7c0,0-0.098,0-0.098,0c-0.252-2.519-0.507-5.039-0.754-7.559
		c-0.09-0.918-0.161-1.837-0.239-2.756C31.574,177.863,31.671,177.552,32.192,177.606z"/>
	<path fill="#CA8A37" d="M32.799,188.6c-0.08-2.943-0.218-5.882-0.565-8.808c-0.062-0.525-0.024-1.061-0.032-1.593
		c0.3,0.251,0.173,0.598,0.198,0.909c0.025,0.318-0.044,0.694,0.347,0.827c0.509,0.173,0.392-0.396,0.615-0.569
		c0.076-0.059,0.158-0.11,0.238-0.165c-0.13,1.392,0.325,2.76,0.173,4.197c-0.326-0.201-0.048-0.558-0.241-0.747
		c-0.689,1.03,0.701,1.72,0.422,2.76c-0.259-0.109-0.214-0.62-0.547-0.508c-0.333,0.113-0.194,0.455-0.199,0.699
		c-0.017,0.963,0,1.926-0.017,2.888C33.183,188.863,33.101,189.176,32.799,188.6z"/>
	<path fill="#2C2827" d="M36.2,47.803c0.701,0.021,1.34-0.271,2.011-0.401c1.309-0.254,2.338,0.398,3.387,1.001
		c0.541,0.871,0.591,1.888,0.857,2.841c0.102,0.364,0.111,0.895,0.567,0.979c0.367,0.068,0.269-0.563,0.748-0.692
		c0,1.297,0.094,2.577-0.027,3.836c-0.114,1.183-0.031,2.381-0.191,3.534c-0.234,1.687,0.041,3.386-0.295,5.056
		c-0.084,0.418-0.081,0.864-0.049,1.293c0.127,1.733-0.365,3.458-0.164,5.166c0.132,1.119,0.269,2.172-0.014,3.289
		c-0.144,0.568-0.209,1.286,0.563,1.637c0.163,0.074,0.211,0.289,0.103,0.435c-0.489,0.659-0.318,1.265,0.026,1.931
		c0.305,0.591-0.211,1.203-0.099,1.848c0.046,0.262-0.411,0.233-0.67,0.24c-0.365,0.01-0.649-0.087-0.738-0.504
		c-0.206-0.966-0.455-1.904-0.436-2.925c0.061-3.263,0.029-6.528,0.013-9.792c-0.002-0.35,0.223-0.846-0.389-0.975
		c-0.281-0.256-0.278-0.597-0.246-0.927c0.342-3.52,0.106-7.111,1.016-9.502c-0.429,2.251-1.485,5.443-2.096,8.74
		c-0.297,1.602-0.611,3.202-0.917,4.802c-0.078,0.408-0.074,0.887-0.569,1.09c-0.53-0.469-1.06-0.938-1.589-1.407
		c-0.413-1.94-0.889-3.869-1.223-5.822c-0.395-2.302-0.198-4.632-0.064-6.946c0.034-0.593,0.078-1.19,0.081-1.784
		C35.803,51.823,35.937,49.809,36.2,47.803z"/>
	<path fill="#201918" d="M47.21,107.803c-0.59,2.377-1.07,4.789-1.802,7.122c-0.708,2.255-0.745,4.54-0.544,6.811
		c0.137,1.552,0.201,3.117,0.27,4.661c0.163,3.649,0.39,7.298,0.523,10.949c0.062,1.702-0.074,3.423,0.338,5.111
		c-0.094,0.011-0.188,0.021-0.282,0.032c-0.102-1.044-0.222-2.087-0.301-3.132c-0.151-1.982-0.1-4-0.471-5.938
		c-0.295-1.538-1.08-2.985-1.673-4.462c-0.432-1.076-0.935-2.124-1.353-3.205c-0.258-0.666-0.185-1.4-0.063-2.072
		c0.114-0.631,0.148-1.249,0.146-1.879c0.342-2.261,0.942-4.467,1.473-6.685c0.457-1.912,0.707-3.823,0.766-5.794
		c0.071-2.379-0.428-4.728-0.232-7.102c0.096-1.164,0.206-2.326,0.31-3.489c0.096-0.007,0.191-0.014,0.287-0.021
		c0.239,0.977,0.491,1.951,0.715,2.932c0.391,1.716,0.947,3.378,1.598,5.011C47.058,107.018,47.113,107.419,47.21,107.803z"/>
	<path fill="#1E1917" d="M38.59,69.805c0.482-1.751,0.802-3.539,1.067-5.33c0.344-2.329,1.161-4.538,1.632-6.832
		c0.213-1.035,0.485-2.059,0.708-3.092c0.117-0.54,0.442-0.915,0.92-1.257c-1.334,4.021-1.217,8.189-1.514,12.308
		c-0.134,4.135-0.504,8.255-0.763,12.382c-0.093,1.485-0.173,2.976-0.242,4.465c-0.016,0.342,0.08,0.708-0.309,1.018
		c-0.24-4.017-0.481-8.034-0.721-12.05c-0.041-0.006-0.082-0.011-0.124-0.017c-0.296,1.335-0.593,2.671-0.889,4.006
		C38.398,73.53,38.737,71.68,38.59,69.805z"/>
	<path fill="#1A1514" d="M51.799,124.998c-0.416-0.721-0.342-1.571-0.347-2.31c-0.022-2.825-0.386-5.625-0.493-8.443
		c-0.07-1.834,0.361-3.521,0.808-5.238c0.071-0.272-0.005-0.704,0.398-0.692c0.377,0.012,0.152,0.435,0.26,0.65
		c0.043,0.086,0.115,0.158,0.174,0.236c0.502,4.012-0.403,7.956-0.568,11.935C51.977,122.426,51.68,123.7,51.799,124.998z"/>
	<path fill="#1F1918" d="M36.811,113.401c-0.022-0.723-0.231-1.391-0.599-2.012c-0.271-2.196-1.269-4.166-1.939-6.238
		c-0.122-0.376-0.27-0.746-0.36-1.13c-0.075-0.324-0.654-0.778,0-0.958c0.491-0.136,1.226-0.37,1.499,0.485
		c0.576,1.798,1.688,3.615,1.617,5.386c-0.109,2.743,0.915,5.194,1.165,7.809c0.014,0.151-0.016,0.307-0.044,0.752
		C37.644,115.948,37.227,114.674,36.811,113.401z"/>
	<path fill="#332E2D" d="M58.395,110.598c-0.533-0.638-0.519-1.472-0.789-2.204c0.354,0.28,0.71,0.558,1.062,0.841
		c0.273,0.22,0.697,0.407,0.641,0.787C59.244,110.462,58.779,110.524,58.395,110.598z"/>
	<path fill="#4C4644" d="M24.198,90.395c0.502,0.78-0.201,1.29-0.533,1.752c-0.612,0.85-0.372,1.377,0.229,2.081
		c1.183,1.386,2.338,2.797,3.555,4.155c0.931,1.039,1.085,2.31,0.911,3.652c-0.264,2.03-0.519,4.062-0.751,6.096
		c-0.043,0.379-0.034,0.826-0.443,0.907c-0.448,0.089-0.595-0.395-0.683-0.718c-0.515-1.885-0.998-3.779-1.477-5.673
		c-0.714-2.826-1.446-5.648-2.101-8.488c-0.19-0.824-0.536-0.789-1.188-0.591c-0.4,0.121-0.873,0.734-1.318,0.032
		c0.067-0.068,0.134-0.136,0.202-0.204C21.816,92.415,22.883,91.256,24.198,90.395z"/>
	<path fill="#484240" d="M24.606,129.18c-0.082-2.301-0.644-4.537-0.915-6.812c-0.039-0.324-0.052-0.651-0.078-0.977
		c0.548-0.164,0.747-0.632,0.925-1.098c0.885-2.326,1.021-4.845,1.851-7.185c0.159-0.447-0.434-0.878,0.005-1.311
		c0.601,1.468,1.202,2.936,1.803,4.403c0.408,1.641,0.256,3.317,0.142,4.958c-0.085,1.226-0.135,2.45-0.132,3.673
		c0.009,4.41-0.443,8.789-0.764,13.178c-0.106,1.449-0.245,2.905-0.255,4.364c-0.002,0.348,0.124,0.732-0.233,1.107
		c-0.524-1.208-0.227-2.539-0.752-3.687c-0.433-2.93-0.835-5.866-1.324-8.787C24.778,130.398,25.039,129.732,24.606,129.18z"/>
</g>
</svg>
