<?xml version="1.0" encoding="utf-8"?>
<!-- Generator: Adobe Illustrator 20.1.0, SVG Export Plug-In . SVG Version: 6.00 Build 0)  -->
<svg version="1.1" id="Layer_1" xmlns="http://www.w3.org/2000/svg" xmlns:xlink="http://www.w3.org/1999/xlink" x="0px" y="0px"
	 width="80.692px" height="91.683px" viewBox="0 0 80.692 91.683" enable-background="new 0 0 80.692 91.683" xml:space="preserve">
<g>
	<path fill="#5C5C5C" d="M40.522,91.211c-0.127-0.015-0.276,0.008-0.378-0.05c-3.164-1.824-6.324-3.655-9.483-5.488
		c-4.355-2.527-8.71-5.055-13.064-7.585c-3.13-1.819-6.256-3.643-9.387-5.46c-2.326-1.35-4.649-2.705-6.989-4.03
		c-0.389-0.221-0.513-0.472-0.507-0.9c0.068-4.761,0.125-9.522,0.175-14.283c0.054-5.128,0.096-10.257,0.149-15.385
		c0.052-5.028,0.115-10.057,0.155-15.085c0.003-0.355,0.121-0.539,0.413-0.7c3.31-1.834,6.617-3.673,9.921-5.518
		c5.637-3.146,11.271-6.296,16.905-9.446c4.056-2.267,8.111-4.538,12.17-6.8c0.107-0.06,0.259-0.041,0.389-0.059
		c-0.031,0.174-0.093,0.349-0.087,0.522c0.021,0.684,0.062,1.368,0.096,2.052c-0.243,0.105-0.497,0.19-0.727,0.319
		c-2.927,1.641-5.849,3.29-8.775,4.932c-2.2,1.235-4.404,2.464-6.606,3.696c-2.045,1.143-4.089,2.286-6.136,3.427
		c-2.061,1.149-4.124,2.293-6.184,3.442c-2.813,1.57-5.621,3.148-8.439,4.709c-0.32,0.177-0.439,0.384-0.442,0.748
		c-0.019,2.446-0.064,4.891-0.091,7.336C3.563,35.051,3.534,38.496,3.5,41.942c-0.033,3.387-0.066,6.775-0.1,10.162
		c-0.033,3.257-0.071,6.513-0.098,9.77c-0.012,1.45,0.013,2.9-0.012,4.349c-0.007,0.385,0.115,0.611,0.441,0.796
		c1.385,0.789,2.762,1.592,4.139,2.395c1.865,1.087,3.726,2.181,5.593,3.265c1.867,1.084,3.742,2.154,5.609,3.238
		c2.083,1.208,4.16,2.426,6.241,3.637c1.981,1.152,3.963,2.301,5.946,3.451c1.566,0.908,3.135,1.81,4.698,2.722
		c1.517,0.885,3.029,1.78,4.543,2.671c-0.033,0.688-0.08,1.376-0.092,2.065C40.404,90.711,40.482,90.961,40.522,91.211z"/>
	<path fill="#505050" d="M40.522,91.211c-0.041-0.25-0.119-0.5-0.114-0.749c0.012-0.689,0.059-1.376,0.092-2.065
		c0.049-0.01,0.104-0.008,0.145-0.032c2.708-1.582,5.411-3.174,8.123-4.748c2.842-1.65,5.695-3.282,8.54-4.926
		c2.571-1.486,5.138-2.977,7.706-4.468c2.969-1.725,5.935-3.454,8.905-5.177c1.189-0.69,2.386-1.366,3.58-2.049
		c0.718,0.493,1.435,0.987,2.153,1.48c-1.153,0.686-2.301,1.38-3.46,2.056c-2.893,1.69-5.79,3.373-8.688,5.056
		c-4.086,2.373-8.174,4.742-12.26,7.115c-4.143,2.407-8.284,4.819-12.428,7.223C42.059,90.368,41.287,90.784,40.522,91.211z"/>
	<path fill="#4A4A4A" d="M79.652,68.478c-0.718-0.493-1.435-0.987-2.153-1.48c0.033-14.166,0.066-28.332,0.099-42.498
		c0.538-0.303,1.082-0.598,1.612-0.914c0.158-0.094,0.281-0.248,0.421-0.375c0.054,0.157,0.154,0.314,0.154,0.471
		c0.006,5.34,0.001,10.68,0,16.02c-0.001,5.537,0.003,11.074,0.002,16.61c-0.001,3.907-0.005,7.813-0.015,11.72
		C79.771,68.182,79.694,68.33,79.652,68.478z"/>
	<path fill="#525252" d="M79.631,23.212c-0.139,0.127-0.262,0.28-0.421,0.375c-0.531,0.316-1.074,0.611-1.612,0.913
		c-2.145-1.256-4.292-2.507-6.434-3.769c-1.788-1.053-3.567-2.12-5.353-3.176c-2.372-1.403-4.745-2.803-7.119-4.202
		c-2.088-1.231-4.177-2.459-6.265-3.69c-2.857-1.685-5.71-3.377-8.571-5.056c-0.942-0.553-1.903-1.075-2.855-1.611
		c-0.034-0.684-0.076-1.368-0.096-2.052c-0.005-0.173,0.057-0.348,0.087-0.522c1.718,1.001,3.439,1.996,5.152,3.004
		c4.072,2.397,8.141,4.799,12.211,7.2c4.257,2.512,8.512,5.026,12.769,7.538c2.784,1.643,5.569,3.284,8.353,4.927
		C79.533,23.124,79.58,23.171,79.631,23.212z"/>
	<path fill="#636363" d="M41.001,2.996c0.952,0.536,1.913,1.058,2.855,1.611c2.861,1.679,5.714,3.371,8.571,5.056
		c2.088,1.231,4.177,2.459,6.265,3.69c2.374,1.4,4.747,2.799,7.119,4.202c1.786,1.056,3.565,2.123,5.353,3.176
		c2.142,1.261,4.289,2.513,6.434,3.769c-0.033,14.166-0.066,28.332-0.099,42.498c-1.193,0.682-2.39,1.359-3.58,2.049
		c-2.97,1.723-5.936,3.452-8.905,5.177c-2.567,1.491-5.135,2.982-7.706,4.468c-2.845,1.645-5.698,3.276-8.54,4.926
		c-2.712,1.575-5.415,3.166-8.123,4.748c-0.041,0.024-0.096,0.022-0.145,0.032c-1.514-0.891-3.026-1.786-4.543-2.671
		c-1.563-0.912-3.132-1.814-4.698-2.722c-1.982-1.149-3.965-2.298-5.946-3.451c-2.081-1.211-4.158-2.429-6.241-3.637
		c-1.867-1.083-3.742-2.154-5.609-3.238c-1.867-1.084-3.728-2.178-5.593-3.265c-1.377-0.802-2.754-1.606-4.139-2.395
		c-0.326-0.186-0.448-0.411-0.441-0.796c0.026-1.449,0-2.9,0.012-4.349c0.027-3.257,0.065-6.513,0.098-9.77
		c0.034-3.387,0.067-6.775,0.1-10.162c0.034-3.445,0.063-6.891,0.101-10.336c0.027-2.446,0.072-4.891,0.091-7.336
		c0.003-0.364,0.122-0.571,0.442-0.748c2.818-1.56,5.626-3.139,8.439-4.709c2.06-1.15,4.123-2.294,6.184-3.442
		c2.046-1.141,4.091-2.284,6.136-3.427c2.203-1.231,4.406-2.46,6.606-3.696c2.926-1.643,5.848-3.292,8.775-4.932
		C40.504,3.186,40.758,3.102,41.001,2.996z M7.608,64.095c0.096,0.134,0.163,0.314,0.292,0.393c0.678,0.419,1.371,0.813,2.06,1.214
		c2.556,1.487,5.112,2.973,7.668,4.459c2.384,1.386,4.769,2.771,7.152,4.158c2.08,1.211,4.159,2.425,6.239,3.635
		c2.383,1.387,4.764,2.777,7.154,4.154c0.729,0.42,1.482,0.801,2.223,1.2c0.124,0.019,0.266,0.087,0.367,0.047
		c0.213-0.085,0.403-0.228,0.605-0.343c1.939-1.115,3.881-2.226,5.818-3.346c1.911-1.104,3.817-2.217,5.727-3.325
		c1.819-1.055,3.642-2.106,5.46-3.164c1.39-0.809,2.77-1.633,4.163-2.437c1.695-0.977,3.402-1.936,5.099-2.91
		c1.321-0.758,2.641-1.518,3.952-2.293c0.551-0.326,1.078-0.693,1.616-1.041c0.066-0.18,0.189-0.36,0.189-0.539
		C73.4,51.745,73.4,39.53,73.396,27.316c0-0.173-0.063-0.345-0.096-0.518c-1.924-1.145-3.843-2.297-5.772-3.433
		c-2.962-1.743-5.933-3.468-8.895-5.21c-2.718-1.599-5.429-3.209-8.144-4.814c-2.542-1.503-5.082-3.008-7.627-4.505
		c-0.612-0.36-1.241-0.693-1.863-1.038c-0.034,0.033-0.068,0.066-0.102,0.098c0,0,0.001-0.003,0.001-0.003
		c-0.172,0.055-0.358,0.083-0.512,0.168c-1.897,1.054-3.79,2.113-5.681,3.176c-2.97,1.668-5.935,3.344-8.907,5.008
		c-2.145,1.201-4.301,2.382-6.446,3.583c-3.219,1.802-6.435,3.608-9.645,5.424c-0.554,0.314-1.077,0.684-1.614,1.028
		c-0.062,0.505-0.171,1.008-0.177,1.514C7.867,31.44,7.84,35.086,7.806,38.732c-0.034,3.73-0.067,7.459-0.102,11.189
		c-0.032,3.475-0.069,6.95-0.097,10.425C7.598,61.596,7.608,62.846,7.608,64.095z"/>
	<path fill="#545454" d="M73.299,26.798c0.033,0.173,0.096,0.345,0.096,0.518C73.4,39.53,73.4,51.745,73.391,63.959
		c0,0.18-0.123,0.36-0.189,0.539c-0.173-0.015-0.352-0.065-0.519-0.038c-0.597,0.097-0.913-0.095-0.997-0.639
		c-0.374,0.031-0.747,0.062-1.13,0.094c0-0.207,0-0.438,0-0.764c-0.251,0.239-0.43,0.411-0.656,0.626c0-0.42,0-0.699,0-0.979
		c0.03-0.423,0.087-0.846,0.087-1.269c0.009-10.751,0.013-21.502,0.013-32.253c0-0.192-0.066-0.384-0.102-0.576
		c0.257-0.349,0.542-0.681,0.763-1.051c0.351-0.587,0.86,0.307,1.222-0.191c-0.016-0.064-0.082-0.171-0.056-0.248
		c0.048-0.147,0.123-0.307,0.237-0.402c0.067-0.056,0.277-0.047,0.34,0.016C72.725,27.138,73.007,26.961,73.299,26.798z"/>
	<path fill="#4E4E4E" d="M73.299,26.798c-0.292,0.163-0.574,0.34-0.894,0.026c-0.064-0.063-0.274-0.072-0.34-0.016
		c-0.113,0.095-0.188,0.255-0.237,0.402c-0.025,0.077,0.04,0.184,0.056,0.248c-0.362,0.498-0.871-0.396-1.222,0.191
		c-0.222,0.37-0.507,0.702-0.763,1.051c-0.877-0.503-1.758-0.999-2.63-1.511c-3.765-2.211-7.528-4.426-11.291-6.639
		c-2.332-1.372-4.664-2.744-6.996-4.116c-1.474-0.867-2.944-1.741-4.422-2.601c-1.247-0.726-2.502-1.437-3.754-2.155
		c0.031-1.261,0.062-2.523,0.092-3.784c0,0-0.001,0.003-0.001,0.003c0.034-0.033,0.068-0.066,0.102-0.098
		c0.621,0.345,1.25,0.678,1.863,1.038c2.545,1.497,5.085,3.002,7.627,4.505c2.715,1.605,5.426,3.216,8.144,4.814
		c2.962,1.742,5.933,3.468,8.895,5.21C69.456,24.501,71.376,25.653,73.299,26.798z"/>
	<path fill="#3F3F3F" d="M40.898,7.894c-0.031,1.261-0.062,2.523-0.092,3.784c-0.392,0.216-0.784,0.43-1.175,0.647
		c-1.64,0.908-3.282,1.812-4.918,2.728c-2.331,1.306-4.654,2.627-6.986,3.933c-2.591,1.451-5.188,2.891-7.78,4.341
		c-2.435,1.363-4.869,2.728-7.297,4.102c-0.53,0.3-1.034,0.645-1.55,0.969c-0.207-0.153-0.41-0.312-0.62-0.459
		c-0.795-0.555-1.592-1.106-2.389-1.658c0.537-0.344,1.059-0.714,1.614-1.028c3.211-1.816,6.427-3.622,9.645-5.424
		c2.145-1.201,4.301-2.382,6.446-3.583c2.972-1.664,5.938-3.34,8.907-5.008c1.892-1.063,3.785-2.122,5.681-3.176
		C40.54,7.976,40.726,7.948,40.898,7.894z"/>
	<path fill="#4E4E4E" d="M69.9,62.799c0,0.28,0,0.559,0,0.979c0.225-0.215,0.405-0.387,0.656-0.626c0,0.326,0,0.557,0,0.764
		c0.383-0.032,0.756-0.063,1.13-0.094c0.084,0.544,0.399,0.736,0.997,0.639c0.166-0.027,0.345,0.023,0.519,0.038
		c-0.538,0.348-1.065,0.715-1.616,1.041c-1.311,0.775-2.631,1.536-3.952,2.293c-1.698,0.974-3.404,1.932-5.099,2.91
		c-1.393,0.803-2.773,1.628-4.163,2.437c-1.818,1.058-3.64,2.108-5.46,3.164c-1.909,1.107-3.816,2.221-5.727,3.325
		c-1.937,1.119-3.878,2.23-5.818,3.346c-0.201,0.116-0.391,0.258-0.605,0.343c-0.1,0.04-0.243-0.028-0.366-0.047
		c0.032-0.987,0.059-1.974,0.1-2.96c0.009-0.216,0.069-0.43,0.106-0.646c1.754-1.014,3.507-2.027,5.261-3.041
		c2.331-1.347,4.662-2.692,6.992-4.041c2.055-1.19,4.107-2.387,6.163-3.576c2.588-1.495,5.179-2.987,7.771-4.476
		C67.824,63.976,68.863,63.389,69.9,62.799z"/>
	<path fill="#353535" d="M8.092,26.28c0.796,0.552,1.594,1.103,2.389,1.658c0.211,0.147,0.414,0.306,0.62,0.459
		c-0.032,3.499-0.065,6.998-0.097,10.497c-0.035,3.852-0.07,7.705-0.101,11.557c-0.033,4.046-0.061,8.092-0.092,12.137
		c-0.126,0.025-0.27,0.021-0.376,0.081c-0.477,0.272-0.93,0.591-1.418,0.839c-0.452,0.23-0.938,0.393-1.409,0.585
		c-0.001-1.25-0.011-2.5,0-3.749c0.028-3.475,0.065-6.95,0.097-10.425c0.035-3.73,0.067-7.459,0.102-11.189
		c0.033-3.646,0.061-7.292,0.108-10.938C7.921,27.289,8.03,26.785,8.092,26.28z"/>
	<path fill="#3F3F3F" d="M7.608,64.095c0.471-0.192,0.957-0.355,1.409-0.585c0.489-0.249,0.941-0.567,1.418-0.839
		c0.106-0.061,0.25-0.056,0.376-0.081c0.122,0.051,0.251,0.089,0.365,0.155c1.781,1.036,3.558,2.078,5.339,3.113
		c2.514,1.461,5.033,2.915,7.546,4.379c2.096,1.221,4.185,2.455,6.281,3.676c2.9,1.689,5.802,3.377,8.711,5.051
		c0.494,0.284,1.032,0.495,1.549,0.74c-0.037,0.215-0.097,0.429-0.106,0.646c-0.041,0.986-0.068,1.973-0.1,2.96
		c-0.742-0.399-1.494-0.78-2.224-1.2c-2.389-1.377-4.77-2.767-7.154-4.154c-2.08-1.211-4.159-2.424-6.239-3.635
		c-2.384-1.387-4.768-2.772-7.152-4.158c-2.556-1.486-5.112-2.972-7.668-4.459c-0.689-0.401-1.382-0.796-2.06-1.214
		C7.771,64.409,7.704,64.229,7.608,64.095z"/>
	<path fill="#3F3F3F" d="M40.999,7.799c-0.034,0.033-0.068,0.066-0.102,0.098C40.931,7.864,40.965,7.831,40.999,7.799z"/>
	<path fill="#131313" d="M40.603,79.704c-0.517-0.245-1.054-0.455-1.549-0.74c-2.909-1.674-5.811-3.362-8.711-5.051
		c-2.096-1.221-4.185-2.455-6.281-3.676c-2.513-1.463-5.032-2.917-7.546-4.379c-1.781-1.035-3.558-2.077-5.339-3.113
		c-0.113-0.066-0.243-0.104-0.365-0.155c0.031-4.046,0.059-8.092,0.092-12.137c0.031-3.852,0.066-7.705,0.101-11.557
		c0.031-3.499,0.064-6.998,0.097-10.497c0.516-0.324,1.02-0.669,1.55-0.969c2.428-1.375,4.862-2.74,7.297-4.102
		c2.591-1.45,5.189-2.889,7.78-4.341c2.331-1.306,4.654-2.627,6.986-3.933c1.635-0.916,3.278-1.819,4.918-2.728
		c0.391-0.217,0.783-0.431,1.175-0.647c1.252,0.718,2.507,1.429,3.754,2.155c1.478,0.86,2.948,1.734,4.422,2.601
		c2.332,1.372,4.664,2.744,6.996,4.116c3.763,2.214,7.526,4.429,11.291,6.639c0.872,0.512,1.753,1.008,2.63,1.511
		c0.035,0.192,0.102,0.384,0.102,0.576c0,10.751-0.004,21.502-0.013,32.253c0,0.423-0.057,0.846-0.087,1.269
		c-1.037,0.59-2.077,1.176-3.111,1.771c-2.592,1.49-5.182,2.981-7.771,4.476c-2.056,1.188-4.108,2.385-6.163,3.576
		c-2.33,1.349-4.661,2.694-6.992,4.041C44.11,77.676,42.356,78.69,40.603,79.704z"/>
</g>
</svg>
