<?xml version="1.0" encoding="utf-8"?>
<!-- Generator: Adobe Illustrator 20.1.0, SVG Export Plug-In . SVG Version: 6.00 Build 0)  -->
<svg version="1.1" id="Layer_1" xmlns="http://www.w3.org/2000/svg" xmlns:xlink="http://www.w3.org/1999/xlink" x="0px" y="0px"
	 width="80.7px" height="91.7px" viewBox="0 0 80.7 91.7" enable-background="new 0 0 80.7 91.7" xml:space="preserve">
<g>
	<path fill="#AE6002" d="M40.5,91.377c-0.964-0.542-1.934-1.074-2.891-1.628c-6.691-3.877-13.38-7.757-20.068-11.641
		c-5.205-3.023-10.407-6.051-15.609-9.079c-0.284-0.165-0.558-0.345-0.837-0.519c0.103-0.151,0.173-0.356,0.315-0.445
		c0.652-0.406,1.325-0.78,1.99-1.166c0.063,0.018,0.133,0.025,0.188,0.057c2.107,1.231,4.211,2.469,6.32,3.697
		c3.256,1.895,6.517,3.783,9.775,5.674c1.91,1.109,3.819,2.22,5.729,3.329c1.982,1.151,3.964,2.301,5.946,3.45
		c1.566,0.908,3.135,1.81,4.698,2.722c1.517,0.885,3.028,1.781,4.542,2.671C40.567,89.46,40.534,90.418,40.5,91.377z"/>
	<path fill="#B76502" d="M3.4,66.9c-0.665,0.386-1.338,0.76-1.99,1.166c-0.142,0.089-0.212,0.293-0.315,0.445
		c-0.439-0.095-0.264-0.46-0.263-0.695c0.01-2.347,0.049-4.694,0.073-7.041c0.042-4.294,0.075-8.589,0.12-12.883
		c0.056-5.361,0.117-10.722,0.18-16.083c0.036-3.046,0.078-6.091,0.118-9.137c0.406,0.183,0.811,0.369,1.22,0.548
		c0.451,0.198,0.905,0.388,1.357,0.582c-0.033,0.194-0.094,0.387-0.096,0.581C3.765,27.254,3.731,30.127,3.701,33
		C3.665,36.427,3.634,39.855,3.6,43.283c-0.033,3.345-0.066,6.689-0.1,10.034c-0.033,3.311-0.07,6.622-0.098,9.934
		C3.391,64.467,3.4,65.683,3.4,66.9z"/>
	<path fill="#9C5705" d="M40.5,91.377c0.033-0.959,0.067-1.917,0.1-2.876c0.033-0.005,0.071-0.001,0.098-0.017
		c2.295-1.335,4.588-2.672,6.882-4.007c1.908-1.11,3.815-2.221,5.724-3.328c2.053-1.19,4.11-2.374,6.163-3.563
		c2.166-1.254,4.33-2.512,6.495-3.767c2.196-1.274,4.392-2.549,6.59-3.819c1.68-0.97,3.364-1.933,5.046-2.899
		c0.295,0.176,0.588,0.355,0.886,0.527c0.453,0.261,0.909,0.516,1.364,0.773c-0.098,0.109-0.176,0.253-0.296,0.324
		c-3.063,1.793-6.129,3.581-9.198,5.365c-5.331,3.099-10.664,6.195-15.996,9.293c-3.798,2.207-7.593,4.417-11.393,6.62
		C42.152,90.473,41.323,90.919,40.5,91.377z"/>
	<path fill="#AE6002" d="M3.9,23.801c-0.453-0.194-0.907-0.384-1.357-0.582c-0.408-0.179-0.813-0.365-1.22-0.548
		c0.658-0.404,1.303-0.83,1.976-1.207c3.382-1.898,6.772-3.783,10.159-5.672c4.386-2.446,8.774-4.887,13.158-7.337
		c3.939-2.201,7.871-4.416,11.811-6.616c0.847-0.473,1.715-0.908,2.573-1.36c0.035,0.872,0.069,1.745,0.104,2.617
		c-0.198,0.083-0.406,0.148-0.593,0.253c-2.752,1.536-5.501,3.077-8.25,4.618c-1.649,0.924-3.296,1.853-4.946,2.775
		c-1.793,1.002-3.59,1.999-5.384,2.999c-2.276,1.269-4.552,2.539-6.828,3.808c-1.493,0.833-2.988,1.664-4.481,2.497
		C8.381,21.297,6.141,22.549,3.9,23.801z"/>
	<path fill="#914E01" d="M79.849,68.4c-0.455-0.258-0.911-0.513-1.364-0.773c-0.298-0.171-0.591-0.351-0.886-0.527
		c0.033-14.165,0.065-28.331,0.098-42.496c0.725-0.368,1.45-0.735,2.175-1.103c0.006,2.678,0.016,5.357,0.017,8.035
		c0.001,5.007-0.004,10.014-0.007,15.021c-0.003,5.171-0.003,10.342-0.008,15.513C79.871,64.18,79.857,66.29,79.849,68.4z"/>
	<path fill="#9C5502" d="M79.872,23.501c-0.725,0.368-1.45,0.735-2.175,1.103c-2.043-1.205-4.085-2.413-6.13-3.616
		c-3.476-2.043-6.956-4.079-10.429-6.126c-3.058-1.803-6.11-3.617-9.165-5.426c-2.698-1.597-5.394-3.199-8.097-4.786
		c-0.913-0.536-1.848-1.037-2.773-1.553c-0.035-0.872-0.069-1.745-0.104-2.617c1.335,0.771,2.675,1.535,4.004,2.316
		c3.36,1.975,6.717,3.955,10.073,5.937c3.843,2.27,7.682,4.549,11.525,6.818c4.314,2.547,8.633,5.087,12.946,7.636
		C79.674,23.26,79.765,23.394,79.872,23.501z"/>
	<path fill="#C06A02" d="M41.103,3.096c0.925,0.517,1.86,1.017,2.773,1.553c2.704,1.588,5.399,3.189,8.097,4.786
		c3.055,1.808,6.106,3.623,9.165,5.426c3.473,2.047,6.953,4.083,10.429,6.126c2.045,1.202,4.087,2.41,6.13,3.616
		c-0.033,14.165-0.065,28.331-0.098,42.496c-1.682,0.966-3.367,1.929-5.046,2.899c-2.199,1.27-4.394,2.545-6.59,3.819
		c-2.165,1.256-4.329,2.513-6.495,3.767c-2.054,1.189-4.11,2.373-6.163,3.563c-1.91,1.107-3.817,2.218-5.724,3.328
		c-2.294,1.335-4.588,2.672-6.882,4.007c-0.027,0.016-0.065,0.012-0.098,0.017c-1.514-0.891-3.025-1.786-4.542-2.671
		c-1.563-0.912-3.133-1.814-4.698-2.722c-1.982-1.149-3.964-2.3-5.946-3.45c-1.91-1.109-3.819-2.22-5.729-3.329
		c-3.258-1.892-6.519-3.779-9.775-5.674c-2.11-1.228-4.213-2.466-6.32-3.697C3.534,66.924,3.464,66.918,3.4,66.9
		c0-1.216-0.009-2.433,0.001-3.649c0.028-3.311,0.065-6.623,0.098-9.934c0.033-3.345,0.067-6.689,0.1-10.034
		C3.634,39.855,3.665,36.427,3.701,33c0.03-2.873,0.064-5.745,0.103-8.618c0.003-0.194,0.063-0.387,0.096-0.581
		c2.241-1.252,4.481-2.504,6.722-3.755c1.493-0.833,2.987-1.664,4.481-2.497c2.276-1.269,4.551-2.539,6.828-3.808
		c1.794-1,3.591-1.997,5.384-2.999c1.65-0.922,3.297-1.851,4.946-2.775c2.749-1.541,5.498-3.082,8.25-4.618
		C40.697,3.245,40.905,3.179,41.103,3.096z M40.596,83.502c0.037,0,0.073-0.001,0.11-0.001c0.768-0.417,1.547-0.816,2.303-1.253
		c3.164-1.825,6.322-3.662,9.482-5.494c2.083-1.207,4.166-2.414,6.25-3.62c1.739-1.006,3.48-2.01,5.219-3.016
		c2.041-1.18,4.082-2.361,6.121-3.544c1.074-0.623,2.144-1.251,3.216-1.877c0.067-0.221,0.193-0.443,0.193-0.664
		c0.01-12.169,0.005-24.338,0.022-36.507c0.001-0.56-0.189-0.836-0.713-0.923c-0.059-0.058-0.109-0.13-0.178-0.17
		c-1.471-0.866-2.948-1.724-4.418-2.592c-2.301-1.359-4.596-2.726-6.897-4.085c-2.2-1.3-4.404-2.595-6.605-3.893
		c-2.428-1.432-4.854-2.867-7.282-4.299c-1.471-0.868-2.941-1.736-4.417-2.595c-0.629-0.366-1.27-0.71-1.905-1.065
		c-0.034,0.032-0.068,0.065-0.102,0.097l0.001-0.004c-0.171,0.055-0.357,0.084-0.511,0.169c-2.831,1.576-5.66,3.157-8.487,4.741
		c-3.594,2.014-7.186,4.032-10.779,6.046c-3.841,2.153-7.686,4.3-11.525,6.458C9.15,25.715,8.631,26.069,8.1,26.4
		c-0.03,0.297-0.082,0.593-0.085,0.89c-0.039,3.613-0.071,7.227-0.104,10.84c-0.034,3.713-0.076,7.427-0.098,11.14
		c-0.02,3.429-0.011,6.857-0.028,10.286c-0.008,1.547-0.047,3.094-0.073,4.64c0.064,0.119,0.098,0.289,0.197,0.348
		c1.526,0.909,3.059,1.809,4.595,2.701c2.442,1.418,4.89,2.826,7.331,4.244c2.498,1.452,4.99,2.914,7.489,4.366
		c2.928,1.702,5.859,3.4,8.792,5.093c0.585,0.337,1.186,0.646,1.779,0.968c0.901,0.529,1.802,1.058,2.703,1.587L40.596,83.502z"/>
	<path fill="#A55901" d="M72.799,26.602c0.524,0.087,0.714,0.363,0.713,0.923c-0.017,12.169-0.012,24.338-0.022,36.507
		c0,0.221-0.126,0.443-0.193,0.664c-0.185-0.042-0.377-0.139-0.553-0.116c-0.488,0.065-0.856-0.104-1.029-0.584
		c-0.424,0.413-0.364-0.245-0.653-0.277c-0.088,0.114-0.177,0.23-0.324,0.421c0.025-0.258,0.092-0.437,0.04-0.569
		c-0.05-0.127-0.281-0.314-0.334-0.287c-0.506,0.265-0.423-0.111-0.444-0.381c0.029-0.161,0.082-0.322,0.082-0.484
		c0.005-3.543,0.003-7.086,0.006-10.63c0.006-7.456,0.015-14.912,0.016-22.369c0-0.208-0.07-0.415-0.108-0.623
		c0.174-0.387,0.291-0.83,0.799-0.827c0.01-0.158,0.018-0.286,0.027-0.414c0.122,0.01,0.245,0.013,0.366,0.031
		c0.255,0.038,0.509,0.084,0.763,0.127c0.052-0.027,0.104-0.054,0.156-0.081c-0.496-0.38-0.135-0.578,0.053-0.757
		c0.052-0.05,0.32,0.14,0.494,0.203c0.128,0.046,0.267,0.064,0.54,0.127C73.003,26.913,72.901,26.758,72.799,26.602z"/>
	<path fill="#995201" d="M72.799,26.602c0.102,0.155,0.204,0.311,0.398,0.606c-0.274-0.063-0.412-0.081-0.54-0.127
		c-0.175-0.063-0.442-0.253-0.494-0.203c-0.189,0.179-0.549,0.376-0.053,0.757c-0.052,0.027-0.104,0.054-0.156,0.081
		c-0.254-0.043-0.508-0.089-0.763-0.127c-0.121-0.018-0.244-0.021-0.366-0.031c-0.008,0.128-0.016,0.256-0.027,0.414
		c-0.508-0.002-0.624,0.441-0.799,0.827c-0.476-0.269-0.956-0.532-1.427-0.809c-5.377-3.159-10.752-6.32-16.127-9.482
		c-2.551-1.5-5.097-3.008-7.65-4.504c-1.291-0.757-2.592-1.496-3.888-2.242c0.031-1.256,0.061-2.512,0.092-3.768
		c0,0-0.001,0.004-0.001,0.004c0.034-0.032,0.068-0.065,0.102-0.097c0.635,0.354,1.277,0.699,1.905,1.065
		c1.476,0.859,2.946,1.728,4.417,2.595c2.428,1.432,4.854,2.867,7.282,4.299c2.201,1.299,4.405,2.593,6.605,3.893
		c2.3,1.359,4.596,2.726,6.897,4.085c1.47,0.868,2.946,1.726,4.418,2.592C72.69,26.473,72.74,26.545,72.799,26.602z"/>
	<path fill="#7C4100" d="M40.997,7.995c-0.031,1.256-0.061,2.512-0.092,3.768c-1.535,0.857-3.071,1.711-4.605,2.571
		c-2.796,1.568-5.589,3.141-8.387,4.706c-2.621,1.466-5.248,2.921-7.869,4.388c-2.435,1.362-4.867,2.729-7.295,4.104
		c-0.53,0.3-1.034,0.644-1.55,0.968c-0.297-0.214-0.585-0.44-0.894-0.636c-0.192-0.122-0.433-0.169-0.619-0.298
		C9.149,27.19,8.628,26.79,8.1,26.4c0.531-0.332,1.05-0.685,1.595-0.991c3.839-2.158,7.683-4.305,11.525-6.458
		c3.594-2.014,7.185-4.032,10.779-6.046c2.827-1.584,5.656-3.165,8.487-4.741C40.64,8.079,40.826,8.05,40.997,7.995z"/>
	<path fill="#995201" d="M70.001,62.905c0.021,0.27-0.062,0.645,0.444,0.381c0.053-0.028,0.284,0.16,0.334,0.287
		c0.052,0.132-0.016,0.311-0.04,0.569c0.147-0.191,0.236-0.307,0.324-0.421c0.289,0.032,0.228,0.69,0.653,0.277
		c0.173,0.48,0.541,0.649,1.029,0.584c0.176-0.023,0.368,0.074,0.553,0.116c-1.072,0.626-2.142,1.255-3.216,1.877
		c-2.039,1.183-4.08,2.363-6.121,3.544c-1.739,1.006-3.48,2.01-5.219,3.016c-2.084,1.206-4.167,2.413-6.25,3.62
		c-3.16,1.832-6.318,3.669-9.482,5.494c-0.757,0.437-1.535,0.836-2.303,1.253c-0.037,0-0.073,0.001-0.109,0.001
		c0,0,0.002,0.003,0.002,0.003c0-0.948-0.008-1.895,0.005-2.843c0.004-0.283,0.065-0.564,0.1-0.846
		c0.414-0.245,0.826-0.493,1.242-0.733c2.95-1.705,5.902-3.407,8.852-5.112c2.76-1.596,5.518-3.195,8.279-4.79
		c2.603-1.504,5.208-3.006,7.814-4.505C67.924,64.08,68.964,63.495,70.001,62.905z M69.851,63.657
		c0.005,0.037,0.01,0.075,0.015,0.112c0.094-0.009,0.187-0.018,0.281-0.026c-0.006-0.041-0.012-0.081-0.017-0.122
		C70.036,63.633,69.943,63.645,69.851,63.657z"/>
	<path fill="#6A3600" d="M8.1,26.4c0.528,0.39,1.049,0.79,1.587,1.165c0.185,0.129,0.427,0.176,0.619,0.298
		c0.308,0.196,0.597,0.423,0.894,0.636c-0.031,3.386-0.061,6.772-0.092,10.158c-0.032,3.49-0.071,6.979-0.098,10.469
		c-0.014,1.748,0,3.497-0.012,5.245c-0.02,2.772-0.05,5.544-0.076,8.315c-0.127,0.025-0.271,0.019-0.378,0.08
		c-0.467,0.265-0.91,0.575-1.388,0.818c-0.464,0.236-0.96,0.41-1.442,0.612c0.025-1.547,0.065-3.094,0.073-4.64
		c0.017-3.429,0.008-6.857,0.028-10.286c0.022-3.713,0.064-7.427,0.098-11.14c0.033-3.613,0.065-7.227,0.104-10.84
		C8.018,26.993,8.071,26.697,8.1,26.4z"/>
	<path fill="#7C4100" d="M7.713,64.196c0.482-0.201,0.978-0.376,1.442-0.612c0.478-0.243,0.921-0.553,1.388-0.818
		c0.107-0.06,0.251-0.055,0.378-0.08c1.023,0.586,2.048,1.167,3.068,1.758c3.335,1.934,6.668,3.871,10.001,5.81
		c3.203,1.863,6.406,3.727,9.606,5.595c1.505,0.879,3.003,1.77,4.503,2.655c-0.037,0.088-0.073,0.176-0.11,0.263
		c0.574,0.231,0.723,0.491,0.641,1.047c-0.012,0.083,0.092,0.223,0.178,0.27c0.135,0.074,0.301,0.092,0.464,0.136
		c-0.059,0.211-0.105,0.377-0.169,0.607c-0.184-0.052-0.369-0.095-0.548-0.157c-0.209-0.072-0.407-0.186-0.62-0.23
		c-0.082-0.017-0.229,0.092-0.278,0.181c-0.035,0.062,0.046,0.188,0.076,0.286c0.097-0.038,0.195-0.072,0.289-0.116
		c0.054-0.025,0.102-0.065,0.141-0.091c0.692,0.411,0.737,0.514,0.375,0.875c-0.078-0.118-0.154-0.231-0.277-0.417
		c-0.143,0.296-0.255,0.526-0.367,0.757c-0.593-0.322-1.194-0.631-1.779-0.968c-2.933-1.693-5.864-3.391-8.792-5.093
		c-2.498-1.452-4.99-2.914-7.489-4.366c-2.441-1.419-4.889-2.826-7.331-4.244c-1.536-0.892-3.069-1.792-4.595-2.701
		C7.81,64.485,7.777,64.315,7.713,64.196z"/>
	<path fill="#824200" d="M37.895,81.918c0.112-0.23,0.223-0.461,0.367-0.757c0.123,0.185,0.199,0.299,0.277,0.417
		c0.362-0.361,0.317-0.464-0.375-0.875c-0.04,0.026-0.087,0.066-0.141,0.091c-0.094,0.043-0.192,0.078-0.289,0.116
		c-0.029-0.098-0.11-0.224-0.076-0.286c0.05-0.089,0.197-0.198,0.278-0.181c0.213,0.043,0.411,0.157,0.62,0.23
		c0.179,0.062,0.364,0.105,0.548,0.157c0.064-0.231,0.11-0.396,0.169-0.607c-0.163-0.044-0.329-0.062-0.464-0.136
		c-0.086-0.047-0.19-0.188-0.178-0.27c0.082-0.556-0.067-0.815-0.641-1.047c0.037-0.088,0.073-0.176,0.11-0.263
		c0.681,0.387,1.357,0.782,2.045,1.155c0.166,0.09,0.372,0.105,0.559,0.154c-0.035,0.282-0.096,0.564-0.1,0.847
		c-0.013,0.947-0.005,1.895-0.005,2.843C39.697,82.976,38.796,82.447,37.895,81.918z"/>
	<path fill="#7C4100" d="M41.098,7.902c-0.034,0.032-0.068,0.065-0.102,0.097C41.03,7.967,41.064,7.934,41.098,7.902z"/>
	<path fill="#824200" d="M40.596,83.502c0.036,0,0.073-0.001,0.109-0.001C40.669,83.501,40.632,83.501,40.596,83.502z"/>
	<path fill="#131313" d="M40.703,79.815c-0.188-0.049-0.394-0.065-0.559-0.154c-0.688-0.373-1.365-0.768-2.045-1.155
		c-1.501-0.885-2.999-1.777-4.503-2.655c-3.2-1.869-6.403-3.732-9.606-5.595c-3.332-1.938-6.666-3.875-10.001-5.81
		c-1.02-0.591-2.045-1.173-3.068-1.758c0.026-2.772,0.057-5.544,0.077-8.315c0.012-1.748-0.001-3.497,0.012-5.245
		c0.027-3.49,0.065-6.979,0.098-10.469c0.031-3.386,0.061-6.772,0.092-10.158c0.516-0.324,1.021-0.668,1.55-0.968
		c2.428-1.375,4.86-2.741,7.295-4.104c2.621-1.467,5.248-2.922,7.869-4.388c2.798-1.565,5.591-3.139,8.387-4.706
		c1.533-0.86,3.07-1.714,4.605-2.571c1.296,0.747,2.597,1.486,3.888,2.242c2.553,1.496,5.1,3.004,7.65,4.504
		c5.375,3.162,10.751,6.323,16.127,9.482c0.471,0.277,0.951,0.539,1.427,0.809c0.037,0.208,0.108,0.415,0.108,0.623
		c-0.002,7.456-0.01,14.912-0.016,22.369c-0.003,3.543-0.001,7.086-0.006,10.63c0,0.161-0.053,0.322-0.082,0.484
		c-1.037,0.59-2.077,1.175-3.111,1.77c-2.606,1.499-5.211,3.001-7.814,4.505c-2.761,1.595-5.519,3.195-8.279,4.79
		c-2.95,1.705-5.902,3.407-8.852,5.112C41.529,79.322,41.117,79.571,40.703,79.815z"/>
	<path fill="#A55901" d="M69.851,63.657c0.093-0.012,0.185-0.024,0.278-0.036c0.006,0.041,0.012,0.081,0.017,0.122
		c-0.094,0.009-0.187,0.018-0.281,0.026C69.86,63.732,69.856,63.694,69.851,63.657z"/>
</g>
</svg>
