<?xml version="1.0" encoding="utf-8"?>
<!-- Generator: Adobe Illustrator 20.1.0, SVG Export Plug-In . SVG Version: 6.00 Build 0)  -->
<svg version="1.1" id="Layer_1" xmlns="http://www.w3.org/2000/svg" xmlns:xlink="http://www.w3.org/1999/xlink" x="0px" y="0px"
	 width="155.1px" height="177.4px" viewBox="0 0 155.1 177.4" enable-background="new 0 0 155.1 177.4" xml:space="preserve">
<g>
	<path fill="#D7A932" d="M76,0c1,0,2.7-0.1,4.3,0c2.1,0.1,4.3,0.1,6.4,0.3c1.3,0.1,2.7,0.2,4,0.3c1.1,0.1,2.3,0.2,3.4,0.3
		c0.8,0.1,1.6,0.2,2.4,0.2c3,0.3,5.9,0.7,8.9,1.2c4.1,0.6,8.1,1.4,12.2,2.2c4.5,0.9,8.9,2.1,13.4,3.3c3.6,1,7.2,2.2,10.7,3.5
		c0.5,0.2,1,0.4,1.3,0.8c0.5,0.6,1.2,1.2,1.7,1.9c0.4,0.7,0.6,1.5,0.8,2.2c2.3,7.3,4.3,14.6,5.9,22.1c0.7,3.1,1.2,6.2,1.7,9.3
		c0.4,2.7,0.8,5.4,1.1,8.1c0.2,2.3,0.4,4.5,0.6,6.8c0.4,4.7,0.4,9.5,0.3,14.2c-0.1,2.7-0.2,5.4-0.5,8.1c-0.2,2-0.4,4-0.7,6
		c-0.4,2.6-0.8,5.2-1.4,7.8c-1.2,5.3-2.7,10.5-4.6,15.6c-2.4,6.2-5.3,12-8.9,17.6c-4.9,7.7-10.7,14.5-17.4,20.6
		c-6.6,6-13.9,11.2-21.8,15.5c-6,3.3-12.2,6.1-18.6,8.2c-1.4,0.5-2.8,0.8-4.2,1.3c-0.5,0.1-1,0.1-1.5-0.1c-9.1-3.5-17.8-7.7-26-12.8
		c-5-3.1-9.7-6.5-14.1-10.3c-2.3-1.9-4.5-4-6.6-6.1c-6.2-6.3-11.4-13.2-15.7-20.8c-4.4-7.8-7.6-16.1-9.7-24.9
		c-0.8-3.2-1.4-6.5-1.9-9.8c-0.3-1.9-0.5-3.8-0.7-5.6c-0.6-6-0.7-12-0.5-18.1c0.1-2.3,0.3-4.7,0.5-7c0.2-2.1,0.4-4.2,0.7-6.3
		c0.3-2.2,0.6-4.4,1-6.6c0.8-4.8,1.9-9.5,3.1-14.1c1.8-6.7,4-13.3,6.6-19.7c0.6-1.4,1.5-2.4,2.6-3.3c0.2-0.2,0.5-0.3,0.8-0.4
		c3.7-1.6,7.4-2.9,11.2-4.2C30.4,6.1,34.2,5,38,4.1c3.2-0.7,6.5-1.4,9.8-1.9c2.1-0.3,4.2-0.7,6.3-0.9c1.5-0.2,3-0.3,4.5-0.5
		c2.1-0.3,4.3-0.3,6.4-0.5c0.1,0,0.3,0,0.4,0C68.7,0.1,72-0.1,76,0z"/>
	<path fill="#161719" d="M144.7,45.2c0.3,0.9,0.4,1.8,0.5,2.7c0.4,2.2,0.7,4.3,1,6.5c0.2,1.5,0.3,3,0.5,4.5c0.2,2.2,0.4,4.3,0.5,6.5
		c0,0.5,0,1,0.1,1.5c0.1,2,0.2,4,0.1,6c0,3.2-0.1,6.4-0.4,9.6c-0.6,7.6-1.9,15.1-4.2,22.4c-0.4,1.4-0.9,2.8-1.4,4.3
		c0,0.1-0.1,0.2-0.2,0.3c-3.8,1.3-7.5,2.8-11.2,4.2c-2.8,1-5.7,2.1-8.5,3.2c-0.1,0-0.2,0.1-0.3,0.1c-0.5,0.1-0.9,0.3-1.4,0.5
		c-0.1,0-0.2,0.1-0.2,0.1c-0.2,0.1-0.3,0.1-0.5,0.1c-0.1,0-0.1,0.1-0.2,0.1c-0.1,0-0.2,0.1-0.4,0.1c-0.2,0-0.3,0.1-0.5,0.1
		c-0.1,0-0.2,0-0.3,0c-0.2,0-0.3-0.1-0.3-0.3c-0.1-0.3-0.1-0.7-0.1-1c0-0.8,0-1.6,0-2.4c0.1-7.2,0.2-14.3,0.2-21.5
		c0-4.5-0.4-9.1-0.2-13.6c0-0.5,0-1,0.1-1.5c0.2-0.7,0.9-0.7,1.5-0.9c6.5-1.6,13.1-3.3,19.6-4.9c0.3-0.1,0.6-0.1,0.8-0.2
		c-6.4,0-12.9,0.3-19.5,0.3c-0.8-0.1-1.6,0.2-2.4-0.3c-0.2-0.3-0.2-0.7-0.2-1.1c0.1-3.4-0.2-6.8-0.2-10.2c-0.1-5-0.2-10.1-0.5-15.1
		c-0.1-2,0.1-3.9-0.2-5.9c0-0.3,0-0.6,0.1-0.9c0.5-0.6,1.1-0.4,1.7-0.3c1.8,0.3,3.7,0.7,5.5,1.1c6.8,1.4,13.5,3.2,20.2,5.1
		C144,44.8,144.4,44.9,144.7,45.2z"/>
	<path fill="#A5A8AC" d="M13.8,110.6c-0.2-0.1-0.2-0.3-0.3-0.5c-1-2.9-2-5.9-2.7-9c-0.5-2.1-1-4.2-1.3-6.3c-0.3-1.5-0.6-3-0.7-4.5
		c-0.1-1.4-0.4-2.8-0.5-4.1C8.2,85,8.1,83.9,8,82.8c-0.3-4.2-0.2-8.3-0.2-12.5c0-1.8,0.1-3.7,0.3-5.5c0-0.1,0-0.3,0-0.4
		c0-1.4,0.2-2.8,0.4-4.2c0.1-1.3,0.3-2.6,0.5-4c0.2-1.5,0.5-3.1,0.7-4.6c0.3-1.9,0.7-3.9,1.1-5.8c0.1-0.5,0.1-0.9,0.4-1.3
		c1.4-0.9,3-1.1,4.5-1.7c0.1,0,0.2-0.1,0.3-0.1c0.2,0,0.4-0.1,0.7-0.2c0.1,0,0.2-0.1,0.3-0.1c0.2-0.1,0.4-0.1,0.5-0.2
		c1.1-0.4,2.3-0.7,3.5-1c1.5-0.4,3-0.8,4.5-1.2c0.1,0,0.2-0.1,0.3-0.1c0.2,0,0.5-0.1,0.7-0.2c1.5-0.3,2.9-0.7,4.4-1
		c0.1,0,0.2-0.1,0.3-0.1c0.3,0,0.5-0.1,0.8-0.2c1.7-0.4,3.4-0.7,5-1c0.5-0.1,1-0.3,1.5,0.1c0.2,0.4,0.1,0.8,0.1,1.2
		c-0.9,6.2-1.8,12.4-2.4,18.6c-0.4,4.2-0.9,8.5-1.1,12.7c0,0.6-0.1,1.2-0.3,1.8c-0.2,0.3-0.5,0.4-0.9,0.4c-4.8-0.1-9.6,0-14.5-0.1
		c4.6,1.3,9.2,2.5,13.8,3.7c0.5,0.1,1.1,0.2,1.4,0.7c0.1,1.5,0,3-0.1,4.5c-0.2,2.7-0.2,5.3-0.3,8c-0.1,5-0.1,10,0,15
		c0.1,4,0.2,8.1,0.5,12.1c0,0.2,0,0.5,0,0.7c-0.1,0.9-0.3,1.1-1.2,0.9c-1-0.3-2-0.7-2.9-1c-0.2-0.1-0.4-0.2-0.6-0.3
		c-0.1,0-0.2-0.1-0.3-0.1c-0.2-0.1-0.3-0.1-0.5-0.2c-0.1,0-0.2-0.1-0.3-0.1c-0.6-0.2-1.3-0.5-1.9-0.7c-0.2-0.1-0.3-0.1-0.5-0.2
		c-0.1,0-0.2-0.1-0.2-0.1c-0.1,0-0.2-0.1-0.4-0.2c-0.1,0-0.2-0.1-0.3-0.1c-1.4-0.5-2.7-1-4-1.5c-0.2-0.1-0.3-0.1-0.5-0.2
		c-0.1,0-0.2-0.1-0.2-0.1c-0.1-0.1-0.3-0.1-0.5-0.2c-0.1,0-0.2,0-0.2-0.1c-0.1,0-0.2-0.1-0.4-0.1c-0.1,0-0.2-0.1-0.3-0.1
		c-1.7-0.5-3.3-1.2-5-1.8C14.3,111,14,110.8,13.8,110.6z"/>
	<path fill="#48494D" d="M113.3,149.3c-0.4,0.5-0.9,0.8-1.4,1.1c-2.8,2.3-5.7,4.4-8.8,6.4c-3,2-6.1,3.8-9.3,5.4
		c-4.1,2.2-8.3,4.1-12.6,5.7c-1.5,0.6-3,1.1-4.5,1.5c-0.2-0.3-0.1-0.7-0.1-1.1c0-6.7,0.1-13.5,0-20.2c-0.1-3.8-0.1-7.5-0.2-11.3
		c0-0.5,0-1,0.1-1.5c0.1-0.6,0.6-0.7,1.1-0.9c1.7-0.6,3.4-1.2,5.1-1.9c0.1,0,0.2-0.1,0.3-0.1c0.2,0,0.4-0.1,0.5-0.2
		c0.1,0,0.2-0.1,0.2-0.1c0.1-0.1,0.2-0.1,0.4-0.2c1.7-0.7,3.4-1.3,5.1-1.9c0.1,0,0.2-0.1,0.3-0.1c0.2-0.1,0.4-0.1,0.5-0.2
		c1.5-0.6,3-1.1,4.5-1.8c2.3-0.8,4.7-1.7,7-2.6c4.4-1.6,8.8-3.3,13.3-5c0.4-0.1,0.8-0.4,1.3-0.2c0.1,0.1,0.2,0.1,0.2,0.3
		c0,3.1-0.2,6.2-0.4,9.3c-0.2,2.7-0.4,5.3-0.6,8C114.8,141.6,114.3,145.5,113.3,149.3z"/>
	<path fill="#8E9192" d="M75.3,168.9c-1.4-0.6-2.8-1.1-4.1-1.7c-2.7-1.2-5.4-2.4-8-3.8c-3.5-1.8-6.9-3.7-10.2-5.8
		c-3.1-1.9-6.1-4.1-9-6.3c-1.4-1.1-2.7-2.2-4-3.3c-0.3-0.3-0.7-0.4-0.9-0.8c-0.6-1.3-0.6-2.6-0.9-4c-0.8-5.3-1.5-10.6-2-15.9
		c-0.2-1.7-0.3-3.3-0.4-5c-0.1-0.6-0.1-1.3,0.2-1.9c0.4-0.3,0.7-0.1,1.1,0c1,0.3,1.9,0.7,2.9,1c0.1,0,0.2,0.1,0.2,0.1
		c0.1,0.1,0.3,0.2,0.5,0.2c0.1,0,0.2,0,0.2,0.1c0.1,0.1,0.3,0.1,0.4,0.1c0.1,0,0.2,0,0.2,0.1c0.2,0.1,0.3,0.1,0.5,0.2
		c1.1,0.4,2.1,0.8,3.2,1.2c2,0.8,4.1,1.5,6.1,2.3c0.1,0,0.2,0.1,0.2,0.1c0.1,0.1,0.3,0.1,0.4,0.2c0.1,0,0.2,0,0.2,0.1
		c0.1,0.1,0.3,0.1,0.4,0.1c0.1,0,0.2,0,0.2,0.1c0.2,0.1,0.3,0.1,0.5,0.2c1.5,0.6,3,1.1,4.5,1.7c0.1,0,0.2,0.1,0.2,0.1
		c0.1,0.1,0.3,0.1,0.5,0.2c0.1,0,0.2,0,0.2,0.1c0.1,0.1,0.3,0.1,0.5,0.1c0.1,0,0.2,0,0.2,0.1c0.2,0.1,0.3,0.1,0.5,0.2
		c1.9,0.7,3.9,1.4,5.8,2.1c3,1.1,6.1,2.2,9.1,3.4c0.1,0.1,0.2,0.1,0.3,0.2c0.1,0.1,0.2,0.2,0.2,0.3c0,0.1,0.1,0.2,0.1,0.4
		c0.1,0.5,0,0.9,0.1,1.4c0,10.2,0,20.4,0,30.6C75.6,167.8,75.7,168.4,75.3,168.9z"/>
	<path fill="#4C5052" d="M74.8,7.9c1.1-0.1,2.2-0.1,3.3,0C79.6,8,81.1,7.9,82.5,8c1.8,0.1,3.7,0.1,5.5,0.3c1.1,0.1,2.1,0.1,3.2,0.2
		c1.2,0.1,2.3,0.2,3.5,0.3c0.8,0.1,1.5,0.2,2.3,0.2c2.4,0.3,4.8,0.6,7.2,1c3.1,0.5,6.1,1,9.1,1.6c0.3,0.1,0.7,0,1,0.2
		c-0.2,2.8,0.1,5.6,0.3,8.3c0.1,1.5,0.1,3,0.2,4.5c0.2,3.7,0.4,7.4,0.5,11.1c0,0.2-0.1,0.5-0.2,0.7c-0.3,0.3-0.7,0.2-1.1,0.1
		c-1.6-0.2-3.2-0.6-4.8-0.7c-0.4-0.1-0.7-0.2-1.1-0.2c-0.2,0-0.3,0-0.5-0.1c-0.4-0.2-0.9-0.1-1.4-0.2c-0.1,0-0.2,0-0.3-0.1
		c-2.2-0.2-4.4-0.5-6.6-0.7c-2.8-0.3-5.6-0.5-8.3-0.7c-0.4,0-0.8,0-1.2-0.1c-1.2-0.3-2.4,0-3.7-0.2c-0.5-0.1-0.9-0.2-1.4-0.1
		c-2.4,0.1-4.8-0.1-7.2-0.2c-0.4,0-0.7,0-1-0.3c-0.3-0.5-0.3-1-0.3-1.5c0-3.1-0.1-6.3,0-9.4c0.1-4.3-0.2-8.5-0.2-12.8
		c0-0.7-0.2-1.2-0.9-1.3C74.9,8.1,74.9,8,74.8,7.9z"/>
	<path fill="#6A6C6F" d="M74.8,7.9c0,0,0,0.1,0,0.1c0.3,0.4,0.3,0.9,0.3,1.3c0,7.5,0,15,0,22.6c0,0.4,0,0.7-0.1,1.1
		c0,0.1-0.1,0.2-0.2,0.3c-0.3,0.2-0.6,0.2-1,0.2c-2.6-0.1-5.2,0.3-7.9,0.2c-0.7,0-1.4,0.1-2.1,0.2c-2.9,0-5.7,0.3-8.6,0.5
		c-1,0-2,0.1-2.9,0.2c-0.4,0-0.7,0-1.1,0.1c-0.2,0-0.3,0.1-0.5,0.1c-0.4,0-0.8,0-1.2,0.1c-0.1,0-0.2,0-0.3,0.1
		c-1.2,0-2.4,0.3-3.6,0.4c-1.4,0.1-2.8,0.4-4.3,0.6c-0.3,0-0.6,0-0.8,0.1c-0.2,0-0.3-0.1-0.4-0.2c-0.2-0.4-0.2-0.8-0.1-1.2
		c1.3-7.7,2.7-15.4,4.5-23c0.1-0.4,0.2-0.9,0.5-1.2c1-0.3,2-0.4,3-0.6c1.7-0.3,3.3-0.5,5-0.8c1.4-0.2,2.8-0.3,4.3-0.5
		c1-0.1,1.9-0.2,2.9-0.3c0.1,0,0.1,0,0.2,0c1.2-0.1,2.4-0.1,3.6-0.2c2.2-0.2,4.4-0.1,6.6-0.3c1.2-0.1,2.3-0.1,3.5-0.1
		C74.3,7.8,74.6,7.9,74.8,7.9z"/>
	<path fill="#252729" d="M115.2,12.2c0.5-0.1,1,0.1,1.5,0.2c6.8,1.5,13.5,3.2,20,5.4c1.1,0.4,1.1,0.4,1.5,1.5
		c1.8,5.7,3.4,11.4,4.7,17.1c0.5,2.3,1,4.6,1.5,6.8c0,0.1,0,0.2,0,0.3c-0.4,0.3-0.8,0-1.1-0.1c-3.1-0.9-6.3-1.8-9.4-2.5
		c-3.1-0.8-6.2-1.5-9.3-2.2c-0.3-0.1-0.5-0.1-0.8-0.2c-0.1,0-0.2,0-0.3-0.1c-2-0.4-4-0.7-5.9-1.2c-0.4-0.1-0.9-0.1-1.2-0.4
		c-0.3-0.6-0.1-1.3-0.3-1.9c-0.2-1.7-0.2-3.4-0.2-5.1c-0.1-3.7-0.4-7.5-0.5-11.2c-0.1-1.8-0.1-3.6-0.3-5.4
		C114.9,13,114.9,12.6,115.2,12.2z"/>
	<path fill="#929497" d="M11.5,43c0.5-2.3,1.1-4.5,1.7-6.8c1.1-4,2.3-8,3.7-11.9c0.6-1.7,1.3-3.4,1.9-5.1c0.3-0.7,0.7-1.1,1.4-1.4
		c2.8-1.1,5.6-2.1,8.4-3.1c2.2-0.7,4.4-1.3,6.6-1.9c2.3-0.7,4.7-1.1,7.1-1.7c0.4-0.1,0.8-0.2,1.3-0.2c0.2,0.4,0,0.7-0.1,1.1
		c-1.8,7.9-3.3,15.9-4.7,24c0,0.1-0.1,0.2-0.1,0.3c-0.1,0.1-0.2,0.2-0.4,0.3c-0.1,0-0.2,0.1-0.3,0.1c-2.4,0.5-4.8,0.8-7.1,1.4
		c-1.5,0.3-3,0.6-4.5,1c-0.3,0.1-0.5,0.1-0.8,0.2c-0.1,0-0.2,0.1-0.3,0.1c-1.8,0.3-3.5,0.9-5.2,1.3c-1.2,0.3-2.3,0.7-3.5,1
		c-0.2,0.1-0.5,0.1-0.7,0.2c-0.1,0-0.2,0.1-0.3,0.1C14.3,42.2,12.9,42.8,11.5,43z"/>
	<path fill="#3B3E3F" d="M140.7,111c-0.2,0.9-0.6,1.8-1,2.6c-2.5,6.1-5.7,11.8-9.4,17.2c-1.9,2.7-3.9,5.2-6,7.7
		c-1.9,2.1-3.8,4.2-5.9,6.2c-1.1,1.1-2.2,2.2-3.5,3.1c-0.3-0.3-0.2-0.7-0.1-1c1-4.9,1.4-9.9,1.8-14.8c0.3-4,0.4-8,0.7-11.9
		c0.2-0.6,0.6-0.8,1.1-1c1-0.4,2-0.8,3-1.1c0.1,0,0.2-0.1,0.3-0.1c0.2,0,0.3-0.1,0.5-0.1c0.1,0,0.1-0.1,0.2-0.1
		c0.1,0,0.2-0.1,0.3-0.1c0.1,0,0.1-0.1,0.2-0.1c0.1,0,0.3-0.1,0.4-0.1c0.1,0,0.1,0,0.2-0.1c0.1,0,0.2-0.1,0.3-0.1
		c0.1,0,0.1-0.1,0.2-0.1c0.1,0,0.2-0.1,0.3-0.1c0.1,0,0.1-0.1,0.2-0.1c0.1,0,0.2-0.1,0.3-0.1c0.1,0,0.1-0.1,0.2-0.1
		c0.2,0,0.3-0.1,0.4-0.2c0.1,0,0.1-0.1,0.2-0.1c0.1-0.1,0.2-0.1,0.4-0.2c4.5-1.7,9-3.4,13.5-5C139.9,111,140.3,110.7,140.7,111z"/>
	<path fill="#979B9E" d="M37.2,145.6c-0.3-0.1-0.5-0.4-0.7-0.6c-1.4-1.4-2.9-2.8-4.3-4.3c-1.2-1.3-2.4-2.7-3.6-4.1
		c-2.4-2.8-4.5-5.8-6.5-8.9c-1.3-2-2.4-4-3.5-6c-1.5-2.9-2.9-5.8-4.1-8.8c0-0.1-0.1-0.3-0.1-0.4c0.3-0.3,0.6-0.1,0.8,0
		c1.3,0.5,2.7,0.9,4,1.5c0.1,0,0.2,0.1,0.3,0.1c0.2,0.1,0.3,0.1,0.5,0.2c0.1,0,0.2,0,0.3,0.1c0.2,0.1,0.3,0.1,0.5,0.2
		c1.2,0.4,2.3,0.9,3.5,1.3c0.1,0,0.2,0.1,0.2,0.1c0.1,0,0.2,0.1,0.3,0.2c0.1,0,0.1,0.1,0.2,0.1c0.1,0.1,0.3,0.1,0.4,0.2
		c0.1,0,0.2,0,0.2,0.1c0.2,0.1,0.3,0.1,0.5,0.2c0.8,0.4,1.7,0.6,2.5,0.9c0.1,0,0.2,0.1,0.3,0.1c0.2,0.1,0.4,0.1,0.5,0.2
		c1.6,0.7,3.3,1.1,4.9,1.9c0.1,0.1,0.2,0.3,0.3,0.4c0.3,3.1,0.5,6.2,0.9,9.3c0.5,4.9,1.1,9.8,1.9,14.7
		C37.5,144.6,37.7,145.1,37.2,145.6z"/>
	<path fill="#3A3A3C" d="M75.3,168.9c0-11,0-22,0-33c0-0.4,0-0.7,0-1.1c0.5-0.3,0.9,0.1,1.4,0.2c0,3.4,0,6.9,0,10.3
		c0,0.3,0,0.7,0.1,1c0.1,0.3,0.1,0.6,0.1,0.9c0,7.1,0,14.1,0,21.2c0,0.4,0,0.7-0.2,1.1C76.1,169.5,75.7,169.1,75.3,168.9z"/>
	<path d="M117.5,119.8c0,0.8,0,1.6,0,2.4c0,0.6,0,1.3-0.1,1.9c-0.1,0.8,0,1.6-0.1,2.4c0,0.6,0,1.2-0.2,1.8c0,0.1,0,0.1,0,0.2
		c0,1.4-0.1,2.7-0.2,4.1c-0.1,1.4-0.2,2.8-0.4,4.2c-0.1,0.8-0.2,1.5-0.2,2.3c-0.1,1.3-0.3,2.6-0.5,3.9c-0.2,1.6-0.5,3.2-0.9,4.8
		c0,0.1,0,0.1,0,0.2c-0.5,0.5-1.1,1-1.6,1.4c-0.3-0.1-0.3-0.4-0.2-0.6c0.2-0.6,0.3-1.1,0.4-1.7c0.3-1.4,0.6-2.7,0.7-4.1
		c0.2-1.2,0.4-2.5,0.5-3.7c0.1-1,0.2-2,0.3-3c0.1-1.3,0.2-2.5,0.3-3.8c0-0.1,0-0.1,0-0.2c0-1.5,0.2-3,0.2-4.5
		c0.1-2.1,0.2-4.1,0.2-6.2c0-0.4,0.1-0.7,0.1-1.1c0.1-0.8,0.7-0.8,1.3-0.7C117.4,119.7,117.4,119.8,117.5,119.8z"/>
	<path fill="#58585A" d="M37.2,145.6c0-0.4-0.1-0.9-0.1-1.3c-0.2-1.1-0.3-2.2-0.5-3.3c-0.2-1.1-0.3-2.3-0.5-3.4
		c-0.1-0.6-0.1-1.3-0.2-1.9c-0.2-0.8-0.2-1.6-0.3-2.5c-0.1-0.9-0.2-1.7-0.3-2.6c0-0.1,0-0.2,0-0.3c-0.1-1-0.1-2-0.3-3
		c-0.2-1,0-2.1-0.3-3.1c0,0,0-0.1,0-0.1c0-1.5-0.3-2.9-0.2-4.4c0.7-0.2,1.4-0.1,1.8,0.6c-0.1,0.1-0.2,0.2-0.2,0.3
		c0,0.8-0.1,1.6,0.1,2.4c0,0.1,0.1,0.2,0.1,0.3c-0.1,1.1,0.2,2.2,0.2,3.4c0,1,0.2,2,0.3,3c0.1,0.7,0.1,1.4,0.2,2.1
		c0.1,0.8,0.2,1.6,0.3,2.5c0,0.8,0.2,1.6,0.3,2.4c0.1,0.6,0.1,1.2,0.2,1.8c0.3,1.6,0.4,3.3,0.7,4.9c0.1,1,0.4,1.9,0.5,2.9
		c0.1,0.3,0,0.7,0,1C38.4,146.7,37.8,146.2,37.2,145.6z"/>
	<path fill="#58585A" d="M38.6,36.2c-0.1-0.7,0.2-1.4,0.3-2.2c0.2-1.4,0.5-2.9,0.7-4.3c0.4-2.3,0.9-4.7,1.3-7c0.4-2.5,1-4.9,1.5-7.4
		c0.2-1.2,0.5-2.5,0.8-3.7c0.1-0.3,0.2-0.5,0.3-0.7c0.5,0,0.9-0.3,1.4-0.2c0,0.8-0.3,1.5-0.4,2.2c-0.4,1.8-0.8,3.6-1.2,5.4
		c-0.4,1.7-0.7,3.4-1,5c-0.3,1.4-0.5,2.7-0.7,4.1c-0.2,1.2-0.4,2.3-0.7,3.5c-0.2,1-0.4,2.1-0.5,3.1c-0.1,0.7-0.3,1.3-0.2,2
		C39.7,36.4,39.2,36.6,38.6,36.2z"/>
	<path d="M115.2,12.2c0,0.5,0,1.1,0.1,1.6c0.1,0.3,0,0.6,0.1,0.9c0.1,1.1-0.1,2.2,0.2,3.4c0.1,0.6,0,1.3,0,2c0,0.7,0,1.4,0.2,2.1
		c0.1,0.3,0,0.6,0,0.9c0.1,1.2-0.1,2.4,0.2,3.7c0.1,0.7,0,1.5,0,2.2c0,0.8-0.1,1.5,0.2,2.3c0.1,0.2,0,0.5,0,0.7c0,1.1,0,2.3,0,3.4
		c0.2,0.3,0.1,0.7,0.1,1c0,0.3,0.2,0.9-0.4,0.9c-0.6,0-1.1-0.2-1-0.9c0-0.1,0-0.1-0.1-0.2c-0.1-2.1-0.2-4.2-0.3-6.3
		c-0.1-1.6,0-3.2-0.2-4.8c-0.1-1.4-0.1-2.8-0.2-4.2c-0.1-1.5-0.1-3-0.2-4.5c-0.1-1.1-0.1-2.3-0.2-3.4c0-0.2,0-0.4,0-0.6
		c0-0.3,0.2-0.3,0.4-0.4C114.6,12,114.9,12,115.2,12.2z"/>
	<path fill="#080808" d="M133.8,40.8c0.5,0,1,0.2,1.6,0.3c2.4,0.7,4.9,1.3,7.3,2c0.6,0.2,1.1,0.3,1.7,0.5c0.1,0.5,0.3,1,0.3,1.6
		c-0.8,0-1.5-0.4-2.2-0.6c-2-0.5-3.9-1.1-5.9-1.7c-2.6-0.7-5.3-1.4-8-2c-1.5-0.4-3-0.6-4.4-1c-0.2,0-0.4-0.1-0.7-0.2
		c-0.2-0.9,0-1.1,0.9-1c1.4,0.3,2.9,0.6,4.3,1c1.4,0.3,2.8,0.7,4.2,0.9C133.2,40.8,133.5,40.8,133.8,40.8z"/>
	<path fill="#0F0F10" d="M125.6,116.6c-0.1,0-0.1,0-0.2,0c-0.1,0.1-0.3,0.1-0.4,0.2c-0.1,0-0.1,0-0.2,0c-0.1,0.1-0.3,0.1-0.4,0.2
		l-0.1,0l-0.1,0c-0.1,0.1-0.2,0.1-0.2,0.2c-0.1,0-0.1,0-0.2,0c-0.1,0.1-0.3,0.1-0.4,0.2c-0.1,0-0.1,0-0.2,0
		c-0.1,0.1-0.3,0.1-0.4,0.2l-0.1,0l-0.1,0c-0.1,0.1-0.2,0.1-0.2,0.2c-0.1,0-0.1,0-0.2,0c-0.1,0.1-0.3,0.1-0.4,0.2
		c-0.1,0-0.1,0-0.2,0c-0.3-0.4-0.3-0.4,0-0.7c0.3-0.3,0.7-0.4,1.1-0.5c2.7-0.9,5.2-2.1,7.9-3c0.3-0.1,0.7-0.3,0.9-0.6
		c0.9-0.6,2-0.8,2.9-1.2c1.9-0.7,3.8-1.3,5.6-2c0.3-0.1,0.6-0.3,1-0.1c0,0.4-0.2,0.7-0.4,1c-0.6,0.2-1.3,0.4-1.9,0.6
		c-2.4,0.9-4.7,1.8-7,2.7c-1.6,0.6-3.3,1.2-4.9,1.8c-0.3,0.1-0.6,0.3-1,0.2C125.8,116.5,125.7,116.5,125.6,116.6z"/>
	<path fill="#090809" d="M141,110c-1,0.3-2,0.8-3,1.1c-1.3,0.4-2.6,0.9-3.9,1.4c-0.7,0.2-1.4,0.5-2.1,0.7c-0.2,0.1-0.3,0.1-0.4,0.2
		c-0.1,0.1-0.1,0.1-0.2,0.1c-0.1,0.1-0.3,0.1-0.4,0.2c-0.1,0-0.1,0.1-0.2,0.1c-0.2,0-0.3,0.1-0.4,0.2c-0.1,0-0.2,0.1-0.2,0.1
		c-0.2,0-0.3,0.2-0.5,0.2c-2.3,0.9-4.7,1.7-7,2.6c-0.5,0.2-0.9,0.4-1.4,0c0.2-0.3,0.5-0.4,0.8-0.5c1.2-0.5,2.4-0.9,3.5-1.3
		c2-0.8,4-1.5,6-2.3c1.7-0.6,3.4-1.3,5.1-1.9c1.3-0.5,2.6-1,3.9-1.5c0.2-0.1,0.4-0.1,0.6,0.1C141.3,109.6,141.2,109.9,141,110z"/>
	<path fill="#676769" d="M19.4,114.2c-0.9-0.3-1.8-0.6-2.8-1c-0.7-0.3-1.5-0.5-2.2-0.8c-0.2-0.6-0.6-1.2-0.6-1.8
		c0.7,0.2,1.4,0.4,2.1,0.7c1.2,0.4,2.4,0.9,3.5,1.3c0.2,0.1,0.3,0.1,0.4,0.2C19.9,113.3,19.9,113.8,19.4,114.2z"/>
	<path fill="#656668" d="M11.5,43c0.2-0.1,0.4-0.2,0.6-0.3c1.1-0.4,2.3-0.7,3.4-1.1c0.1,0,0.2,0,0.3,0c0.2,0.5,0,1,0,1.4
		c-0.4,0.3-0.8,0.3-1.2,0.5c-1.2,0.4-2.3,0.8-3.5,1.1C11.2,44,11.4,43.5,11.5,43z"/>
	<path fill="#5F6264" d="M117.4,71.8c0.8,0,1.6,0,2.4,0.1c-0.2,0.6-0.8,0.5-1.2,0.5c-1.9,0-3.7,0-5.6,0c-8.3,0.1-16.6,0.3-24.9,0.5
		c-3.2,0-6.4,0.1-9.7,0.1c-0.6,0-1.2,0-1.8,0.1c-0.5,0.1-1.1,0.1-1.6-0.2c-0.1-0.1-0.1-0.2,0-0.3c0.9-0.3,1.1-1,1.1-1.9
		c0-11.3,0-22.7,0-34c0-0.6-0.1-1.3,0.2-1.9c0.2-0.2,0.5-0.3,0.7-0.3c2,0,4.1-0.2,6.1,0.1c0.9,0.1,1.9,0.1,2.8,0.1
		c1.4-0.1,2.7,0.3,4.1,0.2c4,0.4,8.1,0.6,12.1,1.2c0.2,0,0.3,0,0.5,0c3.3,0.4,6.7,0.9,10,1.4c0.8,0.2,1.6,0.1,2.3,0.6
		c0.2,0.3,0.3,0.7,0.4,1c0.2,2,0.2,3.9,0.2,5.9c0.1,3.1,0.2,6.1,0.3,9.2c0.1,5.4,0.4,10.7,0.4,16.1
		C116.1,71.3,116.8,71.4,117.4,71.8z"/>
	<path fill="#40B2E6" d="M75.1,72.7c0.4,0.1,0.9,0.1,1.3,0.1c1.3-0.2,2.6-0.1,3.9-0.1c1.8,0,3.7,0,5.5-0.1c3.5-0.2,7.1,0,10.6-0.2
		c3.3-0.2,6.5,0,9.8-0.2c2.8-0.1,5.5-0.1,8.3-0.2c1.6,0,3.1,0,4.7,0c0.3,0,0.5,0.1,0.8-0.1c2.2,0,4.5-0.1,6.7-0.1
		c3.7-0.1,7.3-0.1,11-0.2c0.8,0,1.5-0.1,2.3-0.1c0.2,0,0.3,0,0.5,0.1c0,0,0,0,0.1,0.1c0,0.1,0,0.1,0,0.2c-0.2,0.2-0.4,0.2-0.6,0.2
		c-3.7,0.9-7.5,1.9-11.2,2.8c-3.4,0.9-6.9,1.7-10.3,2.6c-0.2,0-0.3,0.1-0.4,0.2c-0.5,0.4-1.1,0.4-1.6,0.6
		c-13.1,3.2-26.2,6.6-39.3,9.8c-0.6,0.2-1.2,0.2-1.8,0c-13.1-3.5-26.2-7-39.3-10.6c-0.5-0.2-1-0.2-1.4-0.6c-2.2-0.6-4.5-1.2-6.7-1.8
		c-2.8-0.8-5.7-1.5-8.6-2.3c-0.2-0.1-0.4-0.1-0.7-0.2c0,0-0.1-0.1-0.1-0.2c0,0,0.1-0.1,0.1-0.1c0.2,0,0.3,0,0.5,0c1,0,2.1,0,3.1,0
		c3.5,0,6.9,0,10.4,0c0.6,0,1.1,0,1.7,0.1c0.1,0,0.3-0.1,0.5-0.1c0.5-0.4,1.1-0.3,1.7-0.2c0.6,0.1,1.2,0.1,1.8,0.1
		c4.7,0,9.4-0.1,14.1,0c6.6,0.2,13.3,0.1,19.9,0.2C73,72.3,74,72.4,75.1,72.7z"/>
	<path d="M116,78c0.5-0.2,1-0.4,1.6-0.4c0,2.8,0,5.6,0,8.4c0,0.5,0,0.9,0.1,1.4c0.1,0.2,0.1,0.5,0.1,0.8c0,6.4,0,12.9,0,19.3
		c0,0.4,0,0.7-0.1,1.1c-0.1,0.3-0.1,0.6-0.1,0.9c0,1.7,0,3.3,0,5c-0.2,0.8,0,1.7-0.1,2.5c0,0.3,0,0.5,0,0.8c0.1,0.6-0.3,0.8-0.8,0.8
		c-0.6,0.1-0.8-0.3-0.8-0.8c-0.1-1.2,0-2.3,0-3.5c0-0.4,0-0.7,0-1.1c0-8.5,0-16.9,0-25.4c0-2.8-0.2-5.5-0.2-8.3
		C115.7,79,115.7,78.4,116,78z"/>
	<path d="M117.4,71.8c-0.2,0-0.5,0-0.7,0.1c-0.7,0-0.8-0.1-0.8-0.8c0-0.8,0-1.6,0-2.4c0-1.5,0-3.1-0.1-4.6c-0.2-2.4-0.1-4.9-0.2-7.3
		c-0.1-2.1,0-4.1-0.2-6.2c-0.1-2-0.1-4.1-0.2-6.1c-0.1-1.8-0.1-3.7-0.2-5.5c-0.1-0.3-0.3-0.8,0.2-0.9c0.4-0.1,1-0.1,1.2,0.5
		c0,0.8-0.1,1.6,0.2,2.4c0.1,0.2,0,0.5,0,0.7c0,1.1,0,2.1,0,3.2c0,0.4,0,0.9,0.1,1.3c0.1,0.2,0.1,0.5,0.1,0.8c0,1.2,0,2.4,0,3.6
		c0,0.6,0,1.1,0.2,1.7c0.1,0.2,0,0.5,0,0.8c0,1.2,0,2.4,0,3.6c0,0.7-0.1,1.4,0.2,2.1c0.1,0.2,0,0.5,0,0.7c0,1.5,0,3,0,4.5
		c0,0.7-0.1,1.3,0.2,2c0.1,0.2,0,0.4,0,0.6C117.4,68.3,117.4,70,117.4,71.8z"/>
	<path fill="#0C0C0C" d="M116.4,38.6c-0.4-0.3-0.9-0.1-1.2-0.3c-0.2,0.3-0.1,0.5-0.2,0.8c-0.2-0.2-0.1-0.6-0.2-0.8
		c-0.4-0.5-0.4-1.1,0-1.6c0-0.2,0-0.4,0-0.6c0.3,0.2,0.1,0.5,0.3,0.7c0.3,0.2,0.6,0.1,1,0.2c0.1-0.5,0-1.1,0.1-1.7
		c0.2,0.1,0.2,0.3,0.2,0.5c0,0.4,0,0.8,0,1.3c2.1,0.7,4.3,0.9,6.3,1.5c0.3,0.1,0.6-0.1,0.8-0.1c0.1,0,0.1,0,0.2,0
		c0.2,0.2,0.4,0,0.6,0.2c0.5,0,0.9,0.1,1.4,0.2c2.6,0.6,5.1,1.2,7.7,1.8c0.1,0,0.2,0.1,0.3,0.2c-0.2,0.1-0.3,0.3-0.6,0.3
		c-1.5-0.2-3-0.5-4.5-0.9c-1.5-0.4-2.9-0.7-4.4-1.1c-0.1,0-0.2,0-0.3,0c-0.4,0-0.6,0.1-0.6,0.5c0,0.1,0,0.2,0,0.3
		c-1.2-0.2-2.4-0.5-3.6-0.7C118.7,38.9,117.6,38.5,116.4,38.6z"/>
	<path fill="#131213" d="M121.2,116.8c0.7,0.1,1.3-0.2,1.9-0.5c0.7-0.3,1.5-0.5,2.2-0.8c1.4-0.5,2.7-1,4.1-1.4
		c0.1,0,0.3-0.1,0.4-0.1c0.1-0.1,0.3-0.1,0.4-0.2c0.1,0,0.1,0,0.2,0c0.1-0.1,0.3-0.1,0.4-0.2c0.1,0,0.1,0,0.2,0
		c0.1-0.1,0.3-0.1,0.4-0.2c0.1,0,0.1,0,0.2,0c0,0.1,0,0.3-0.2,0.3c-0.4,0.2-0.7,0.3-1.1,0.4c-1.9,0.6-3.7,1.4-5.6,2.1
		c-1,0.4-1.9,0.7-2.9,1.1c-0.1,0-0.2,0.1-0.3,0.2c-0.2,0.1-0.1,0.3,0.1,0.4c-0.4,0.3-0.9,0.4-1.3,0.6c-0.7,0.3-1.5,0.5-2.2,0.8
		c-0.2,0.1-0.4,0.3-0.7,0.4c0,0,0,0,0,0c-0.4-0.6-0.3-1.2,0.3-1.7c0.1,0,0.2-0.1,0.2-0.1c0.1-0.1,0.3,0,0.3-0.2
		c0.1-0.2,0.2-0.2,0.4-0.2c0.1,0.1,0.3,0.1,0.4,0l0,0c0.2-0.2,0.4,0,0.6-0.2l0,0C120.2,117.2,120.7,117.1,121.2,116.8L121.2,116.8z"
		/>
	<path fill="#090909" d="M118,118c-0.6,0.5-0.6,0.5-0.6,1.3c0,0.2,0,0.3,0,0.5c-0.5,0.1-1.1,0.1-1.4,0.6c-0.1,0-0.1,0-0.2-0.1
		c-0.4-0.6,0-1.3-0.1-1.9c0-1.4,0-2.8,0-4.1c0-0.4-0.1-1,0.5-1.2c0,1.1,0,2.2,0,3.4c0,0.4,0,0.8,0,1.2c0,0.2-0.1,0.5,0.2,0.6
		c0.2,0.1,0.8-0.1,0.9-0.3c0.1-0.1,0.1-0.2,0.1-0.3c0-0.3,0-0.7,0-1c0.1-0.1,0.1-0.1,0.2,0c0,0.3,0,0.7,0,1
		C117.7,117.9,117.9,117.9,118,118z"/>
	<path fill="#090809" d="M117.6,116.8c-0.1,0-0.1,0-0.2,0c0-0.6,0-1.2,0-1.9c0-0.2,0-0.4,0.2-0.5C117.6,115.2,117.6,116,117.6,116.8
		z"/>
	<path fill="#090809" d="M121.2,116.8c-0.4,0.4-1,0.5-1.6,0.6C120.1,117,120.7,116.9,121.2,116.8z"/>
	<path fill="#090809" d="M119.6,117.4c-0.1,0.2-0.4,0.2-0.6,0.2C119.2,117.4,119.4,117.4,119.6,117.4z"/>
	<path fill="#090809" d="M119,117.6c-0.1,0.2-0.3,0.2-0.4,0C118.8,117.6,118.9,117.6,119,117.6z"/>
	<path fill="#131213" d="M118,118c-0.2,0-0.3,0-0.4-0.2c0.1,0,0.3,0,0.4,0C118.1,117.9,118.1,117.9,118,118
		C118.1,118,118.1,118,118,118z"/>
	<path fill="#090809" d="M118,118c0-0.1,0-0.1,0-0.2c0.1,0,0.1,0,0.2,0C118.3,118,118.3,118,118,118z"/>
	<path fill="#58585A" d="M34.2,76.8c0.5,0.1,1,0.2,1.4,0.4c0.5,0.6,0.3,1.4,0.3,2c-0.3,4.3-0.4,8.5-0.4,12.8c0,1.6-0.3,3.1-0.2,4.7
		c0.2,5.4,0.1,10.8,0.4,16.3c0.1,1.8,0.2,3.5,0.3,5.3c-0.1,0.3-0.2,0.5-0.5,0.4c-1-0.4-1.1,0.3-1.3,1c-1.3-0.4-2.6-0.9-3.9-1.4
		c-0.4-0.1-0.7-0.3-1.1-0.4c-0.1-0.1-0.3-0.1-0.4-0.2l0,0c-0.3-0.5-0.5-1,0.2-1.4l0,0c0.2,0.2,0.4,0,0.6,0.2l0,0
		c0.1,0.1,0.3,0.1,0.4,0.2c0.5,0,0.9,0.2,1.3,0.4c0.8,0.3,1.7,0.6,2.5,0.9c0.1,0,0.1,0,0.2,0c0.1-0.6,0-1.2,0-1.8
		c0-0.3-0.1-0.5-0.1-0.8c0-2.6-0.2-5.3-0.3-7.9c-0.3-6.2-0.2-12.5-0.1-18.7c0-2.1,0.1-4.3,0.2-6.4c0.1-1.4,0.1-2.7,0.2-4.1
		C34.1,77.8,34.2,77.3,34.2,76.8z"/>
	<path fill="#58585A" d="M36,72.2c-0.5,0-1,0-1.6,0c0.1-1.3,0.2-2.6,0.3-4c0-0.1,0-0.2,0-0.3c0.1-1.2,0.1-2.4,0.2-3.6
		c0.1-1.1,0.2-2.1,0.3-3.2c0.1-0.7,0.1-1.5,0.2-2.2c0.2-0.9,0.2-1.9,0.3-2.8c0.1-0.9,0.2-1.7,0.3-2.6c0.1-0.8,0.2-1.5,0.3-2.3
		c0.1-0.8,0.2-1.6,0.3-2.4c0.2-1.3,0.4-2.7,0.6-4c0.2-1.2,0.3-2.3,0.5-3.4c0.2-1.1,0.3-2.1,0.5-3.2c0-0.2,0-0.3,0-0.5
		c0-0.1,0.1-0.2,0.2-0.2c0.5-0.1,1.1-0.5,1.5,0.1c0.2,0.6,0,1.1-0.1,1.7c-0.9,5.9-1.7,11.8-2.3,17.7c-0.4,4.1-0.8,8.1-1.1,12.2
		C36.4,70.3,36.6,71.3,36,72.2z"/>
	<path fill="#535354" d="M30.8,37.8c0.8-0.3,1.6-0.4,2.4-0.6c1.4-0.3,2.8-0.5,4.2-0.8c0.3,0,0.5,0,0.8,0c0,0.5,0.4,0.9,0,1.4
		c0,0,0,0.1,0,0.1c-0.9,0.2-1.8,0.4-2.7,0.5c-1,0.2-1.9,0.4-2.9,0.5C32.3,39,32,39,31.7,39c-0.2,0.1-0.4,0-0.6,0.2
		c-0.1,0-0.1,0-0.2,0C30.4,38.7,30.2,38.3,30.8,37.8z"/>
	<path fill="#58585A" d="M30.8,37.8c-0.4,0.5-0.1,0.9,0,1.4c-0.3,0.3-0.6,0.2-0.9,0.3c-1,0.2-2,0.5-3.1,0.7c-0.2,0-0.4,0-0.6,0.1
		c-0.2,0.1-0.5,0-0.6,0.2l-0.1,0l-0.1,0c-0.5,0.2-0.8,0-0.8-0.5c-0.1-0.7,0.3-0.8,0.8-1c0.1,0,0.1,0,0.2,0c0.2-0.2,0.5,0,0.6-0.2
		c1-0.4,2.2-0.5,3.2-0.8C29.9,37.9,30.4,37.7,30.8,37.8z"/>
	<path fill="#606062" d="M19.4,114.2c0.1-0.4,0.2-0.8,0.2-1.2c0-0.1,0.1-0.2,0.2-0.2c0,0,0,0,0,0c0.1,0.1,0.3,0.1,0.4,0.2
		c0.1,0,0.1,0,0.2,0c0.1,0.1,0.3,0.1,0.4,0.2c0.1,0,0.1,0,0.2,0c0.1,0.1,0.3,0.1,0.4,0.2c1.5,0.4,3,1,4.4,1.6
		c-0.2,0.7-1.1,0.5-1.4,1c-1.3-0.4-2.6-0.9-3.8-1.4c-0.1-0.1-0.3-0.1-0.4-0.2c-0.1,0-0.1,0-0.2,0c-0.1-0.1-0.3-0.1-0.4-0.2
		C19.6,114.2,19.5,114.2,19.4,114.2z"/>
	<path fill="#5D5D5F" d="M25.4,39c0,0-0.1,0.1-0.1,0.1c-0.2,0.1-0.4,0.1-0.4,0.3c0,0.3-0.1,0.5,0.1,0.8c0.1,0.2,0.3,0.1,0.5,0.2
		c-0.2,0.2-0.5,0.2-0.7,0.2c-1.3,0.3-2.6,0.7-3.9,0.9c-0.4,0.2-0.7,0-1-0.3c-0.4-0.4-0.3-0.7,0.2-0.9c0.2-0.3,0.6-0.2,0.9-0.3
		c1.2-0.4,2.5-0.6,3.7-1C24.9,39,25.2,39,25.4,39z"/>
	<path fill="#616163" d="M20,40.4c-0.1,0.1-0.2,0.2-0.3,0.3c0,0-0.1,0.2,0,0.2c0.4,0.3,0.5,0.8,1.1,0.8c-0.2,0.2-0.5,0.2-0.7,0.3
		c-1,0.2-1.9,0.6-2.9,0.7c-0.1,0.1-0.3,0.1-0.4,0.2c-0.1,0-0.1,0-0.2,0c-0.2,0.2-0.4,0-0.6,0.2c-0.1,0-0.1,0-0.2,0
		c-0.1-0.1-0.2-0.2-0.2-0.4c0-0.4,0-0.7,0.2-1c0,0,0,0,0,0c0.2-0.2,0.4,0,0.6-0.2C17.6,41,18.8,40.6,20,40.4z"/>
	<path fill="#5C5C5E" d="M24.4,116c-0.1-0.2-0.2-0.5,0.2-0.5c0.5,0,0.8-0.3,1.2-0.5c0,0,0,0,0,0c0.1,0.1,0.3,0.1,0.4,0.2
		c0.1,0,0.1,0,0.2,0c0.1,0.1,0.3,0.1,0.4,0.2c0.8,0.2,1.5,0.4,2.2,0.8c-0.2,0.1-0.2,0.3-0.2,0.5c0,0.3,0,0.6,0,0.9
		c-1-0.3-1.9-0.6-2.8-1c-0.1-0.1-0.3-0.1-0.4-0.2c-0.1,0-0.1,0-0.2,0c-0.1-0.1-0.3-0.1-0.4-0.2c-0.1,0-0.1,0-0.2,0
		c-0.1-0.1-0.1-0.1-0.2-0.2L24.4,116L24.4,116z"/>
	<path fill="#656668" d="M16,43c0.1-0.2,0.4-0.2,0.6-0.2C16.5,43,16.3,43,16,43z"/>
	<path fill="#58585A" d="M31,39.2c0.2-0.2,0.4-0.2,0.6-0.2C31.5,39.2,31.3,39.2,31,39.2z"/>
	<path fill="#5D5D5F" d="M25.6,40.4c0.2-0.2,0.4-0.2,0.6-0.2C26.1,40.4,25.9,40.4,25.6,40.4z"/>
	<path fill="#5C5C5E" d="M29.6,116.4c-0.2,0-0.5,0-0.6-0.2C29.3,116.2,29.5,116.2,29.6,116.4z"/>
	<path fill="#676769" d="M21.5,113.4c-0.2,0-0.3,0-0.4-0.2C21.2,113.2,21.4,113.3,21.5,113.4z"/>
	<path fill="#676769" d="M20.9,113.2c-0.2,0-0.3,0-0.4-0.2C20.6,113,20.8,113,20.9,113.2z"/>
	<path fill="#676769" d="M20.3,113c-0.2,0-0.3,0-0.4-0.2C20,112.8,20.2,112.8,20.3,113z"/>
	<path fill="#606062" d="M26.9,115.4c-0.2,0-0.3,0-0.4-0.2C26.6,115.2,26.8,115.3,26.9,115.4z"/>
	<path fill="#656668" d="M16.8,42.8c0.1-0.2,0.3-0.2,0.4-0.2C17.2,42.8,17,42.8,16.8,42.8z"/>
	<path fill="#606062" d="M26.3,115.2c-0.2,0-0.3,0-0.4-0.2C26,115,26.2,115,26.3,115.2z"/>
	<path fill="#5C5C5E" d="M30.1,116.6c-0.2,0-0.3,0-0.4-0.2C29.8,116.4,30,116.4,30.1,116.6z"/>
	<path fill="#1B1A1B" d="M116,118.6c0.1,0.6-0.1,1.2-0.2,1.8c-0.2,0-0.4,0.1-0.6,0.1c-2.6,1-5.2,1.9-7.8,2.9
		c-1.8,0.7-3.6,1.4-5.4,2.1c-0.2,0.1-0.4,0.1-0.6,0.1c-0.2,0.1-0.4,0.1-0.5-0.1c-0.1-0.3,0.1-0.4,0.3-0.6c0.8-0.4,1.7-0.8,2.6-1
		c0.9-0.2,1.7-0.6,2-1.6c1-0.7,2.2-1,3.3-1.4c1.9-0.7,3.8-1.5,5.8-2.2C115.3,118.6,115.6,118.4,116,118.6z"/>
	<path fill="#2F2D2E" d="M76.6,135c-0.2,0.1-0.4,0.2-0.7,0c-0.2-0.1-0.4-0.3-0.7-0.2c0,0,0,0,0,0c-0.1-0.1-0.1-0.1-0.2-0.2l0,0
		c-0.5-1.2-0.2-1.7,1-1.6c0.3,0,0.6,0.1,1,0c2.7-1.1,5.5-2.1,8.3-3.2c0.3-0.1,0.7-0.3,1.1-0.2c0.2,0.8-0.3,1.3-1,1.6
		c-0.7,0.3-1.4,0.5-2.1,0.8c-0.2,0.1-0.6,0.1-0.4,0.5c-0.4,0.3-0.8,0.4-1.3,0.6c-1.6,0.6-3.1,1.1-4.7,1.7
		C76.8,134.9,76.7,135,76.6,135z"/>
	<path fill="#212020" d="M106,122.4c0,0.1-0.1,0.2-0.1,0.3c0,0.7-0.5,1-1.1,1.2c-1,0.2-1.8,0.7-2.8,1c-0.3,0.1-0.5,0.2-0.7,0.4
		c-0.1,0-0.2,0.1-0.2,0.2c0,0.1,0.2,0.2,0.3,0.2c-0.2,0.2-0.5,0.2-0.7,0.3c-1.9,0.7-3.8,1.4-5.6,2.1c-0.2,0.1-0.4,0.1-0.7,0.1
		c-0.4-0.4-0.3-0.7,0.3-0.9c0.7-0.3,1.3-0.6,2-0.8c0.8-0.2,1.4-0.6,1.7-1.4c0.7-0.6,1.7-0.8,2.5-1.1c1.3-0.5,2.5-1,3.8-1.4
		C105.2,122.4,105.6,122.1,106,122.4z"/>
	<path fill="#262526" d="M98.6,125.2c0,0.1-0.1,0.2-0.1,0.3c0,0.6-0.4,0.9-0.9,1c-0.3,0.1-0.6,0.2-0.9,0.3c-0.2,0-0.4,0.1-0.5,0.2
		c-0.3,0.3-0.7,0.4-1.1,0.4c-0.3,0-0.5,0.2-0.7,0.4c-0.1,0.2-0.1,0.3,0.1,0.4c-0.1,0.1-0.1,0.2-0.2,0.2c-1.5,0.5-2.9,1.1-4.4,1.6
		c-0.1,0.1-0.3,0.1-0.4,0.2c-0.1,0-0.1,0-0.2,0c-0.5-0.1-0.6-0.2-0.3-0.5c0.4-0.4,0.6-1,1-1.4c0.9-0.7,2-0.9,3-1.3
		c1.4-0.6,2.8-1.1,4.3-1.6C97.7,125.2,98.1,124.9,98.6,125.2z"/>
	<path fill="#2A2829" d="M90,128.4C90,128.4,90,128.5,90,128.4c-0.2,0.6-0.4,1.1-0.9,1.4c-0.1,0-0.1,0.1-0.1,0.1
		c-0.1,0.2,0,0.3,0.2,0.3c-0.3,0.3-0.6,0.3-1,0.5c-1.3,0.5-2.7,1-4,1.5c-0.1,0-0.3,0-0.4,0c-0.1,0.1-0.1,0.1-0.2,0.2
		c-0.1,0-0.1,0-0.2,0c-0.1,0.1-0.3,0.1-0.4,0.2c-0.1,0-0.1,0-0.2,0c-0.2,0-0.4,0.1-0.5-0.2c-0.1-0.2,0.1-0.3,0.3-0.4
		c0.7-0.3,1.5-0.5,2.2-0.8c0.3-0.1,0.5-0.2,0.8-0.3c0.2-0.1,0.3-0.2,0.3-0.4c0-0.3,0.3-0.4,0.4-0.6c0-0.1,0-0.2,0.1-0.3
		C87.6,129,88.7,128.3,90,128.4z"/>
	<path fill="#2A2829" d="M89.4,130.2c0.1-0.2,0.2-0.2,0.4-0.2C89.8,130.2,89.6,130.2,89.4,130.2z"/>
	<path fill="#2F2D2E" d="M83,132.6c0.1-0.2,0.2-0.2,0.4-0.2C83.4,132.6,83.2,132.6,83,132.6z"/>
	<path fill="#2F2D2E" d="M83.6,132.4c0.1-0.1,0.1-0.1,0.2-0.2C83.8,132.3,83.7,132.3,83.6,132.4z"/>
	<path fill="#3A3A3C" d="M77.2,133.2c-0.1,0.1-0.2,0.2-0.3,0.2c-0.4,0-0.8,0-1.2-0.1c-0.6-0.2-0.7,0-0.7,0.5c0,0.3,0,0.5,0,0.8
		c-1.3-0.3-2.4-0.8-3.7-1.3c-1.7-0.6-3.4-1.3-5.1-1.9c-0.2-0.1-0.3-0.1-0.4-0.2c-0.4-0.8-0.2-1.2,0.6-1.4c0.7,0,1.3,0.3,1.9,0.5
		c1.8,0.7,3.7,1.4,5.5,2c0.7,0.2,1,0.1,1-0.7c-0.1-4.7,0.2-9.4-0.2-14.1c0-0.4,0-0.7,0-1.1c0-9,0-18,0-27c0-0.6-0.1-1.1,0.3-1.6
		c0.5,0.1,1,0.1,1.6,0c0.5,0.5,0.3,1.2,0.3,1.8c0,13.8,0,27.6,0,41.4C77,131.8,76.9,132.5,77.2,133.2z"/>
	<path fill="#413F40" d="M66.5,130c-0.5,0-0.7,0.3-0.7,0.8c0,0.2,0,0.3,0,0.5c-0.7-0.1-1.3-0.4-2-0.6c-1.2-0.4-2.5-0.9-3.7-1.4
		c-0.1,0-0.2-0.1-0.3-0.2c-0.1-0.1-0.3-0.1-0.4-0.2l-0.1,0l-0.1,0c-0.1-0.1-0.3-0.1-0.4-0.2c-0.1,0-0.1,0-0.2,0
		c-0.1-0.1-0.3-0.1-0.4-0.2l0,0c-0.4-0.5-0.3-1,0.3-1.3c0.1,0,0.2,0,0.3,0c0.2,0,0.4,0.1,0.5,0.2c0.1,0,0.2,0.1,0.2,0.1
		c0.2,0.1,0.4,0.1,0.7,0.1c1.9,0.5,3.7,1.3,5.6,2C66.2,129.5,66.5,129.6,66.5,130z"/>
	<path fill="#4A494A" d="M51.6,126c-1.4-0.3-2.6-0.9-3.9-1.4c-0.8-0.3-1.7-0.5-2.5-1c-0.3-0.6-0.4-1.2,0.4-1.4
		c0.4-0.1,0.7,0,1.1,0.2c1.6,0.6,3.2,1.1,4.9,1.8c0.3,0.1,0.7,0.2,0.9,0.6C52.2,125.1,51.9,125.6,51.6,126z"/>
	<path fill="#454344" d="M51.6,126c0-0.2,0-0.5,0.1-0.7c0.1-0.4,0.3-0.6,0.7-0.5c0,0,0.1,0,0.1,0c0.1,0,0.2,0,0.3,0
		c0.1,0,0.1,0,0.2,0.1c0.1,0.1,0.3,0.1,0.4,0.1c0.1,0,0.2,0,0.2,0.1c0.2,0,0.3,0.1,0.5,0.1c1.4,0.4,2.7,1,4,1.4
		c0.3,0.1,0.6,0.2,0.6,0.6c-0.5,0-0.7,0.3-0.6,0.8c0,0.2,0,0.3,0,0.5c-0.5,0-0.9-0.3-1.4-0.4c-1.2-0.5-2.4-0.8-3.6-1.4
		c-0.1-0.1-0.3-0.1-0.4-0.2c-0.1,0-0.1,0-0.2,0c-0.1-0.1-0.3-0.1-0.4-0.2c-0.1,0-0.1,0-0.2,0C51.9,126.1,51.7,126.1,51.6,126
		L51.6,126z"/>
	<path fill="#525253" d="M34.2,119.6c-0.3-0.4,0-0.8,0.1-1.2c0-0.2,0.3-0.2,0.4-0.2c0.4,0.1,0.7,0.2,1.1,0.4c0.5-0.2,0.9,0,1.3,0.2
		c1.1,0.5,2.4,0.6,3.3,1.5c-0.2,0.5-0.1,1-0.2,1.5c-1.4-0.4-2.7-0.9-4-1.4c-0.6-0.3-1.2-0.4-1.8-0.6
		C34.4,119.7,34.3,119.7,34.2,119.6z"/>
	<path fill="#4F4E50" d="M40.2,121.8c-0.2-0.3-0.2-0.7-0.2-1c0-0.2,0.2-0.3,0.4-0.4c0,0,0.1,0,0.1,0c0.1,0,0.2,0,0.3,0.1
		c0.1,0,0.1,0,0.2,0.1c0.1,0.1,0.3,0.1,0.4,0.1c0.1,0,0.2,0,0.2,0.1c0.2,0,0.3,0.1,0.5,0.1c1.1,0.2,2.1,0.7,3.1,1.1
		c0.2,0.1,0.5,0.2,0.5,0.5c-0.6,0.1-0.6,0.1-0.6,0.5c0,0.2,0,0.5,0,0.7c-0.1,0-0.3,0-0.4-0.1c-1-0.4-2-0.8-3-1.2
		c-0.1-0.1-0.3-0.1-0.4-0.2c-0.1,0-0.1,0-0.2,0c-0.1-0.1-0.3-0.1-0.4-0.2c-0.1,0-0.1,0-0.2,0C40.5,121.9,40.3,121.9,40.2,121.8
		L40.2,121.8z"/>
	<path fill="#525253" d="M41.4,122.2c0.2,0,0.3,0,0.4,0.2C41.7,122.4,41.5,122.4,41.4,122.2z"/>
	<path fill="#4A494A" d="M51.6,126c0.2,0,0.3,0,0.4,0.2C51.9,126.2,51.7,126.1,51.6,126z"/>
	<path fill="#4A494A" d="M52.2,126.2c0.2,0,0.3,0,0.4,0.2C52.5,126.4,52.3,126.4,52.2,126.2z"/>
	<path fill="#4A494A" d="M52.8,126.4c0.2,0,0.3,0,0.4,0.2C53.1,126.6,52.9,126.6,52.8,126.4z"/>
	<path fill="#454344" d="M58.2,128.4c0.2,0,0.3,0,0.4,0.2C58.5,128.6,58.3,128.6,58.2,128.4z"/>
	<path fill="#454344" d="M58.8,128.6c0.2,0,0.3,0,0.4,0.2C59.1,128.8,58.9,128.8,58.8,128.6z"/>
	<path fill="#454344" d="M59.4,128.8c0.2,0,0.4,0,0.4,0.2C59.7,129,59.5,129,59.4,128.8z"/>
	<path fill="#525253" d="M40.2,121.8c0.2,0,0.3,0,0.4,0.2C40.5,122,40.3,122,40.2,121.8z"/>
	<path fill="#525253" d="M40.8,122c0.2,0,0.3,0,0.4,0.2C41.1,122.2,40.9,122.2,40.8,122z"/>
	<path fill="#3A3A3C" d="M75,134.6c0.1,0.1,0.1,0.1,0.2,0.2C75.2,134.7,75.1,134.7,75,134.6z"/>
	<path fill="#3A3A3C" d="M74.8,33.2c0-8,0-16,0-24c0-0.4,0-0.8,0-1.2c0.3,0,0.7,0,1,0c0.2,0,0.4,0.2,0.4,0.4c0,0.2,0,0.5,0,0.7
		c0,1.2,0,2.5,0,3.7c0,0.6,0,1.3,0.2,1.9c0.1,0.3,0,0.7,0,1c0,5.8,0,11.7,0,17.5C75.9,33.6,75.4,33.6,74.8,33.2z"/>
	<path fill="#242324" d="M102.6,36.4c-0.2,0-0.5,0-0.7,0c-1.2-0.2-2.4-0.2-3.5-0.4c-0.9-0.1-1.9-0.1-2.8-0.3c0,0-0.1,0-0.1,0
		c-1.2,0.1-2.4-0.3-3.6-0.2c-0.6,0-1.2-0.2-1.9-0.2c-0.1-0.1-0.3-0.2-0.4-0.2c-0.3,0-0.6-0.2-0.6-0.5c0-0.3,0.1-0.7,0.6-0.7
		c0.6,0,1.3,0,1.9,0c0.3,0,0.7,0,1,0.1c0.1,0,0.2,0.1,0.3,0.1c1.1-0.1,2.2,0.2,3.4,0.2c1,0,1.9,0.3,2.9,0.2c0.1,0,0.2,0.1,0.2,0.1
		c-0.5,0.6-0.5,0.6-1.4,0.4c1.1,0.3,2.2,0.1,3.3,0.3C101.8,35.5,102.3,35.8,102.6,36.4z"/>
	<path fill="#1E1D1E" d="M102.6,36.4c-0.2-0.3-0.8-0.1-0.9-0.7c0,0-0.2-0.1-0.3-0.1c-0.8,0-1.6-0.3-2.5-0.2c-0.6,0-1.2-0.2-1.9-0.2
		c-0.1,0-0.2-0.1-0.2-0.2c0-0.1,0.1-0.1,0.1-0.1c0.3-0.1,0.5-0.1,0.8,0c0.5,0.3,1,0.1,1.4-0.3c1.3,0,2.5,0.2,3.8,0.4
		c0.8,0.1,1.6,0.2,2.3,0.2c0.2,0,0.5,0,0.6,0.2c-0.2,0.2-0.4,0.2-0.6,0.2c1.9,0.3,3.8,0.4,5.6,0.7c0.9,0.1,1.5,0.5,1.6,1.4
		c-0.1,0-0.1,0-0.2,0c-1.5-0.2-3.1-0.5-4.6-0.7c-0.8-0.1-1.5-0.2-2.3-0.3C104.6,36.7,103.6,36.5,102.6,36.4z"/>
	<path fill="#2F2D2E" d="M74.8,33.2c0.5,0,1.1,0,1.6,0c0.8,0,1.6,0,2.4,0c0.5,0,0.9,0,1.4,0.1c0.3,0.1,0.6,0,0.9,0
		c1.4,0,2.8,0,4.2,0c0.3,0,0.5,0,0.7,0.2c-0.4,0.4-0.9,0.3-1.4,0.3c-0.7,0-1.4,0-2,0.4c-0.1,0,0.2,0.1,0.1,0c0,0,0-0.1,0.1-0.1
		c1.1,0.1,2.3,0,3.3,0.7c-0.8,0-1.7,0.1-2.5,0c-2.4-0.3-4.7-0.1-7.1-0.2c-0.5,0.4-1,0.3-1.5,0.1c-0.1-0.1-0.2-0.1-0.3-0.2
		C74.5,34.2,74.5,33.7,74.8,33.2L74.8,33.2z"/>
	<path fill="#2B2A2A" d="M86,35c-0.1-0.1-0.3-0.2-0.4-0.2c-0.4,0-0.7,0-1.1,0c-0.2,0-0.4,0-0.5-0.1c-0.5-0.4-1-0.3-1.6-0.4
		c0.4-0.6,0.9-0.8,1.6-0.8c0.7,0.1,1.3,0,2,0c1,0,2,0,3,0c0.2,0,0.5,0,0.6,0.2c-0.1,0.2-0.3,0.3-0.4,0.5c-0.1,0.2-0.1,0.4,0.2,0.4
		c0.2,0,0.3,0.1,0.5,0.1c0.1,0.1,0.1,0.2,0.2,0.3c-0.9,0-1.8,0.1-2.7-0.1C86.9,35,86.5,35,86,35z"/>
	<path fill="#1A191A" d="M112.6,37.8c-0.1-0.1-0.3-0.3-0.4-0.4c-0.2-0.5-0.6-0.7-1.1-0.7c-0.8,0-1.6-0.2-2.3-0.4c-0.1,0-0.3,0-0.4,0
		c-1.1,0-2.1-0.2-3.1-0.4c-0.3-0.1-0.6,0-0.9-0.1c0,0-0.1-0.1-0.1-0.1c0,0,0.1-0.1,0.1-0.1c0.5,0,1.1,0,1.6-0.1c0,0,0,0,0,0
		c0.4,0.3,1-0.1,1.4,0.2c0.1,0,0.3,0,0.4,0c0.3,0.2,0.7,0,1,0.2c0.9-0.1,1.7,0.2,2.6,0.3c1.1,0.2,2.3,0.4,3.4,0.5c0,0.5,0,1.1,0,1.6
		C114.1,38.1,113.4,37.9,112.6,37.8z"/>
	<path fill="#1E1D1E" d="M107.5,35.6c-0.3,0-0.7,0-1,0c-0.2,0-0.3-0.1-0.4-0.2c0.3,0,0.7,0,1,0C107.2,35.4,107.3,35.5,107.5,35.6z"
		/>
	<path fill="#1E1D1E" d="M108.9,35.8c-0.3,0-0.7,0.1-1-0.2C108.2,35.6,108.6,35.5,108.9,35.8z"/>
	<path fill="#3B393A" d="M74.8,33.2c0,0.5,0,1.1,0,1.6c-0.4,0.4-0.9,0.3-1.3,0.3c-1.9,0-3.9,0-5.8,0c-1.3-0.1-2.6,0.1-3.8-0.4
		c-0.4-0.2-0.9-0.1-1-0.7c0-0.6,0.6-0.2,0.9-0.4c1.1-0.3,2.3-0.2,3.5-0.2c0.8,0,1.6,0.1,2.4,0C71.4,33.1,73.1,33.3,74.8,33.2z"/>
	<path fill="#403F40" d="M63.8,33.6c-0.1,0.2-0.3,0.2-0.5,0.2c-0.1,0-0.2,0.1-0.2,0.2c0,0.2,0.1,0.3,0.2,0.3
		c0.2,0.1,0.4,0.1,0.6,0.1c0.2,0,0.5,0,0.6,0.1c0.4,0.4,0.8,0.3,1.2,0.3c0.7,0,1.3,0,2,0c-0.1,0.5-0.5,0.5-0.9,0.5
		c-3.2,0-6.4,0.4-9.5,0.4c-0.7-0.1-1.4,0.1-1.9-0.5c-0.2-0.3-0.7-0.6-0.1-1c0.3-0.2,0.6-0.2,1-0.2c0.7,0,1.5,0,2.2-0.2
		c0.1,0,0.3,0,0.4,0c0.8,0,1.6,0,2.5-0.2C62.1,33.5,63,33.6,63.8,33.6z"/>
	<path fill="#4D4C4E" d="M38.2,37.8c0-0.3,0.1-0.6-0.1-0.8c-0.3-0.3,0-0.4,0.1-0.6c0,0,0,0,0,0c0.1-0.1,0.3-0.1,0.4-0.2c0,0,0,0,0,0
		c0.3,0,0.5,0,0.8-0.1C39.7,36,40,36,40.2,36c0.1,0,0.3,0,0.4,0c0.2-0.2,0.4,0,0.6-0.2c0.7-0.1,1.5-0.2,2.2-0.3
		c0.7-0.1,1.4-0.2,2.2-0.3c-0.4,0.6-0.1,1.1,0.2,1.6c-0.6,0.4-1.3,0.3-1.9,0.5c-1,0.2-2,0.3-3,0.5c-0.4,0.1-0.7,0.2-1-0.1
		c-0.2,0-0.4,0-0.6,0.1C38.9,37.8,38.6,37.8,38.2,37.8z"/>
	<path fill="#464445" d="M55.2,34.2c0,0.1-0.1,0.2-0.1,0.3c0.2,0.5,0.5,0.8,1,0.9c0.3,0.1,0.6,0,0.9,0c-0.1,0.4-0.5,0.4-0.8,0.5
		c-1.2,0-2.3,0.3-3.5,0.2c-0.4,0-0.9-0.1-1.3,0.1c-0.2,0.1-0.4,0.1-0.7,0.1c-1.2-0.1-1.5-0.4-1.4-1.5c0.1,0,0.1,0,0.2,0
		c0.4-0.2,0.8,0.1,1.2-0.2c0.1,0,0.3,0,0.4,0c0.3-0.2,0.7,0,1-0.2c0.4,0,0.8-0.1,1.2-0.1C54,34.2,54.6,34.2,55.2,34.2z"/>
	<path fill="#494849" d="M49.4,34.8c0,0.1,0,0.2,0.1,0.3c0.4,0.9,0.4,0.9,1.4,0.9c0,0.3-0.2,0.4-0.5,0.4c-1.2,0.2-2.5,0.3-3.7,0.4
		c-0.3,0-0.6,0-0.8-0.3c0,0-0.1,0-0.1,0c-0.7,0-0.8-0.1-0.7-0.8c0-0.2,0.1-0.3,0.3-0.4c0.1,0,0.2-0.1,0.3-0.2c0.7,0,1.3-0.2,1.9-0.3
		C48.2,34.9,48.8,34.8,49.4,34.8z"/>
	<path fill="#494849" d="M50.8,34.6c-0.1,0.1-0.3,0.2-0.4,0.2c-0.3,0-0.5,0-0.8,0c0.1-0.1,0.3-0.2,0.4-0.2
		C50.3,34.6,50.6,34.6,50.8,34.6z"/>
	<path fill="#494849" d="M52.2,34.4c-0.3,0.3-0.7,0.1-1,0.2C51.5,34.3,51.9,34.4,52.2,34.4z"/>
	<path fill="#58585A" d="M41.2,35.8C41.1,36,40.9,36,40.6,36C40.8,35.8,41,35.8,41.2,35.8z"/>
	<path fill="#121011" d="M123.6,38.4c-0.2,0.4-0.3,0.4-0.6,0.4c-0.5-0.1-1-0.3-1.5-0.4c-1.5-0.3-3.1-0.6-4.6-1.1
		c-0.2-0.1-0.3-0.1-0.4-0.2c0.6-0.1,1.1,0.1,1.7,0.2c1.8,0.3,3.5,0.7,5.3,1C123.5,38.3,123.6,38.3,123.6,38.4z"/>
	<path fill="#121011" d="M124.4,38.6c-0.2,0-0.5,0-0.6-0.2C124.1,38.4,124.3,38.4,124.4,38.6z"/>
	<path fill="#5D5D5F" d="M26.2,38.8C26.1,39,25.8,39,25.6,39C25.8,38.8,26,38.8,26.2,38.8z"/>
	<path fill="#656668" d="M16.4,41.4c-0.1,0.2-0.4,0.2-0.6,0.2C16,41.4,16.2,41.4,16.4,41.4z"/>
	<path fill="#535354" d="M38.6,36.2c-0.1,0.2-0.2,0.2-0.4,0.2C38.3,36.3,38.5,36.2,38.6,36.2z"/>
	<path fill="#131213" d="M124.4,117c0.1-0.2,0.2-0.2,0.4-0.2C124.8,117,124.6,117,124.4,117z"/>
	<path fill="#131213" d="M123.4,117.4c0.1-0.2,0.2-0.2,0.4-0.2C123.8,117.4,123.6,117.4,123.4,117.4z"/>
	<path fill="#131213" d="M122.8,117.6c0.1-0.2,0.2-0.2,0.4-0.2C123.2,117.6,123,117.6,122.8,117.6z"/>
	<path fill="#131213" d="M121.8,118c0.1-0.2,0.2-0.2,0.4-0.2C122.2,118,122,118,121.8,118z"/>
	<path fill="#131213" d="M125,116.8c0.1-0.2,0.2-0.2,0.4-0.2C125.4,116.8,125.2,116.8,125,116.8z"/>
	<path fill="#131213" d="M125.6,116.6c0.1-0.1,0.1-0.1,0.2-0.2C125.8,116.5,125.7,116.5,125.6,116.6z"/>
	<path fill="#131213" d="M122.4,117.8c0.1-0.1,0.1-0.1,0.2-0.2C122.6,117.7,122.5,117.7,122.4,117.8z"/>
	<path fill="#131213" d="M124,117.2c0.1-0.1,0.1-0.1,0.2-0.2C124.2,117.1,124.1,117.1,124,117.2z"/>
	<path fill="#606062" d="M25,116.2c0.2,0,0.3,0,0.4,0.2C25.3,116.4,25.1,116.4,25,116.2z"/>
	<path fill="#676769" d="M20.2,114.4c0.2,0,0.3,0,0.4,0.2C20.5,114.6,20.3,114.6,20.2,114.4z"/>
	<path fill="#5C5C5E" d="M28.8,117.6c0.2,0,0.3,0,0.4,0.2C29.1,117.8,28.9,117.8,28.8,117.6z"/>
	<path fill="#676769" d="M19.6,114.2c0.2,0,0.3,0,0.4,0.2C19.9,114.4,19.7,114.4,19.6,114.2z"/>
	<path fill="#606062" d="M25.6,116.4c0.2,0,0.3,0,0.4,0.2C25.9,116.6,25.7,116.6,25.6,116.4z"/>
	<path fill="#606062" d="M24.6,116c0.1,0.1,0.2,0.1,0.2,0.2C24.8,116.1,24.7,116.1,24.6,116z"/>
	<path fill="#0F0F10" d="M130.2,113.8c-0.1,0.2-0.2,0.2-0.4,0.2C129.9,113.8,130.1,113.8,130.2,113.8z"/>
	<path fill="#0F0F10" d="M130.8,113.6c-0.1,0.2-0.2,0.2-0.4,0.2C130.5,113.6,130.7,113.6,130.8,113.6z"/>
	<path fill="#0F0F10" d="M131.4,113.4c-0.1,0.2-0.2,0.2-0.4,0.2C131.1,113.4,131.3,113.4,131.4,113.4z"/>
	<path fill="#929497" d="M45.9,36.6c1,0.1,2-0.2,3.1-0.3c0.4,0,0.8-0.1,1.2-0.1c0.3,0,0.5,0,0.8-0.2c0.2,0,0.4,0,0.6,0
		c0.4-0.2,0.8,0.1,1.2-0.2c0.8,0,1.5,0,2.3-0.2c0.4-0.1,0.9,0,1.4-0.1c0.3,0,0.5,0,0.8-0.2c1,0,1.9,0,2.9-0.2c0.1,0,0.2,0,0.3,0
		c2.1,0,4.2-0.3,6.4-0.3c0.4,0,0.7,0.1,1.1-0.2c2.4,0,4.8,0,7.2,0c0,0,0,0,0,0c0.2,0.3,0.3,0.6,0.3,0.9c0,0.2,0,0.3,0,0.5
		c-0.1,11.5,0.4,23.1,0.2,34.6c0,0.6,0.1,1.2-0.3,1.7c0,0,0,0.1,0,0.1c-0.6,0.1-1.2,0.1-1.8,0c-0.6-0.1-1.2-0.1-1.8-0.1
		c-5.3,0-10.6,0.1-16-0.1c-6.2-0.2-12.4-0.1-18.7-0.2c-0.3,0-0.6,0.1-0.9-0.2c0-1.4,0.2-2.8,0.3-4.2c0.1-1.6,0.2-3.1,0.4-4.7
		c0.1-1,0.2-1.9,0.3-2.9c0.1-1,0.2-1.9,0.3-2.9c0.1-0.9,0.2-1.8,0.3-2.8c0.1-0.8,0.2-1.5,0.3-2.3c0.1-0.9,0.2-1.8,0.4-2.8
		c0.1-0.6,0.1-1.3,0.2-1.9c0.2-1.4,0.4-2.8,0.6-4.2c0.2-1.1,0.3-2.3,0.5-3.5c0.1-0.9,0.3-1.8,0.4-2.7c1.4-0.3,2.7-0.5,4.1-0.6
		c0.6-0.1,1.1-0.1,1.7-0.2C45.7,36.7,45.8,36.7,45.9,36.6z"/>
	<path fill="#3A3A3C" d="M75.1,72.6c0-0.4,0-0.7,0-1.1c0-6.1,0.1-12.3-0.1-18.4c-0.1-6.1,0-12.2-0.1-18.3c0.5,0,1.1,0,1.6,0
		c0,9.7,0,19.4,0,29.1c0,2.6,0,5.2,0,7.8c0,0.9,0,0.9-0.9,0.9C75.4,72.6,75.2,72.6,75.1,72.6z"/>
	<path fill="#929497" d="M45.9,122.4c-1.2-0.6-2.5-1.1-3.8-1.4c-0.1-0.1-0.3-0.1-0.4-0.2c-0.1,0-0.1,0-0.2,0
		c-0.1-0.1-0.3-0.1-0.4-0.2l0,0c-0.2-0.2-0.4,0-0.6-0.2c0,0,0,0,0,0c-0.6-0.4-1.3-0.6-2-0.8c-0.9-0.3-1.7-0.7-2.6-1
		c-0.2-1.5-0.1-2.9-0.3-4.4c-0.1-1.1-0.1-2.3-0.2-3.4c0-0.7,0-1.5-0.2-2.2c-0.1-0.3,0-0.5,0-0.8c0-2.4,0-4.9,0-7.3
		c0-1.4-0.2-2.7-0.2-4.1c0-1,0.2-1.9,0.2-2.9c0-2.5-0.1-5,0.1-7.5c0.1-1.9,0.1-3.8,0.2-5.7c0.1-1.1,0.1-2.2,0.2-3.3
		c2.9,0.8,5.7,1.5,8.6,2.3c2.4,0.6,4.7,1.3,7.1,1.9c3.1,0.8,6.2,1.7,9.3,2.5c2.4,0.6,4.7,1.3,7.1,1.9c2.3,0.6,4.7,1.3,7,1.9
		c0.1,0,0.2,0.1,0.3,0.1c0,4.4,0,8.9,0,13.3c0,5.1-0.1,10.1,0,15.2c0.1,5.1,0.1,10.2,0.1,15.4c0,0.4,0.1,0.9-0.1,1.3
		c-0.5,0.2-0.8-0.2-1.2-0.3c-2.3-0.8-4.5-1.6-6.7-2.4c-0.2-0.1-0.4-0.1-0.7-0.2c-0.6-0.5-1.4-0.6-2.1-0.9c-1.3-0.5-2.7-1-4-1.5
		c-0.1,0-0.2,0-0.3-0.1c-0.2-0.2-0.5,0-0.6-0.2l0,0c-0.1-0.1-0.3-0.1-0.4-0.2c-0.1,0-0.1,0-0.2,0c-0.2-0.1-0.3-0.2-0.5-0.3
		c-1.3-0.5-2.6-1-3.9-1.4c-0.1,0-0.3,0-0.4-0.1c-0.1-0.1-0.3-0.1-0.4-0.2c-0.1,0-0.1,0-0.2,0c-0.1-0.1-0.3-0.1-0.4-0.2l0,0
		c-0.2-0.2-0.4,0-0.6-0.2c0,0,0,0,0,0c-0.6-0.4-1.2-0.5-1.8-0.8c-1.4-0.6-2.8-1.1-4.3-1.6C46.2,122.4,46,122.4,45.9,122.4z"/>
	<path fill="#5F6264" d="M77.2,133.2c-0.6-0.1-0.6-0.1-0.6-0.5c0-0.3,0-0.6,0-0.9c0-14.3,0-28.7,0-43c0-0.3,0-0.7,0-1
		c0.7-0.3,1.5-0.4,2.2-0.6c7.9-2,15.8-4,23.7-5.9c4.3-1.1,8.6-2.1,12.9-3.2c0.2-0.1,0.5-0.1,0.7-0.1c0,1.1,0,2.3,0,3.4
		c0.2,3.2,0.1,6.4,0.1,9.6c0,5.1,0,10.1,0,15.2c0,2.3,0,4.7,0,7c-0.2,0.3-0.1,0.6-0.2,1c0,1.5,0,3-0.1,4.4c-1.9,0.7-3.8,1.5-5.7,2.2
		c-1.2,0.5-2.4,0.9-3.6,1.3c-0.2,0.1-0.4,0.2-0.6,0.3c-0.9,0.2-1.6,0.6-2.4,0.8c-1.6,0.6-3.2,1.2-4.7,1.8c-0.1,0-0.2,0.1-0.2,0.2
		c-1.1,0.3-2.1,0.7-3.2,1.1c-1.5,0.5-3,1.1-4.5,1.7c-0.3,0.1-0.6,0.3-0.9,0.4c-1.2,0.4-2.5,0.8-3.6,1.4c-0.8,0.1-1.6,0.5-2.3,0.8
		c-1.6,0.6-3.3,1.2-4.9,1.9C78.5,132.7,77.9,133,77.2,133.2z"/>
	<path fill="#454344" d="M59.4,127.4c0.2,0,0.5,0,0.6,0.2C59.8,127.6,59.6,127.6,59.4,127.4z"/>
	<path fill="#454344" d="M59,127.2c0.2,0,0.3,0,0.4,0.2C59.3,127.4,59.1,127.4,59,127.2z"/>
	<path fill="#4A494A" d="M52.4,124.8c0.2,0,0.4,0,0.6,0.2C52.8,125,52.6,125,52.4,124.8z"/>
	<path fill="#4A494A" d="M53,125c0.2,0,0.3,0,0.4,0.2C53.3,125.2,53.1,125.2,53,125z"/>
	<path fill="#4A494A" d="M53.6,125.2c0.2,0,0.3,0,0.4,0.2C53.9,125.4,53.7,125.4,53.6,125.2z"/>
	<path fill="#525253" d="M40.4,120.4c0.2,0,0.4,0,0.6,0.2C40.8,120.6,40.6,120.6,40.4,120.4z"/>
	<path fill="#525253" d="M41,120.6c0.2,0,0.3,0,0.4,0.2C41.3,120.8,41.1,120.8,41,120.6z"/>
	<path fill="#525253" d="M41.6,120.8c0.2,0,0.3,0,0.4,0.2C41.9,121,41.7,121,41.6,120.8z"/>
	<path fill="#494849" d="M52.7,35.8c-0.4,0.3-0.8,0.2-1.2,0.2c0.1-0.1,0.3-0.2,0.4-0.2C52.1,35.8,52.4,35.8,52.7,35.8z"/>
</g>
</svg>
