<?xml version="1.0" encoding="utf-8"?>
<!-- Generator: Adobe Illustrator 20.1.0, SVG Export Plug-In . SVG Version: 6.00 Build 0)  -->
<svg version="1.1" id="Layer_1" xmlns="http://www.w3.org/2000/svg" xmlns:xlink="http://www.w3.org/1999/xlink" x="0px" y="0px"
	 width="1024px" height="510px" viewBox="0 0 1024 510" enable-background="new 0 0 1024 510" xml:space="preserve">
<g>
	<path fill="#D5A833" d="M543.7,243.7c0,0.2,0,0.4,0,0.7c-0.1,0.1-0.2,0.1-0.2,0.2c-1.2,2-2.5,3.9-3.7,5.9c-0.1,0.1-0.1,0.3-0.1,0.4
		c0,1.2,0,2.4,0,3.7c0,0.2-0.1,0.4-0.2,0.5c-0.3,0.3-0.6,0.6-0.9,0.8c0.5,0.5,1,1,1.5,1.5c0.4,0.5,0.7,1.2,0.8,1.9
		c0,0.4,0.1,0.8,0.1,1.2c0,0.2,0,0.4-0.2,0.5c-0.3,0.3-0.7,0.7-1,1c0.6,0.5,1,1.1,1.2,1.8c0.3,1,0.4,1.9,0.2,2.9
		c-0.2,1-0.5,2-1.3,2.8c-0.9,0.9-2.1,1.4-3.3,1.7c-0.1,0-0.1,0.1-0.1,0.1c-1.2,0-2.3,0-3.5,0c0,0,0,0,0,0c-0.1,0-0.1-0.1-0.2-0.1
		c-0.9-0.2-1.7-0.6-2.4-1.2c-0.1-0.1-0.3-0.2-0.4-0.2c-0.7,0-1.4,0-2.2,0c-0.4,0-0.9-0.1-1.2,0c-0.4,0.2-0.6,0.6-0.9,0.9
		c0,0,0,0.1-0.1,0.1c-0.1,0.1-0.3,0.2-0.4,0.2c-0.4,0-0.9,0-1.3,0c-0.1,0-0.3-0.1-0.4-0.2c-0.3-0.3-0.6-0.6-0.9-0.9
		c-0.1-0.1-0.1-0.1-0.2-0.1c-1.4,0-2.9,0-4.3,0c-0.1,0-0.2,0.1-0.3,0.1c-0.9,0.6-1.9,1.1-3.1,1.3c0,0-0.1,0.1-0.1,0.1
		c-1,0-1.9,0-2.9,0c0,0-0.1-0.1-0.1-0.1c-0.3-0.1-0.5-0.1-0.8-0.2c-0.8-0.2-1.6-0.6-2.3-1.1c-0.1,0-0.2-0.1-0.3-0.1c-1,0-2,0-3,0
		c-0.1,0-0.3,0-0.4,0.1c-0.9,0.7-1.9,1.1-3,1.3c0,0-0.1,0.1-0.1,0.1c-1,0-1.9,0-2.9,0c-0.1,0-0.2-0.1-0.4-0.1c-1-0.2-2-0.6-2.8-1.3
		c-0.1-0.1-0.2-0.1-0.3-0.1c-0.7,0-1.4,0-2,0c-0.4,0-0.7,0.1-0.9,0.3c-0.1,0.1-0.2,0.1-0.3,0.2c-1,0.6-2.1,0.7-3.2,0.8
		c-0.7,0-1.5,0-2.2,0c-0.3,0-0.5-0.1-0.8,0c-0.4,0.1-0.8,0-1.2,0c-0.1,0-0.3-0.1-0.4-0.1c-0.6-0.6-1.1-1.1-1.7-1.7
		c-0.2-0.2-0.2-0.3-0.2-0.6c0-3.6,0-7.3,0-10.9c0-0.4,0.1-0.6,0.4-0.9c0.4-0.4,0.8-0.8,1.2-1.2c-0.2-0.1-0.3-0.2-0.4-0.4
		c-0.7-0.8-1.2-1.6-1.4-2.6c0,0-0.1-0.1-0.1-0.1c0-0.6,0-1.2,0-1.8c0,0,0.1,0,0.1,0c0.4-0.4,0.9-0.9,1.3-1.3
		c-0.2-0.3-0.4-0.6-0.6-0.9c0-0.1,0-0.3,0-0.3c0.5-0.8,1.1-1.7,1.6-2.5c-0.4-0.7-0.8-1.4-1.1-2.2c0-0.1,0-0.2,0-0.2
		c0.2-0.3,0.4-0.6,0.6-0.8c0.8-0.7,1.7-1.3,2.9-1.5c0.1,0,0.1-0.1,0.1-0.1c1,0,2,0,3.1,0c0,0,0.1,0.1,0.1,0.1c1.1,0.2,2.1,0.7,3,1.4
		c0.4-0.4,0.8-0.8,1.2-1.2c0.1-0.1,0.3-0.2,0.4-0.2c0.8,0,1.6,0,2.3,0c0.3,0,0.7,0,0.9,0.3c0,0,0,0,0.1,0c0.2-0.3,0.5-0.4,0.9-0.4
		c1.6,0,3.2,0,4.8,0c0.2,0,0.4,0.1,0.5,0.2c0.2,0.2,0.4,0.4,0.6,0.6c0,0,0,0,0.1,0c0,0,0.1-0.1,0.1-0.1c0.3-0.3,0.6-0.7,1.1-0.6
		c0.3,0,0.6,0,0.9,0c0.3,0,0.5,0.1,0.6,0.3c0.1,0.1,0.2,0.2,0.2,0.3c0.5,0.5,0.9,0.9,1.4,1.4c0,0,0,0,0,0c1-1,2.2-1.8,3.7-2.1
		c0,0,0-0.1,0.1-0.1c1.1,0,2.2,0,3.4,0c0,0,0,0.1,0.1,0.1c0.2,0.1,0.5,0.1,0.7,0.2c1,0.3,1.9,0.9,2.6,1.7c0.5-0.5,1-1,1.6-1.6
		c0.1-0.1,0.2-0.2,0.4-0.2c0.4,0,0.8,0,1.2,0c0.1,0,0.3,0.1,0.4,0.1c0.5,0.5,1,1,1.5,1.5c0.2,0.2,0.4,0.4,0.4,0.8
		c0.5-0.5,1-1,1.4-1.4c0.2-0.2,0.4-0.4,0.6-0.5c0.6-0.2,1.1-0.6,1.8-0.5c0.4,0,0.8,0,1.2,0c0.4,0,0.7,0.1,0.8,0.5
		c0,0.1,0,0.1,0.1,0.2c0.2-0.8,0.8-0.7,1.3-0.7c0.1,0,0.2,0,0.3,0c0.5,0,0.9,0,1.3,0.3c0.7,0.4,1.3,0.8,1.7,1.5
		c0.3,0.6,0.7,1.2,1.1,1.8c0.5-0.8,0.9-1.6,1.4-2.4c0.1-0.1,0.1-0.2,0.2-0.2c0.5-0.3,1-0.6,1.5-0.9c0.1,0,0.2-0.1,0.3-0.1
		c0.5,0,1.1,0,1.6,0c0.1,0,0.3,0.1,0.3,0.2c0.5,0.8,0.9,1.7,1.4,2.5C543.6,243.7,543.7,243.7,543.7,243.7z M531,255.2
		c-1.8-2.4-3.5-4.8-5.3-7.2c1.6-1.5,3.1-2.9,4.7-4.4c0.1,0.1,0.1,0.2,0.2,0.3c1.3,2,2.6,4.1,3.9,6.1c0.1,0.2,0.2,0.5,0.2,0.7
		c0,1.4,0,2.8,0,4.2c0,0.1,0,0.2,0,0.3c0.9,0,1.7,0,2.5,0c0-0.1,0-0.2,0-0.4c0-1.4,0-2.8,0-4.2c0-0.2,0.1-0.4,0.2-0.6
		c1.4-2.3,2.9-4.5,4.3-6.8c0.1-0.1,0.1-0.2,0.2-0.3c-0.9,0-1.8,0-2.6,0c-0.2,0-0.4,0.1-0.5,0.3c-0.9,1.5-1.8,3-2.7,4.5
		c0,0.1-0.1,0.2-0.2,0.3c-0.1-0.1-0.1-0.2-0.2-0.3c-0.9-1.5-1.8-3-2.7-4.5c-0.1-0.2-0.2-0.3-0.4-0.3c-1.5,0-3.1,0-4.6,0
		c-0.3,0-0.4,0.1-0.6,0.3c-1.3,1.4-2.6,2.7-4,4c-0.1,0.1-0.1,0.1-0.3,0.2c0-0.2,0-0.3,0-0.4c0-1.3,0-2.5,0-3.8
		c0-0.3-0.1-0.4-0.4-0.4c-0.5,0-1.1,0-1.6,0c-0.1,0-0.3,0-0.4,0c0,4.1,0,8.2,0,12.3c0.8,0,1.6,0,2.4,0c0-2.2,0-4.3,0-6.5
		c0.1,0.2,0.2,0.2,0.3,0.3c1.4,1.9,2.7,3.8,4.1,5.7c0.3,0.4,0.5,0.6,1,0.5C529.3,255.2,530.1,255.2,531,255.2z M492.2,262.4
		c0,0,0.1-0.1,0.1-0.1c1.4-1.2,1.4-4.3-1.1-5.2c-0.6-0.2-1.2-0.3-1.8-0.3c-1.5,0-3.1,0-4.6,0c-0.1,0-0.2,0-0.3,0c0,4.1,0,8.2,0,12.3
		c0.1,0,0.1,0,0.2,0c1.6,0,3.2,0,4.8,0c0.4,0,0.9-0.1,1.3-0.2c1.5-0.4,2.6-1.4,2.8-2.9C494,264.5,493.6,263.2,492.2,262.4z
		 M519.5,247.2C519.6,247.2,519.6,247.2,519.5,247.2c0.1-2-1.3-3.9-3.2-4.4c-1.1-0.3-2.2-0.4-3.3-0.1c-2.2,0.5-3.5,2-4.1,4.1
		c-0.4,1.5-0.4,3.1,0,4.6c0.6,2.4,2.4,3.9,4.9,4.1c1.6,0.1,3.1-0.3,4.2-1.5c1-1.1,1.5-2.4,1.5-3.9c-0.8,0-1.5,0-2.3,0
		c-0.1,0-0.1,0.1-0.2,0.2c-0.2,0.5-0.3,1-0.5,1.5c-0.4,0.8-1,1.2-1.8,1.4c-1.7,0.3-2.9-0.5-3.4-2.2c-0.4-1.2-0.3-2.5,0-3.7
		c0.4-1.7,1.5-2.5,3.2-2.4c1.2,0,2,0.7,2.4,1.8c0.1,0.5,0.1,0.5,0.7,0.5C518.4,247.2,519,247.2,519.5,247.2z M518.9,259
		c0.1,0,0.2,0,0.3,0c1,0,2.1,0,3.1,0c0.3,0,0.4,0.1,0.4,0.4c0,3.1,0,6.2,0,9.3c0,0.1,0,0.3,0,0.4c0.9,0,1.7,0,2.5,0
		c0-3.3,0-6.7,0-10c1.3,0,2.5,0,3.8,0c0-0.8,0-1.5,0-2.3c-3.4,0-6.8,0-10.1,0C518.9,257.5,518.9,258.2,518.9,259z M500.5,255.2
		c0-3.3,0-6.7,0-10c1.3,0,2.5,0,3.8,0c0-0.7,0-1.3,0-1.9c0-0.3-0.1-0.4-0.3-0.4c-3.2,0-6.3,0-9.5,0c-0.1,0-0.2,0-0.3,0
		c0,0.8,0,1.5,0,2.3c1.3,0,2.5,0,3.8,0c0,3.3,0,6.7,0,10c0.8,0,1.5,0,2.2,0C500.3,255.2,500.4,255.2,500.5,255.2z M529,264.5
		c0,0.3,0,0.5,0,0.7c0.1,1.8,1.1,3.3,2.8,3.9c1.7,0.5,3.4,0.4,5-0.3c1.5-0.7,2.1-1.9,2-3.6c-0.1-1.5-0.9-2.5-2.4-3
		c-0.6-0.2-1.2-0.3-1.8-0.5c-1.6-0.5-3.2-0.6-4.9-0.5c-0.1,0-0.2,0-0.3,0c0.3,1,0.8,1.8,1.8,2.1c0.8,0.3,1.6,0.5,2.3,0.7
		c0.7,0.2,1.4,0.4,2.1,0.6c0.3,0.1,0.5,0.3,0.6,0.6c0.2,0.7-0.1,1.4-0.8,1.7c-0.6,0.3-1.3,0.4-2,0.3c-1.4-0.2-2-0.8-2.1-2.3
		c0-0.1,0-0.3,0-0.4C530.6,264.5,529.8,264.5,529,264.5z M484.1,250.6c0,0.3,0,0.6,0,0.9c0.1,1.7,0.9,3,2.6,3.7
		c2,0.7,3.9,0.5,5.7-0.6c0.5-0.3,0.8-0.7,1.1-1.2c1.1-2.2,0.1-4.4-2.2-5.1c-0.1,0-0.2-0.1-0.3-0.1c-1.1-0.3-2.2-0.6-3.4-0.9
		c-0.1,0-0.1,0-0.2,0c-0.9,0-1.9,0-2.8,0c-0.1,0-0.1,0-0.2,0c0.3,1,0.8,1.7,1.7,2.1c0.5,0.2,1.1,0.4,1.7,0.5
		c0.9,0.3,1.9,0.5,2.8,0.8c0.6,0.2,0.8,0.5,0.8,1.2c0,0.5-0.3,0.9-0.8,1.1c-0.8,0.4-1.6,0.4-2.4,0.2c-1.1-0.2-1.6-0.8-1.7-1.9
		c0-0.2,0-0.5-0.1-0.7C485.7,250.6,484.9,250.6,484.1,250.6z M505.1,267.3c0.1-0.1,0.1-0.1,0.1-0.2c1.5-2.3,1.7-4.7,0.8-7.2
		c-0.4-1.2-1.2-2.2-2.3-2.7c-1.9-0.9-3.8-1-5.7-0.2c-0.7,0.3-1.4,0.8-1.9,1.4c0.6,0.6,1.1,1.1,1.8,1.8c0-0.1,0.1-0.2,0.2-0.3
		c1-1.1,2.3-1.3,3.6-0.9c1.3,0.4,1.9,1.4,2.2,2.6c0.3,1.3,0.1,2.6-0.4,3.8c0,0.1-0.1,0.3,0,0.3C504,266.2,504.5,266.8,505.1,267.3z
		 M508.6,258.2c0.6,0.6,1.2,1.1,1.8,1.7c0.1-0.1,0.2-0.2,0.3-0.4c1.2-1.2,4.2-1.4,5.3,0.9c0.2,0.5,0.4,1,0.4,1.5
		c0.2,1.2,0,2.3-0.5,3.4c0,0.1-0.1,0.2,0,0.3c0.5,0.6,1.1,1.1,1.7,1.7c0.3-0.5,0.6-1,0.8-1.5c0.8-1.9,0.8-3.9,0.2-5.8
		c-0.6-1.7-1.7-2.8-3.4-3.3c-1.2-0.4-2.4-0.4-3.7-0.2C510.4,256.8,509.4,257.4,508.6,258.2z M495.7,258.8c-0.1,0.1-0.1,0.1-0.1,0.2
		c-0.9,1.5-1.2,3.2-1,5c0.1,1.4,0.6,2.6,1.5,3.6c2,2.3,6.4,2.3,8.5,0.2c0,0,0-0.1,0,0c-0.5-0.5-1.1-1.1-1.6-1.6c0,0-0.1,0-0.1,0.1
		c-1.2,1.1-2.6,1-4,0.5c-1-0.4-1.4-1.3-1.7-2.2c-0.3-1.2-0.2-2.5,0.2-3.7c0-0.1,0-0.3,0-0.4C496.8,259.9,496.3,259.4,495.7,258.8z
		 M508.2,258.8c-0.1,0.1-0.1,0.1-0.1,0.2c-1.2,2.1-1.4,4.4-0.6,6.6c0.6,1.9,2,3.2,4,3.6c1,0.2,2,0.2,2.9,0c1.1-0.2,2-0.7,2.7-1.4
		c-0.6-0.5-1.1-1.1-1.7-1.6c0,0-0.1,0.1-0.1,0.1c-0.5,0.5-1.2,0.8-1.9,0.8c-2.1,0.1-3.3-0.6-3.8-2.7c-0.3-1.2-0.2-2.3,0.2-3.5
		c0-0.1,0-0.3,0-0.3C509.3,259.9,508.8,259.4,508.2,258.8z M505.2,242.9c0,4.1,0,8.2,0,12.3c0.8,0,1.6,0,2.4,0c0-4.1,0-8.2,0-12.3
		C506.8,242.9,506,242.9,505.2,242.9z M529.6,259c0.1,0,0.2,0,0.3,0c0.8,0,1.6,0,2.4,0c0.2,0,0.3,0,0.5-0.1c0.7-0.2,1.4-0.2,2.1,0
		c0.5,0.2,0.9,0.5,1.1,1.1c0.1,0.3,0.1,0.5,0.1,0.8c0,0.2,0.1,0.3,0.3,0.3c0.5,0,1,0,1.5,0c0.2,0,0.4,0,0.5,0c0-0.1,0-0.2,0-0.2
		c0-0.2,0-0.4,0-0.6c-0.1-1.6-0.8-2.7-2.3-3.3c-1.3-0.5-2.6-0.6-4-0.2C531,257.1,530.2,257.9,529.6,259z M493.6,247.1
		c0-0.4,0-0.7,0-1c-0.1-1.4-0.8-2.4-2.1-3c-1.4-0.6-2.9-0.7-4.4-0.2c-1.1,0.3-1.8,1.2-2.3,2.1c0,0,0.1,0,0.1,0c0.9,0,1.9,0,2.8,0
		c0.1,0,0.1,0,0.2,0c0.6-0.2,1.2-0.2,1.8-0.1c0.7,0.1,1.2,0.5,1.4,1.2c0.1,0.3,0.1,0.6,0.2,0.8c0,0.1,0.1,0.2,0.2,0.2
		C492.1,247.2,492.8,247.1,493.6,247.1z M516.1,248.8c0-0.9-0.7-1.6-1.6-1.6c-0.9,0-1.6,0.7-1.6,1.6c0,0.9,0.7,1.6,1.6,1.6
		C515.4,250.4,516.1,249.7,516.1,248.8z"/>
	<path fill="#40BFEA" d="M531,255.2c-0.9,0-1.7,0-2.6,0c-0.5,0-0.7-0.1-1-0.5c-1.3-1.9-2.7-3.8-4.1-5.7c-0.1-0.1-0.1-0.2-0.3-0.3
		c0,2.2,0,4.4,0,6.5c-0.8,0-1.6,0-2.4,0c0-4.1,0-8.2,0-12.3c0.2,0,0.3,0,0.4,0c0.5,0,1.1,0,1.6,0c0.3,0,0.4,0.1,0.4,0.4
		c0,1.3,0,2.5,0,3.8c0,0.1,0,0.2,0,0.4c0.1-0.1,0.2-0.2,0.3-0.2c1.3-1.3,2.7-2.7,4-4c0.2-0.2,0.3-0.3,0.6-0.3c1.5,0,3.1,0,4.6,0
		c0.2,0,0.3,0.1,0.4,0.3c0.9,1.5,1.8,3,2.7,4.5c0,0.1,0.1,0.2,0.2,0.3c0.1-0.1,0.1-0.2,0.2-0.3c0.9-1.5,1.8-3,2.7-4.5
		c0.1-0.2,0.2-0.3,0.5-0.3c0.8,0,1.7,0,2.6,0c-0.1,0.1-0.1,0.2-0.2,0.3c-1.4,2.3-2.9,4.5-4.3,6.8c-0.1,0.2-0.2,0.4-0.2,0.6
		c0,1.4,0,2.8,0,4.2c0,0.1,0,0.2,0,0.4c-0.8,0-1.6,0-2.5,0c0-0.1,0-0.2,0-0.3c0-1.4,0-2.8,0-4.2c0-0.3-0.1-0.5-0.2-0.7
		c-1.3-2-2.6-4.1-3.9-6.1c-0.1-0.1-0.1-0.2-0.2-0.3c-1.6,1.5-3.1,2.9-4.7,4.4C527.5,250.4,529.2,252.7,531,255.2z M530.1,254.7
		c-1.7-2.3-3.3-4.5-5-6.8c1.6-1.5,3.2-3,4.8-4.5c-0.6-0.1-1.2-0.1-1.8-0.1c-0.2,0-0.4,0.1-0.5,0.2c-0.9,1-1.9,1.9-2.8,2.8
		c-0.5,0.5-1.1,1-1.6,1.6c0.4,0.5,0.7,0.9,1,1.4c1.2,1.7,2.5,3.5,3.7,5.2c0.1,0.1,0.2,0.2,0.3,0.2
		C528.8,254.7,529.4,254.7,530.1,254.7z M541,243.3c-0.6,0-1.1,0-1.7,0c-0.1,0-0.2,0.1-0.2,0.2c-1.3,2.2-2.6,4.3-3.8,6.5
		c0,0.1-0.1,0.2-0.1,0.3c0,1.4,0,2.8,0,4.3c0,0.1,0.1,0.2,0.1,0.2c0.5,0,0.9,0,1.4,0c0-0.1,0-0.3,0-0.4c0-1.3,0-2.6,0-3.9
		c0-0.2,0.1-0.4,0.2-0.5c1.3-2.1,2.6-4.1,3.9-6.2C540.9,243.6,540.9,243.5,541,243.3z M521.2,243.3c0,3.8,0,7.6,0,11.4
		c0.5,0,1,0,1.5,0c0-0.1,0-0.2,0-0.3c0-3.5,0-7.1,0-10.6c0-0.1,0-0.1,0-0.2c0-0.1-0.1-0.2-0.2-0.2
		C522.1,243.3,521.6,243.3,521.2,243.3z M530.9,243.3c1.3,2,2.5,4,3.8,6c0.3-0.4,0.5-0.8,0.8-1.2c0-0.1,0-0.2,0-0.3
		c-0.9-1.4-1.7-2.9-2.6-4.3c-0.1-0.1-0.2-0.2-0.3-0.2C532,243.3,531.5,243.3,530.9,243.3z"/>
	<path fill="#3FBEE9" d="M492.2,262.4c1.4,0.8,1.7,2.1,1.5,3.5c-0.3,1.6-1.3,2.6-2.8,2.9c-0.4,0.1-0.9,0.2-1.3,0.2
		c-1.6,0-3.2,0-4.8,0c0,0-0.1,0-0.2,0c0-4.1,0-8.2,0-12.3c0.1,0,0.2,0,0.3,0c1.5,0,3.1,0,4.6,0c0.6,0,1.2,0.1,1.8,0.3
		c2.5,0.9,2.5,4.1,1.1,5.2C492.3,262.3,492.3,262.3,492.2,262.4z M487,262c0,0.4,0,0.8,0,1.3c0.1,0,0.2,0,0.3,0c0.6,0,1.3,0,1.9,0
		c0.5,0,1,0.1,1.5,0.3c0.5,0.2,0.8,0.5,0.9,1c0.3,1.3-0.4,2.4-1.7,2.6c-0.9,0.1-1.8,0.1-2.6,0.1c-0.1,0-0.2,0-0.3,0
		c0,0.5,0,0.9,0,1.4c1.1,0,2.2,0,3.2-0.1c1.2-0.1,2.2-0.7,2.7-1.9c0.8-1.6,0.2-3.3-1.5-4c-0.1,0-0.2-0.1-0.3-0.1
		c0.2-0.1,0.3-0.2,0.5-0.3c0.4-0.3,0.7-0.7,0.9-1.3c0.5-1.7-0.4-3.3-2.2-3.5c-1.1-0.2-2.3-0.1-3.4-0.1c0,0,0,0-0.1,0
		c0,0.4,0,0.8,0,1.2c0.6,0,1.1,0,1.7,0c0.4,0,0.9,0,1.3,0.1c0.7,0.2,1.2,0.7,1.2,1.4c0,0.9-0.3,1.5-1.1,1.8
		c-0.4,0.1-0.8,0.2-1.3,0.2C488.3,262,487.7,262,487,262z M486.5,257.2c-0.4,0-0.8,0-1.2,0c-0.3,0-0.4,0.1-0.4,0.4
		c0,3.6,0,7.1,0,10.7c0,0.1,0,0.2,0,0.3c0.5,0,1,0,1.5,0C486.5,264.8,486.5,261,486.5,257.2z M487,266.8c0.9,0,1.8,0,2.7,0
		c0.2,0,0.3,0,0.5-0.1c0.7-0.2,1.1-0.8,1.1-1.5c0-0.7-0.3-1.2-1.1-1.3c-1-0.1-2.1-0.1-3.2-0.2C487,264.8,487,265.8,487,266.8z
		 M487,261.5c0.1,0,0.2,0,0.2,0c0.7,0,1.3,0,2,0c0.3,0,0.6-0.1,0.8-0.2c0.3-0.1,0.6-0.3,0.6-0.7c0.2-1-0.2-1.6-1.1-1.7
		c-0.8-0.1-1.6,0-2.4-0.1c-0.1,0-0.2,0.1-0.2,0.1C487,259.9,487,260.7,487,261.5z"/>
	<path fill="#40BFEA" d="M519.5,247.2c-0.6,0-1.2,0-1.8,0c-0.5,0-0.5,0-0.7-0.5c-0.3-1.2-1.1-1.8-2.4-1.8c-1.7-0.1-2.8,0.8-3.2,2.4
		c-0.3,1.2-0.3,2.5,0,3.7c0.5,1.7,1.8,2.4,3.4,2.2c0.9-0.1,1.5-0.6,1.8-1.4c0.2-0.5,0.3-1,0.5-1.5c0-0.1,0.1-0.2,0.2-0.2
		c0.7,0,1.5,0,2.3,0c-0.1,1.5-0.5,2.8-1.5,3.9c-1.1,1.2-2.6,1.6-4.2,1.5c-2.5-0.1-4.3-1.6-4.9-4.1c-0.4-1.5-0.5-3.1,0-4.6
		c0.6-2.1,1.8-3.6,4.1-4.1c1.1-0.2,2.2-0.2,3.3,0.1C518.2,243.4,519.6,245.2,519.5,247.2C519.6,247.2,519.6,247.2,519.5,247.2z
		 M519.1,246.8c0-0.2-0.1-0.4-0.1-0.6c-0.4-1.7-1.8-2.8-3.6-3.1c-2.9-0.4-5.2,1.1-5.9,3.9c-0.3,1.2-0.3,2.5-0.1,3.7
		c0.4,2.6,2.1,4.1,4.6,4.3c2.3,0.2,4.3-1.1,5-3.3c0.1-0.4,0.2-0.7,0.3-1.2c-0.5,0-0.9,0-1.4,0c-0.1,0-0.2,0.1-0.2,0.2
		c-0.2,0.4-0.3,0.9-0.5,1.3c-0.4,0.8-1,1.3-1.8,1.5c-1.9,0.5-3.5-0.3-4.2-2.2c-0.6-1.6-0.5-3.3,0.1-4.9c0.5-1.2,1.4-1.9,2.8-2.1
		c1.1-0.1,2.1,0,2.8,0.9c0.3,0.4,0.5,0.8,0.7,1.2c0,0.1,0.1,0.2,0.2,0.2C518.2,246.8,518.6,246.8,519.1,246.8z"/>
	<path fill="#42BFE9" d="M518.9,259c0-0.8,0-1.5,0-2.3c3.4,0,6.7,0,10.1,0c0,0.8,0,1.5,0,2.3c-1.3,0-2.5,0-3.8,0c0,3.3,0,6.7,0,10
		c-0.8,0-1.7,0-2.5,0c0-0.1,0-0.3,0-0.4c0-3.1,0-6.2,0-9.3c0-0.3-0.1-0.4-0.4-0.4c-1,0-2.1,0-3.1,0C519.1,259,519,259,518.9,259z
		 M524.8,268.6c0-3.4,0-6.7,0-10c0.2,0,0.3,0,0.4,0c1,0,2.1,0,3.1,0c0.2,0,0.3-0.1,0.3-0.3c0-0.2,0-0.5,0-0.7c0-0.3-0.1-0.3-0.3-0.3
		c-1.6,0-3.2,0-4.8,0c-0.1,0-0.2,0-0.3,0c0,0.1,0,0.2,0,0.3c0,3.5,0,7.1,0,10.6c0,0.1,0,0.2,0,0.2c0,0.1,0.1,0.2,0.2,0.2
		C523.8,268.6,524.3,268.6,524.8,268.6z M519.4,258.5c1,0,2,0,3,0c0-0.5,0-0.9,0-1.3c-1,0-2,0-3,0
		C519.4,257.6,519.4,258.1,519.4,258.5z"/>
	<path fill="#42C0EA" d="M500.5,255.2c-0.1,0-0.2,0-0.3,0c-0.7,0-1.5,0-2.2,0c0-3.3,0-6.7,0-10c-1.3,0-2.5,0-3.8,0
		c0-0.8,0-1.5,0-2.3c0.1,0,0.2,0,0.3,0c3.2,0,6.3,0,9.5,0c0.3,0,0.4,0.1,0.3,0.4c0,0.6,0,1.3,0,1.9c-1.3,0-2.5,0-3.8,0
		C500.5,248.5,500.5,251.8,500.5,255.2z M503.9,244.7c0-0.5,0-0.9,0-1.3c-1.8,0-3.6,0-5.4,0c0,0.1,0,0.3,0,0.4c0,3.5,0,7,0,10.6
		c0,0.1,0,0.2,0,0.2c0,0.1,0.1,0.2,0.1,0.2c0.5,0,0.9,0,1.4,0c0-0.2,0-0.3,0-0.4c0-3.1,0-6.1,0-9.2c0-0.4,0-0.4,0.4-0.4c1,0,2,0,3,0
		C503.6,244.7,503.7,244.7,503.9,244.7z M494.7,243.3c0,0.4,0,0.7,0,1.1c0,0.2,0.1,0.3,0.3,0.3c0.8,0,1.6,0,2.4,0c0.1,0,0.2,0,0.3,0
		c0-0.5,0-0.9,0-1.3C496.6,243.3,495.7,243.3,494.7,243.3z"/>
	<path fill="#3FBFEA" d="M529,264.5c0.8,0,1.6,0,2.4,0c0,0.1,0,0.3,0,0.4c0.1,1.4,0.7,2.1,2.1,2.3c0.7,0.1,1.4,0,2-0.3
		c0.7-0.3,1-0.9,0.8-1.7c-0.1-0.3-0.3-0.5-0.6-0.6c-0.7-0.2-1.4-0.4-2.1-0.6c-0.8-0.2-1.6-0.4-2.3-0.7c-1-0.3-1.5-1.1-1.8-2.1
		c0.1,0,0.2,0,0.3,0c1.7-0.1,3.3,0,4.9,0.5c0.6,0.2,1.2,0.3,1.8,0.5c1.5,0.5,2.3,1.5,2.4,3c0.1,1.7-0.5,2.9-2,3.6
		c-1.6,0.8-3.3,0.9-5,0.3c-1.7-0.5-2.8-2-2.8-3.9C529,265,529,264.8,529,264.5z M530.2,261.6C530.2,261.6,530.1,261.7,530.2,261.6
		c0.1,0.3,0.2,0.5,0.4,0.6c0.4,0.3,0.8,0.6,1.2,0.7c0.7,0.2,1.4,0.4,2.1,0.6c0.7,0.2,1.4,0.4,2.1,0.7c0.5,0.2,0.7,0.6,0.8,1.1
		c0.1,1-0.3,1.7-1.2,2c-0.8,0.3-1.7,0.4-2.5,0.2c-1.2-0.2-1.9-0.9-2.1-2.1c0-0.1,0-0.3-0.1-0.4c0-0.1-0.1-0.1-0.1-0.1
		c-0.4,0-0.9,0-1.3,0c0,0.1,0,0.2,0,0.2c0,1.6,1,3,2.5,3.5c1.6,0.5,3.2,0.4,4.8-0.4c1.2-0.6,1.6-1.7,1.5-3c0-1.3-0.7-2.1-1.9-2.6
		c-0.2-0.1-0.5-0.2-0.7-0.2c-0.9-0.2-1.7-0.4-2.6-0.6C532.2,261.5,531.2,261.7,530.2,261.6z"/>
	<path fill="#3FBFEA" d="M484.1,250.6c0.8,0,1.6,0,2.3,0c0,0.2,0,0.5,0.1,0.7c0.1,1.1,0.7,1.7,1.7,1.9c0.8,0.2,1.7,0.1,2.4-0.2
		c0.5-0.2,0.8-0.6,0.8-1.1c0-0.7-0.1-1-0.8-1.2c-0.9-0.3-1.8-0.5-2.8-0.8c-0.6-0.2-1.1-0.3-1.7-0.5c-0.9-0.4-1.4-1.1-1.7-2.1
		c0.1,0,0.1,0,0.2,0c0.9,0,1.9,0,2.8,0c0.1,0,0.1,0,0.2,0c1.1,0.3,2.2,0.6,3.4,0.9c0.1,0,0.2,0.1,0.3,0.1c2.3,0.7,3.2,3,2.2,5.1
		c-0.2,0.5-0.6,0.9-1.1,1.2c-1.8,1.1-3.7,1.3-5.7,0.6c-1.7-0.6-2.5-1.9-2.6-3.7C484.1,251.2,484.1,250.9,484.1,250.6z M485.2,247.7
		c0.2,0.6,0.7,1.1,1.4,1.3c0.9,0.3,1.9,0.5,2.8,0.8c0.6,0.2,1.2,0.4,1.7,0.6c0.4,0.1,0.6,0.4,0.7,0.8c0.3,1-0.1,1.8-1.1,2.3
		c-0.7,0.3-1.4,0.3-2.1,0.3c-1.6-0.1-2.4-0.9-2.6-2.4c0-0.2-0.1-0.2-0.3-0.2c-0.3,0-0.6,0-1,0c-0.2,0-0.3,0.1-0.3,0.3
		c0,1.6,0.9,2.9,2.4,3.4c1.5,0.5,3,0.4,4.5-0.2c1.1-0.5,1.7-1.3,1.9-2.5c0.2-1.6-0.5-2.8-2.1-3.3c-0.2-0.1-0.5-0.1-0.7-0.2
		c-0.8-0.2-1.7-0.4-2.5-0.6C487.2,247.6,486.2,247.8,485.2,247.7z"/>
	<path fill="#40BFEA" d="M505.1,267.3c-0.6-0.6-1.1-1.1-1.6-1.7c-0.1-0.1,0-0.2,0-0.3c0.6-1.2,0.7-2.5,0.4-3.8
		c-0.3-1.2-0.9-2.2-2.2-2.6c-1.4-0.4-2.6-0.2-3.6,0.9c-0.1,0.1-0.1,0.2-0.2,0.3c-0.6-0.6-1.2-1.2-1.8-1.8c0.5-0.6,1.1-1.1,1.9-1.4
		c1.9-0.8,3.9-0.7,5.7,0.2c1.1,0.6,1.9,1.5,2.3,2.7c0.9,2.5,0.7,5-0.8,7.2C505.2,267.2,505.1,267.2,505.1,267.3z M505,266.6
		c0.1-0.1,0.1-0.2,0.2-0.3c1.1-2.2,1.2-4.4,0.2-6.7c-0.5-1.2-1.5-2-2.7-2.4c-1.2-0.4-2.4-0.4-3.6-0.2c-0.9,0.2-1.7,0.6-2.3,1.2
		c0.4,0.4,0.7,0.7,1.1,1.1c0,0,0,0,0.1-0.1c2.3-2,5.7-1,6.4,2c0.3,1.3,0.2,2.7-0.3,4c0,0.1,0,0.3,0,0.4
		C504.3,265.9,504.6,266.2,505,266.6z"/>
	<path fill="#40BFE9" d="M508.6,258.2c0.8-0.9,1.8-1.4,2.9-1.7c1.2-0.3,2.5-0.2,3.7,0.2c1.7,0.5,2.8,1.7,3.4,3.3
		c0.7,1.9,0.6,3.9-0.2,5.8c-0.2,0.5-0.5,1-0.8,1.5c-0.6-0.6-1.2-1.2-1.7-1.7c0,0,0-0.2,0-0.3c0.5-1.1,0.7-2.2,0.5-3.4
		c-0.1-0.5-0.2-1.1-0.4-1.5c-1.1-2.3-4.1-2.1-5.3-0.9c-0.1,0.1-0.3,0.3-0.3,0.4C509.8,259.4,509.2,258.8,508.6,258.2z M510.3,259.3
		c0.1,0,0.1-0.1,0.2-0.1c2.2-1.9,5.5-0.9,6.3,1.9c0.4,1.4,0.3,2.8-0.3,4.1c0,0.1-0.1,0.3,0,0.3c0.3,0.4,0.7,0.7,1,1
		c0.1-0.1,0.1-0.1,0.1-0.1c0.1-0.1,0.1-0.2,0.2-0.3c0.8-1.6,0.9-3.2,0.6-4.9c-0.2-1.4-0.8-2.5-2-3.4c-1.7-1.2-4.7-1.3-6.4-0.2
		c-0.3,0.2-0.5,0.4-0.8,0.6C509.6,258.6,510,259,510.3,259.3z"/>
	<path fill="#40BFEA" d="M495.7,258.8c0.6,0.6,1.1,1.1,1.7,1.7c0.1,0.1,0.1,0.3,0,0.4c-0.4,1.2-0.5,2.5-0.2,3.7
		c0.3,1,0.7,1.9,1.7,2.2c1.4,0.5,2.8,0.6,4-0.5c0,0,0.1-0.1,0.1-0.1c0.5,0.5,1.1,1.1,1.6,1.6c0,0,0,0,0,0c-2.1,2.1-6.5,2.1-8.5-0.2
		c-0.9-1-1.4-2.3-1.5-3.6c-0.2-1.8,0.1-3.4,1-5C495.6,258.9,495.6,258.9,495.7,258.8z M495.8,259.5c0,0.1-0.1,0.1-0.1,0.1
		c0,0.1-0.1,0.2-0.1,0.2c-0.7,1.5-0.8,3-0.5,4.5c0.2,1.1,0.6,2.1,1.4,3c1.9,2,5.5,1.9,7.3,0.5c0.1,0,0.1-0.1,0.2-0.1
		c-0.2-0.2-0.4-0.4-0.6-0.5c-0.2-0.2-0.3-0.4-0.4-0.5c-0.9,0.6-1.3,0.7-2.1,0.8c-2.2,0.2-3.7-0.9-4.2-3c-0.3-1.2-0.2-2.4,0.1-3.6
		c0-0.1,0-0.3,0-0.3C496.5,260.3,496.2,259.9,495.8,259.5z"/>
	<path fill="#40BFE9" d="M508.2,258.8c0.6,0.6,1.2,1.1,1.7,1.7c0.1,0.1,0.1,0.2,0,0.3c-0.4,1.1-0.5,2.3-0.2,3.5
		c0.5,2.1,1.7,2.8,3.8,2.7c0.7,0,1.4-0.3,1.9-0.8c0,0,0.1-0.1,0.1-0.1c0.6,0.5,1.1,1.1,1.7,1.6c-0.8,0.7-1.7,1.2-2.7,1.4
		c-1,0.2-2,0.2-2.9,0c-2-0.4-3.4-1.7-4-3.6c-0.7-2.3-0.6-4.5,0.6-6.6C508.1,258.9,508.1,258.9,508.2,258.8z M508.3,259.6
		c0,0.1-0.1,0.1-0.1,0.1c-0.1,0.1-0.1,0.2-0.2,0.3c-0.6,1.4-0.7,2.9-0.5,4.4c0.4,2.5,2,4.1,4.4,4.4c1.5,0.2,3,0,4.2-0.9
		c0.1-0.1,0.2-0.1,0.2-0.2c-0.3-0.3-0.7-0.6-1-1c-0.8,0.7-1.8,0.8-2.9,0.7c-1.6-0.1-2.6-0.9-3.2-2.4c-0.5-1.4-0.5-2.8-0.1-4.2
		c0-0.1,0.1-0.2,0-0.3C509,260.3,508.7,259.9,508.3,259.6z"/>
	<path fill="#3DC0EE" d="M505.2,242.9c0.8,0,1.6,0,2.4,0c0,4.1,0,8.2,0,12.3c-0.8,0-1.6,0-2.4,0C505.2,251.1,505.2,247,505.2,242.9z
		 M505.7,243.3c0,0.2,0,0.3,0,0.4c0,3.5,0,7,0,10.5c0,0.1,0,0.1,0,0.2c0,0.2,0.1,0.2,0.2,0.2c0.3,0,0.7,0,1,0c0.3,0,0.3-0.1,0.3-0.4
		c0-3.6,0-7.1,0-10.7c0-0.1,0-0.2,0-0.4C506.7,243.3,506.2,243.3,505.7,243.3z"/>
	<path fill="#40BEE8" d="M529.6,259c0.6-1.1,1.4-1.9,2.6-2.2c1.4-0.4,2.7-0.3,4,0.2c1.5,0.6,2.2,1.7,2.3,3.3c0,0.2,0,0.4,0,0.6
		c0,0,0,0.1,0,0.2c-0.2,0-0.4,0-0.5,0c-0.5,0-1,0-1.5,0c-0.2,0-0.3-0.1-0.3-0.3c0-0.3-0.1-0.5-0.1-0.8c-0.1-0.6-0.5-0.9-1.1-1.1
		c-0.7-0.2-1.4-0.2-2.1,0c-0.2,0-0.3,0.1-0.5,0.1c-0.8,0-1.6,0-2.4,0C529.8,259,529.7,259,529.6,259z M530.5,258.5
		c0.6,0,1.1,0,1.6,0c0.2,0,0.4,0,0.6,0c0.6,0,1.2-0.2,1.8-0.1c1.2,0.1,1.9,0.7,2.1,2c0,0,0,0.1,0,0.1c0,0,0.1,0.1,0.1,0.1
		c0.4,0,0.9,0,1.4,0c0-1.3-0.4-2.3-1.5-3c-1.5-0.8-3-0.9-4.5-0.3C531.3,257.5,530.9,257.9,530.5,258.5z"/>
	<path fill="#40BFE9" d="M493.6,247.1c-0.7,0-1.4,0-2.2,0c-0.1,0-0.2-0.1-0.2-0.2c-0.1-0.3-0.1-0.6-0.2-0.8
		c-0.2-0.7-0.7-1.1-1.4-1.2c-0.6-0.1-1.2-0.1-1.8,0.1c-0.1,0-0.1,0-0.2,0c-0.9,0-1.9,0-2.8,0c0,0-0.1,0-0.1,0c0.6-1,1.2-1.8,2.3-2.1
		c1.5-0.5,3-0.4,4.4,0.2c1.3,0.6,2,1.6,2.1,3C493.6,246.4,493.6,246.8,493.6,247.1z M493.1,246.7c0-1.1-0.3-2.1-1.2-2.8
		c-1.1-0.8-2.4-0.9-3.7-0.8c-0.9,0.1-1.8,0.4-2.4,1.2c-0.1,0.1-0.1,0.2-0.3,0.3c0.6,0,1.2,0,1.7,0c0.2,0,0.3,0,0.5,0
		c0.5,0,1.1-0.2,1.6-0.1c1.4,0.1,2,0.7,2.3,2c0,0,0,0.1,0,0.1c0.1,0.1,0.1,0.1,0.2,0.1C492.2,246.7,492.6,246.7,493.1,246.7z"/>
	<path fill="#40BFE9" d="M516.1,248.8c0,0.9-0.7,1.6-1.6,1.6c-0.9,0-1.6-0.7-1.6-1.6c0-0.9,0.7-1.6,1.6-1.6
		C515.4,247.2,516.1,247.9,516.1,248.8z M514.6,249.9c0.6,0,1.1-0.5,1.1-1.1c0-0.6-0.5-1.1-1.1-1.1c-0.6,0-1.1,0.5-1.1,1.1
		C513.5,249.4,514,249.9,514.6,249.9z"/>
	<path fill="#FBFDFE" d="M530.1,254.7c-0.7,0-1.3,0-1.9,0c-0.1,0-0.2-0.1-0.3-0.2c-1.2-1.7-2.5-3.5-3.7-5.2c-0.3-0.4-0.6-0.8-1-1.4
		c0.5-0.5,1.1-1,1.6-1.6c0.9-0.9,1.9-1.9,2.8-2.8c0.1-0.1,0.3-0.2,0.5-0.2c0.6,0,1.2,0,1.8,0.1c-1.6,1.5-3.2,3-4.8,4.5
		C526.8,250.2,528.4,252.4,530.1,254.7z"/>
	<path fill="#FBFDFE" d="M541,243.3c-0.1,0.2-0.2,0.3-0.2,0.4c-1.3,2.1-2.6,4.1-3.9,6.2c-0.1,0.1-0.2,0.3-0.2,0.5c0,1.3,0,2.6,0,3.9
		c0,0.1,0,0.2,0,0.4c-0.5,0-0.9,0-1.4,0c-0.1,0-0.1-0.1-0.1-0.2c0-1.4,0-2.8,0-4.3c0-0.1,0-0.2,0.1-0.3c1.3-2.2,2.6-4.3,3.8-6.5
		c0-0.1,0.2-0.2,0.2-0.2C539.9,243.3,540.4,243.3,541,243.3z"/>
	<path fill="#FCFDFE" d="M521.2,243.3c0.5,0,0.9,0,1.3,0c0.1,0,0.1,0.1,0.2,0.2c0,0,0,0.1,0,0.2c0,3.5,0,7.1,0,10.6
		c0,0.1,0,0.2,0,0.3c-0.5,0-1,0-1.5,0C521.2,250.9,521.2,247.1,521.2,243.3z"/>
	<path fill="#FBFDFE" d="M530.9,243.3c0.6,0,1.1,0,1.6,0c0.1,0,0.2,0.1,0.3,0.2c0.9,1.4,1.7,2.9,2.6,4.3c0,0.1,0.1,0.2,0,0.3
		c-0.2,0.4-0.5,0.8-0.8,1.2C533.4,247.3,532.1,245.4,530.9,243.3z"/>
	<path fill="#FBFDFE" d="M487,262c0.6,0,1.2,0,1.9,0c0.4,0,0.9-0.1,1.3-0.2c0.8-0.2,1.1-0.8,1.1-1.8c0-0.7-0.4-1.3-1.2-1.4
		c-0.4-0.1-0.9-0.1-1.3-0.1c-0.6,0-1.1,0-1.7,0c0-0.4,0-0.8,0-1.2c0,0,0,0,0.1,0c1.1,0,2.3,0,3.4,0.1c1.7,0.3,2.6,1.9,2.2,3.5
		c-0.1,0.5-0.4,1-0.9,1.3c-0.1,0.1-0.3,0.2-0.5,0.3c0.1,0.1,0.2,0.1,0.3,0.1c1.6,0.7,2.2,2.4,1.5,4c-0.5,1.2-1.5,1.8-2.7,1.9
		c-1.1,0.1-2.2,0.1-3.2,0.1c0-0.5,0-0.9,0-1.4c0.1,0,0.2,0,0.3,0c0.9,0,1.8,0,2.6-0.1c1.3-0.1,2-1.3,1.7-2.6c-0.1-0.5-0.4-0.9-0.9-1
		c-0.5-0.2-1-0.3-1.5-0.3c-0.6-0.1-1.3,0-1.9,0c-0.1,0-0.2,0-0.3,0C487,262.8,487,262.4,487,262z"/>
	<path fill="#F9FCFE" d="M486.5,257.2c0,3.8,0,7.6,0,11.4c-0.5,0-1,0-1.5,0c0-0.1,0-0.2,0-0.3c0-3.6,0-7.1,0-10.7
		c0-0.3,0.1-0.4,0.4-0.4C485.7,257.2,486.1,257.2,486.5,257.2z"/>
	<path fill="#D5A934" d="M487,266.8c0-1,0-2,0-3.1c1.1,0.1,2.1,0,3.2,0.2c0.8,0.1,1.1,0.6,1.1,1.3c0,0.8-0.4,1.3-1.1,1.5
		c-0.2,0-0.3,0.1-0.5,0.1C488.8,266.8,487.9,266.8,487,266.8z"/>
	<path fill="#D3A936" d="M487,261.5c0-0.8,0-1.6,0-2.4c0-0.1,0.1-0.1,0.2-0.1c0.8,0,1.6,0,2.4,0.1c0.9,0.1,1.3,0.6,1.1,1.7
		c-0.1,0.3-0.3,0.6-0.6,0.7c-0.3,0.1-0.5,0.1-0.8,0.2c-0.7,0-1.3,0-2,0C487.1,261.6,487.1,261.5,487,261.5z"/>
	<path fill="#FCFDFE" d="M519.1,246.8c-0.5,0-0.9,0-1.3,0c-0.1,0-0.2-0.1-0.2-0.2c-0.2-0.4-0.4-0.9-0.7-1.2c-0.7-0.9-1.8-1-2.8-0.9
		c-1.3,0.1-2.3,0.8-2.8,2.1c-0.6,1.6-0.7,3.3-0.1,4.9c0.6,1.8,2.3,2.7,4.2,2.2c0.8-0.2,1.5-0.8,1.8-1.5c0.2-0.4,0.3-0.8,0.5-1.3
		c0-0.1,0.1-0.2,0.2-0.2c0.4,0,0.9,0,1.4,0c-0.1,0.4-0.2,0.8-0.3,1.2c-0.7,2.2-2.7,3.5-5,3.3c-2.5-0.2-4.2-1.8-4.6-4.3
		c-0.2-1.2-0.2-2.5,0.1-3.7c0.7-2.8,3-4.3,5.9-3.9c1.8,0.3,3.2,1.4,3.6,3.1C519,246.4,519,246.5,519.1,246.8z"/>
	<path fill="#FCFDFE" d="M524.8,268.6c-0.5,0-1,0-1.4,0c-0.1,0-0.1-0.1-0.2-0.2c0-0.1,0-0.1,0-0.2c0-3.5,0-7.1,0-10.6
		c0-0.1,0-0.2,0-0.3c0.1,0,0.2,0,0.3,0c1.6,0,3.2,0,4.8,0c0.2,0,0.3,0.1,0.3,0.3c0,0.2,0,0.5,0,0.7c0,0.2-0.1,0.3-0.3,0.3
		c-1,0-2.1,0-3.1,0c-0.1,0-0.2,0-0.4,0C524.8,261.9,524.8,265.2,524.8,268.6z"/>
	<path fill="#FDFEFE" d="M519.4,258.5c0-0.4,0-0.9,0-1.3c1,0,2,0,3,0c0,0.4,0,0.8,0,1.3C521.4,258.5,520.4,258.5,519.4,258.5z"/>
	<path fill="#FBFDFE" d="M503.9,244.7c-0.1,0-0.2,0-0.4,0c-1,0-2,0-3,0c-0.4,0-0.4,0-0.4,0.4c0,3.1,0,6.1,0,9.2c0,0.1,0,0.3,0,0.4
		c-0.5,0-0.9,0-1.4,0c-0.1,0-0.1-0.1-0.1-0.2c0-0.1,0-0.2,0-0.2c0-3.5,0-7,0-10.6c0-0.1,0-0.3,0-0.4c1.8,0,3.6,0,5.4,0
		C503.9,243.8,503.9,244.2,503.9,244.7z"/>
	<path fill="#FCFDFE" d="M494.7,243.3c1,0,2,0,3,0c0,0.4,0,0.9,0,1.3c-0.1,0-0.2,0-0.3,0c-0.8,0-1.6,0-2.4,0c-0.2,0-0.3-0.1-0.3-0.3
		C494.7,244.1,494.7,243.7,494.7,243.3z"/>
	<path fill="#FBFDFE" d="M530.2,261.6c1,0.1,2-0.1,3,0.2c0.8,0.3,1.7,0.4,2.6,0.6c0.2,0.1,0.5,0.1,0.7,0.2c1.2,0.5,1.8,1.3,1.9,2.6
		c0,1.3-0.3,2.3-1.5,3c-1.5,0.8-3.1,0.9-4.8,0.4c-1.6-0.5-2.5-1.9-2.5-3.5c0-0.1,0-0.1,0-0.2c0.4,0,0.9,0,1.3,0
		c0.1,0,0.1,0.1,0.1,0.1c0,0.1,0,0.3,0.1,0.4c0.2,1.2,0.9,1.9,2.1,2.1c0.9,0.2,1.7,0.1,2.5-0.2c0.9-0.4,1.3-1,1.2-2
		c-0.1-0.5-0.3-0.9-0.8-1.1c-0.7-0.3-1.4-0.5-2.1-0.7c-0.7-0.2-1.4-0.3-2.1-0.6c-0.4-0.2-0.8-0.4-1.2-0.7
		C530.4,262.1,530.3,261.9,530.2,261.6C530.1,261.7,530.2,261.6,530.2,261.6z"/>
	<path fill="#FBFDFE" d="M485.2,247.7c1,0.1,2-0.1,2.9,0.2c0.8,0.3,1.7,0.4,2.5,0.6c0.2,0.1,0.5,0.1,0.7,0.2
		c1.6,0.5,2.3,1.7,2.1,3.3c-0.1,1.2-0.7,2-1.9,2.5c-1.5,0.6-3,0.7-4.5,0.2c-1.5-0.5-2.4-1.9-2.4-3.4c0-0.2,0.1-0.3,0.3-0.3
		c0.3,0,0.6,0,1,0c0.2,0,0.2,0.1,0.3,0.2c0.2,1.5,1.1,2.4,2.6,2.4c0.7,0,1.4,0,2.1-0.3c1-0.4,1.4-1.3,1.1-2.3
		c-0.1-0.4-0.3-0.7-0.7-0.8c-0.6-0.2-1.1-0.4-1.7-0.6c-0.9-0.3-1.9-0.5-2.8-0.8C485.9,248.7,485.5,248.3,485.2,247.7z"/>
	<path fill="#FCFDFE" d="M505,266.6c-0.3-0.4-0.7-0.7-1-1c-0.1-0.1-0.1-0.3,0-0.4c0.5-1.3,0.6-2.6,0.3-4c-0.7-3-4.1-4-6.4-2
		c0,0-0.1,0.1-0.1,0.1c-0.4-0.4-0.7-0.7-1.1-1.1c0.6-0.6,1.4-1,2.3-1.2c1.2-0.3,2.4-0.2,3.6,0.2c1.3,0.4,2.2,1.2,2.7,2.4
		c1,2.2,0.9,4.5-0.2,6.7C505.1,266.4,505.1,266.5,505,266.6z"/>
	<path fill="#FBFDFE" d="M510.3,259.3c-0.4-0.4-0.7-0.7-1.1-1.1c0.2-0.2,0.5-0.4,0.8-0.6c1.8-1.1,4.7-1,6.4,0.2c1.1,0.8,1.8,2,2,3.4
		c0.3,1.7,0.2,3.3-0.6,4.9c-0.1,0.1-0.1,0.2-0.2,0.3c0,0-0.1,0.1-0.1,0.1c-0.3-0.3-0.7-0.7-1-1c-0.1-0.1,0-0.2,0-0.3
		c0.5-1.4,0.7-2.7,0.3-4.1c-0.8-2.8-4.1-3.8-6.3-1.9C510.4,259.3,510.4,259.3,510.3,259.3z"/>
	<path fill="#FCFDFE" d="M495.8,259.5c0.4,0.4,0.7,0.7,1,1.1c0.1,0.1,0.1,0.2,0,0.3c-0.3,1.2-0.4,2.4-0.1,3.6c0.5,2.2,2,3.2,4.2,3
		c0.9-0.1,1.2-0.2,2.1-0.8c0.1,0.2,0.3,0.3,0.4,0.5c0.1,0.2,0.3,0.3,0.6,0.5c-0.1,0.1-0.2,0.1-0.2,0.1c-1.7,1.4-5.4,1.5-7.3-0.5
		c-0.8-0.8-1.2-1.9-1.4-3c-0.3-1.6-0.2-3.1,0.5-4.5c0-0.1,0.1-0.2,0.1-0.2C495.7,259.6,495.7,259.6,495.8,259.5z"/>
	<path fill="#FBFDFE" d="M508.3,259.6c0.4,0.4,0.7,0.7,1.1,1.1c0,0.1,0,0.2,0,0.3c-0.4,1.4-0.4,2.8,0.1,4.2c0.5,1.5,1.6,2.2,3.2,2.4
		c1,0.1,2,0,2.9-0.7c0.3,0.3,0.6,0.6,1,1c-0.1,0-0.1,0.1-0.2,0.2c-1.3,0.9-2.7,1.1-4.2,0.9c-2.4-0.3-4-1.9-4.4-4.4
		c-0.3-1.5-0.2-3,0.5-4.4c0-0.1,0.1-0.2,0.2-0.3C508.2,259.7,508.3,259.6,508.3,259.6z"/>
	<path fill="#FAFDFE" d="M505.7,243.3c0.5,0,1,0,1.5,0c0,0.1,0,0.2,0,0.4c0,3.6,0,7.1,0,10.7c0,0.3-0.1,0.4-0.3,0.4
		c-0.3,0-0.7,0-1,0c-0.2,0-0.2-0.1-0.2-0.2c0-0.1,0-0.1,0-0.2c0-3.5,0-7,0-10.5C505.7,243.6,505.7,243.5,505.7,243.3z"/>
	<path fill="#FAFDFE" d="M530.5,258.5c0.4-0.6,0.9-1,1.5-1.2c1.5-0.5,3.1-0.5,4.5,0.3c1.2,0.6,1.5,1.7,1.5,3c-0.5,0-0.9,0-1.4,0
		c0,0-0.1-0.1-0.1-0.1c0,0,0-0.1,0-0.1c-0.2-1.2-0.9-1.9-2.1-2c-0.6,0-1.2,0.1-1.8,0.1c-0.2,0-0.4,0-0.6,0
		C531.5,258.5,531,258.5,530.5,258.5z"/>
	<path fill="#FAFDFE" d="M493.1,246.7c-0.5,0-0.9,0-1.3,0c-0.1,0-0.1-0.1-0.2-0.1c0,0,0-0.1,0-0.1c-0.3-1.4-0.9-1.9-2.3-2
		c-0.5,0-1,0.1-1.6,0.1c-0.2,0-0.3,0-0.5,0c-0.6,0-1.1,0-1.7,0c0.1-0.1,0.2-0.3,0.3-0.3c0.6-0.7,1.5-1.1,2.4-1.2
		c1.3-0.1,2.6,0,3.7,0.8C492.8,244.6,493.1,245.5,493.1,246.7z"/>
	
		<ellipse transform="matrix(1 -8.706407e-03 8.706407e-03 1 -2.1466 4.4895)" fill="#FBFDFE" cx="514.6" cy="248.8" rx="1.1" ry="1.1"/>
</g>
</svg>
