<?xml version="1.0" encoding="utf-8"?>
<!-- Generator: Adobe Illustrator 20.1.0, SVG Export Plug-In . SVG Version: 6.00 Build 0)  -->
<svg version="1.1" id="Layer_1" xmlns="http://www.w3.org/2000/svg" xmlns:xlink="http://www.w3.org/1999/xlink" x="0px" y="0px"
	 width="80.7px" height="91.7px" viewBox="0 0 80.7 91.7" enable-background="new 0 0 80.7 91.7" xml:space="preserve">
<g>
	<path fill="#C06A02" d="M40.2,91.2c-1.9-1.1-3.9-2.2-5.8-3.3c-3.1-1.8-6.2-3.6-9.3-5.4c-3.3-1.9-6.6-3.9-9.9-5.8
		c-4.5-2.6-9-5.2-13.6-7.8c-0.5-0.3-0.7-0.6-0.7-1.3c0.1-3.3,0.1-6.6,0.1-9.9C1,54.5,1,51.4,1,48.3c0.1-5.5,0.1-11,0.2-16.5
		c0-2.9,0.1-5.9,0.1-8.8c0-0.3,0.1-0.5,0.4-0.7c3.3-1.8,6.6-3.7,9.9-5.5c3.7-2.1,7.4-4.2,11.1-6.2c3.6-2,7.3-4.1,10.9-6.1
		c2.3-1.3,4.7-2.6,7-3.9C41,1,41,1.5,40.9,2c0,0.6,0.2,0.9,0.7,1.2c3.9,2.3,7.8,4.6,11.7,6.9c3.9,2.3,7.9,4.6,11.8,7
		c4,2.4,8.1,4.8,12.1,7.1c0.5,0.3,0.7,0.6,0.7,1.1c0,2.8,0,5.5,0,8.3c-0.2,10.9,0,21.8-0.1,32.6c0,0.7-0.3,1.1-0.9,1.5
		c-4,2.3-7.9,4.6-11.9,6.9c-4.1,2.4-8.2,4.8-12.4,7.2c-3.9,2.2-7.7,4.5-11.6,6.7c-0.5,0.3-0.7,0.6-0.6,1.1c0,0.4-0.1,0.9-0.1,1.3
		C40.4,91,40.3,91.1,40.2,91.2z"/>
	<path fill="#9B5401" d="M40.2,91.2c0-0.7,0.1-1.3,0.1-2c0-0.3,0.1-0.6,0.4-0.8c2.7-1.5,5.3-3.1,8-4.6c1.9-1.1,3.7-2.2,5.6-3.3
		c2.2-1.3,4.5-2.6,6.7-3.9c1.9-1.1,3.9-2.3,5.8-3.4c2-1.2,4.1-2.4,6.1-3.5c1.5-0.8,2.9-1.7,4.4-2.5c0.3-0.2,0.2-0.4,0.2-0.6
		c0-5.4,0-10.9,0-16.3c0-4.8-0.1-9.5,0-14.3c0.1-3.6,0-7.2,0.1-10.8c0-0.4-0.1-0.7-0.5-0.9c-3.3-2-6.7-3.9-10-5.9
		c-2.9-1.7-5.9-3.5-8.8-5.2c-3.4-2-6.8-4-10.2-6c-2.3-1.4-4.6-2.7-7-4.1c-0.3-0.2-0.5-0.4-0.5-0.8c0-0.6,0-1.2-0.1-1.7
		c0.2-0.3,0.4-0.1,0.7,0c2.4,1.4,4.7,2.8,7.1,4.2c3.3,1.9,6.6,3.9,9.9,5.8c3.4,2,6.7,4,10.1,5.9c3.7,2.2,7.4,4.4,11.1,6.6
		c0.3,0.2,0.4,0.3,0.4,0.6c0,7.8,0,15.7,0,23.5c0,7,0,13.9,0,20.9c0,0.3-0.1,0.4-0.3,0.6c-3.9,2.3-7.8,4.5-11.8,6.8
		c-4.5,2.6-8.9,5.2-13.4,7.8c-3.8,2.2-7.6,4.4-11.4,6.7c-0.7,0.4-1.5,0.8-2.2,1.3C40.5,91.4,40.4,91.4,40.2,91.2z"/>
	<path fill="#A55901" d="M72.9,26.6c0.5,0.1,0.6,0.5,0.6,1c0,12.2,0,24.3,0,36.5c0,0.3,0,0.6-0.4,0.7c-0.2-0.1-0.5-0.1-0.8-0.1
		c-0.2,0-0.5-0.1-0.6-0.3c-0.1-0.2-0.3-0.2-0.5-0.2c-0.4,0-0.6-0.1-0.7-0.5c-0.5,0.3-0.5,0.3-0.6-0.3c0-0.2,0-0.4,0-0.6
		c0.1-6.1,0-12.3,0-18.4c0-4,0-8.1,0-12.1c0-0.3,0-0.6,0-0.9c0.2-0.8,0.1-1.7,0.1-2.5c-0.1-0.8,0.6-1.5,1.4-1.4c0.1,0,0.3,0,0.3-0.1
		c0.2-0.5,0.5-0.6,1-0.6C72.8,26.7,72.8,26.6,72.9,26.6z"/>
	<path fill="#995201" d="M72.9,26.6c0,0.2,0,0.5-0.4,0.3c-0.4-0.2-0.6,0.1-0.6,0.3c-0.1,0.4-0.2,0.5-0.6,0.3
		c-0.3-0.1-0.5-0.1-0.7,0.3c0,0.1-0.1,0.2-0.2,0.2c-0.3,0.2-0.3,0.4-0.3,0.8c0.1,0.8,0.1,1.6,0,2.4C69.9,31,70,30.6,70,30.4
		c0.1-0.9-0.2-1.5-1.1-2c-3.6-2.1-7.2-4.2-10.8-6.3c-2.4-1.4-4.9-2.9-7.3-4.3c-1.8-1.1-3.6-2.2-5.4-3.2c-1.4-0.8-2.8-1.7-4.2-2.5
		c-0.1-0.1-0.3-0.2-0.4-0.3c-0.2-0.3-0.1-0.7-0.1-1c0-0.9,0.1-1.9,0-2.8c0.1-0.2,0.3-0.2,0.5-0.1c2.2,1.3,4.4,2.6,6.5,3.9
		c3,1.8,6.1,3.6,9.1,5.4c2.5,1.4,4.9,2.9,7.4,4.4c2.5,1.5,5.1,3,7.6,4.5C72.2,26.2,72.6,26.4,72.9,26.6z"/>
	<path fill="#7C4100" d="M40.8,8C41,8.1,41.1,8.2,41,8.4c-0.1,1-0.1,1.9-0.1,2.9c0,0.2,0,0.3,0.1,0.4c-1.1,0.7-2.2,1.3-3.3,1.9
		c-1.8,1-3.6,2-5.5,3c-2.6,1.5-5.3,3-7.9,4.5c-3.3,1.9-6.7,3.7-10,5.6c-1,0.6-2.1,1.1-3.1,1.7c-0.1,0-0.2,0-0.3-0.1
		c-0.7-0.5-1.5-0.9-2.2-1.4c-0.3-0.2-0.5-0.4-0.6-0.6c0.7-0.7,1.7-1,2.5-1.5c1.6-0.9,3.1-1.8,4.7-2.7c2-1.1,4.1-2.2,6.1-3.4
		c2.3-1.3,4.6-2.6,7-3.9c1.7-1,3.4-1.9,5.1-2.9c2.3-1.3,4.6-2.6,6.9-3.9C40.5,8.1,40.7,8.1,40.8,8z"/>
	<path fill="#995201" d="M70,62.9c0,0.3,0.2,0.5,0.1,0.9c0.1-0.1,0.1-0.2,0.3-0.3c0.1-0.1,0.3-0.1,0.3,0c0,0.7,0.5,0.4,0.8,0.5
		c0.2,0.1,0.3,0,0.3,0.2c0.2,0.4,0.6,0.2,0.9,0.3c0.1,0.1,0.3,0,0.4,0.2c-1.7,1-3.4,2-5.1,3c-1.4,0.8-2.9,1.7-4.3,2.5
		c-1.9,1.1-3.8,2.2-5.7,3.3c-2.1,1.2-4.1,2.4-6.2,3.6c-1.8,1-3.5,2-5.3,3c-1.4,0.8-2.7,1.6-4.1,2.4c-0.6,0.3-1.1,0.8-1.8,0.9
		c-0.2-0.2-0.2-0.4-0.2-0.6c0-0.8,0-1.7,0-2.5c0-0.2,0-0.4,0.2-0.6c0.8-0.7,1.8-1.1,2.7-1.6c2.5-1.4,4.9-2.9,7.4-4.3
		c2.9-1.7,5.8-3.3,8.7-5c2.1-1.2,4.2-2.4,6.2-3.6c1.3-0.8,2.6-1.5,3.9-2.2C69.7,62.9,69.8,62.8,70,62.9z"/>
	<path fill="#693600" d="M8.1,26.4c1,0.8,2.1,1.3,3.1,2.1c0.2,0.2,0.2,0.5,0.2,0.8c0,2.6,0,5.2-0.1,7.8c-0.1,2.9,0,5.8,0,8.7
		c-0.1,4.1,0,8.2-0.1,12.3c0,1.4-0.1,2.9-0.1,4.3c0,0.2-0.1,0.3-0.3,0.3c-0.8,0.5-1.7,0.9-2.5,1.4c-0.2,0.1-0.4,0.1-0.5-0.1
		c0-1.5,0-3,0.1-4.4c0.1-2.5,0-5,0-7.5c0.1-4.5,0-9,0.1-13.5c0.1-2.9,0-5.9,0.1-8.8c0.1-0.8,0-1.6,0-2.4c0-0.2,0-0.4,0-0.6
		C8.1,26.7,8.1,26.5,8.1,26.4z"/>
	<path fill="#7B4100" d="M7.7,64.1c0.2,0.1,0.4,0.2,0.6-0.1c0.1-0.2,0.4-0.2,0.6-0.3c0.7-0.3,1.3-0.8,2-1.1c0.6,0.1,1.1,0.5,1.6,0.8
		c3.3,1.9,6.6,3.8,9.9,5.8c4.2,2.5,8.5,4.9,12.7,7.4c1.6,1,3.3,1.9,5,2.9c0.2,0.1,0.4,0.1,0.6,0.3c-0.3,0.3-0.1,0.7-0.1,1
		c0,0.9,0,1.8,0,2.7c-0.8-0.3-1.6-0.9-2.3-1.3c-2.4-1.4-4.7-2.7-7.1-4.1c-2.3-1.4-4.7-2.7-7-4.1c-2.6-1.5-5.2-3-7.8-4.5
		c-2.3-1.4-4.7-2.7-7-4.1c-0.4-0.3-0.9-0.5-1.3-0.8C7.8,64.5,7.7,64.4,7.7,64.1z"/>
	<path fill="#7C4100" d="M8.1,26.8c0,0.9,0,1.7,0,2.6c0,0.1,0,0.3-0.1,0.4c0-0.9,0-1.8,0-2.7C8,27,8,26.9,8.1,26.8z"/>
	<path fill="#131313" d="M40.7,79.8c-0.5,0-0.8-0.3-1.1-0.5c-2-1.1-4-2.3-5.9-3.4c-3.2-1.9-6.4-3.7-9.6-5.6
		c-2.7-1.6-5.4-3.1-8.1-4.7c-1.7-1-3.3-2-5-3C11,58.1,10.9,53.5,11,49c0.1-3.5,0-6.9,0.1-10.4c0.1-3.4,0.1-6.7,0.1-10.1
		c0.7-0.6,1.5-0.9,2.3-1.4c2.2-1.2,4.3-2.5,6.5-3.7c1.6-0.9,3.3-1.8,4.9-2.8c2-1.1,4-2.3,6-3.4c1.6-0.9,3.2-1.8,4.8-2.6
		c1.5-0.8,3-1.7,4.5-2.6c0.2-0.1,0.4-0.3,0.7-0.3c2.7,1.6,5.5,3.2,8.2,4.8c4.2,2.5,8.4,4.9,12.5,7.4c2.2,1.3,4.4,2.6,6.7,3.9
		c0.5,0.3,0.9,0.6,1.4,0.8c0.2,0.1,0.2,0.3,0.2,0.5c0,0.6,0,1.3,0,1.9c0,4.1,0,8.3,0,12.4c0,6,0,12,0,18c0,0.4,0.1,0.8-0.1,1.2
		c-1.2,0.7-2.4,1.4-3.7,2.1c-3.8,2.2-7.6,4.3-11.4,6.5c-4.1,2.4-8.2,4.8-12.4,7.2C42,79.1,41.3,79.5,40.7,79.8z"/>
	<path fill="#00BFFE" d="M52.4,63.7c-0.1-0.1-0.1-0.2-0.2-0.3c-3.5-3.5-7.1-7.1-10.6-10.6c-0.5-0.5-0.5-0.4-1,0
		c-2.1,1.8-3.9,3.8-5.9,5.8c-1.6,1.6-3.3,3.2-4.9,4.9c-0.3,0.3-0.4,0.2-0.6,0c-1.9-1.9-3.7-3.8-5.6-5.6c-0.3-0.3-0.3-0.6,0-0.9
		c3.6-3.6,7.1-7.1,10.7-10.7c0.3-0.3,0.3-0.4,0-0.7c-3.6-3.6-7.2-7.2-10.8-10.8c-0.3-0.3-0.2-0.4,0-0.6c1.9-1.9,3.8-3.8,5.7-5.7
		c0.2-0.2,0.4-0.2,0.6,0c3.8,3.5,7.2,7.2,10.9,10.8c0.3,0.3,0.4,0.2,0.6,0c3.5-3.5,7-7,10.5-10.5c0.6-0.6,0.6-0.6,1.2,0
		c1.8,1.8,3.6,3.6,5.4,5.4c0.3,0.3,0.3,0.4,0,0.7c-3.6,3.6-7.2,7.2-10.8,10.8c-0.2,0.2-0.2,0.3,0,0.5c3.5,3.5,7.1,7.1,10.6,10.6
		c0.1,0.1,0.2,0.2,0.4,0.4c0.2,0.2,0.2,0.4,0,0.6c-2,2-3.9,3.9-5.9,5.9C52.6,63.5,52.6,63.6,52.4,63.7z"/>
</g>
</svg>
