<?xml version="1.0" encoding="utf-8"?>
<!-- Generator: Adobe Illustrator 20.1.0, SVG Export Plug-In . SVG Version: 6.00 Build 0)  -->
<svg version="1.1" id="Layer_1" xmlns="http://www.w3.org/2000/svg" xmlns:xlink="http://www.w3.org/1999/xlink" x="0px" y="0px"
	 width="25.61px" height="25.61px" viewBox="0 0 25.61 25.61" enable-background="new 0 0 25.61 25.61" xml:space="preserve">
<g>
	<path fill="#00BFFE" d="M14.755,25.605c-1.333,0-2.667,0-4,0c-0.183-0.173-0.158-0.416-0.194-0.63
		c-0.155-0.918-0.309-1.835-0.459-2.754c-0.024-0.148-0.079-0.249-0.225-0.296c-0.516-0.164-1.02-0.36-1.494-0.624
		c-0.137-0.076-0.24-0.005-0.343,0.067c-0.746,0.516-1.49,1.034-2.228,1.562c-0.149,0.107-0.3,0.211-0.455,0.307
		c-0.208,0.129-0.345,0.118-0.508-0.065c-0.755-0.846-1.593-1.61-2.382-2.422c-0.255-0.262-0.261-0.344-0.05-0.643
		c0.58-0.823,1.162-1.644,1.758-2.456c0.14-0.19,0.166-0.353,0.048-0.569c-0.21-0.388-0.387-0.796-0.505-1.221
		C3.646,15.603,3.503,15.5,3.253,15.46c-0.968-0.154-1.93-0.345-2.898-0.506c-0.139-0.023-0.284-0.046-0.351-0.2
		c0-1.333,0-2.667,0-4c0.102-0.117,0.244-0.132,0.384-0.153c0.993-0.15,1.983-0.326,2.974-0.489
		c0.188-0.031,0.274-0.121,0.326-0.288c0.14-0.454,0.317-0.895,0.541-1.313C4.345,8.296,4.318,8.136,4.18,7.944
		C3.604,7.14,3.037,6.329,2.477,5.513C2.204,5.117,2.213,5.068,2.548,4.731c0.764-0.767,1.527-1.534,2.297-2.295
		C5.09,2.194,5.194,2.192,5.471,2.39C6.304,2.983,7.14,3.572,7.965,4.176C8.148,4.31,8.301,4.352,8.528,4.23
		c0.394-0.212,0.81-0.391,1.245-0.507c0.221-0.059,0.334-0.176,0.363-0.407c0.11-0.882,0.286-1.753,0.419-2.632
		c0.035-0.231,0.01-0.489,0.199-0.679c1.333,0,2.667,0,4,0c0.145,0.06,0.175,0.196,0.196,0.326c0.156,0.993,0.354,1.978,0.512,2.971
		c0.037,0.23,0.127,0.372,0.366,0.438c0.467,0.128,0.906,0.332,1.334,0.554c0.141,0.073,0.242,0.052,0.364-0.034
		c0.769-0.54,1.527-1.096,2.29-1.644c0.128-0.092,0.26-0.18,0.388-0.272c0.155-0.111,0.311-0.104,0.451,0.035
		c0.852,0.844,1.7,1.692,2.543,2.544c0.149,0.151,0.127,0.306,0.016,0.473c-0.398,0.594-0.824,1.169-1.23,1.758
		c-0.212,0.308-0.429,0.613-0.643,0.921c-0.092,0.132-0.108,0.249-0.032,0.392c0.234,0.442,0.418,0.906,0.57,1.383
		c0.047,0.148,0.124,0.234,0.292,0.26c1.009,0.158,2.015,0.334,3.024,0.491c0.148,0.023,0.299,0.033,0.409,0.155
		c0,1.333,0,2.667,0,4c-0.067,0.154-0.212,0.177-0.351,0.2c-0.999,0.166-1.994,0.357-2.995,0.516
		c-0.211,0.033-0.337,0.125-0.4,0.341c-0.128,0.439-0.298,0.866-0.518,1.268c-0.101,0.185-0.091,0.337,0.035,0.504
		c0.607,0.802,1.174,1.634,1.775,2.441c0.269,0.362,0.26,0.458-0.065,0.783c-0.601,0.6-1.202,1.2-1.801,1.802
		c-0.17,0.171-0.306,0.372-0.486,0.536c-0.241,0.219-0.342,0.239-0.612,0.05c-0.853-0.594-1.706-1.188-2.553-1.791
		c-0.205-0.146-0.358-0.154-0.583-0.034c-0.41,0.219-0.843,0.397-1.291,0.528c-0.152,0.045-0.231,0.125-0.262,0.289
		c-0.186,1.004-0.36,2.011-0.538,3.016C14.933,25.36,14.926,25.524,14.755,25.605z"/>
	<path d="M12.81,9.255c1.908-0.024,3.623,1.609,3.548,3.692c-0.064,1.779-1.587,3.486-3.708,3.409
		c-1.767-0.064-3.482-1.583-3.396-3.719C9.327,10.852,10.836,9.243,12.81,9.255z"/>
</g>
</svg>
