<?xml version="1.0" encoding="utf-8"?>
<!-- Generator: Adobe Illustrator 20.1.0, SVG Export Plug-In . SVG Version: 6.00 Build 0)  -->
<svg version="1.1" id="Layer_1" xmlns="http://www.w3.org/2000/svg" xmlns:xlink="http://www.w3.org/1999/xlink" x="0px" y="0px"
	 width="137.5px" height="22.925px" viewBox="0 0 137.5 22.925" enable-background="new 0 0 137.5 22.925" xml:space="preserve">
<g>
	<path fill="#6E6E6E" d="M1.101,17.137c-0.061-0.081-0.04-0.176-0.04-0.266c0-3.583,0.003-7.166-0.001-10.749
		c0-0.21,0.071-0.326,0.253-0.431c3.044-1.759,6.085-3.522,9.119-5.298c0.244-0.143,0.474-0.196,0.746-0.196
		c38.455,0.003,76.91,0.003,115.365,0.003c0.067,0,0.133,0.003,0.2-0.001c0.151-0.007,0.268,0.022,0.395,0.138
		c0.168,0.154,0.392,0.249,0.593,0.367c2.906,1.714,5.812,3.428,8.719,5.141c0.12,0.071,0.21,0.136,0.209,0.302
		c-0.008,1.333-0.006,2.666-0.008,4c0,0.017-0.004,0.033-0.006,0.05c-0.133,0.009-0.141-0.092-0.156-0.181
		c-0.018-0.107-0.013-0.216-0.013-0.324c-0.001-0.983,0.001-1.966-0.001-2.95c-0.001-0.378-0.018-0.393-0.393-0.374
		c-0.182-0.044-0.334-0.15-0.49-0.243c-2.684-1.599-5.386-3.167-8.067-4.771c-0.391-0.234-0.791-0.339-1.252-0.339
		C88.007,1.024,49.742,1.024,11.477,1.018c-0.433,0-0.81,0.093-1.182,0.313C8.565,2.352,6.826,3.354,5.087,4.358
		C4.163,4.891,3.251,5.445,2.313,5.95C1.921,6.161,1.762,6.432,1.765,6.885c0.018,2.55,0.009,5.1,0.008,7.65
		c0,0.142,0.007,0.284-0.013,0.424c-0.014,0.101-0.027,0.209-0.172,0.201c-0.094-0.054-0.097-0.149-0.105-0.24
		c-0.011-0.141-0.007-0.283-0.007-0.425c0-2.557,0-5.114-0.001-7.671c0-0.133,0.01-0.267-0.029-0.397
		C1.43,6.371,1.404,6.309,1.335,6.31c-0.073,0-0.089,0.066-0.099,0.124C1.217,6.541,1.224,6.649,1.224,6.758
		c0,3.24,0,6.48-0.001,9.72c0,0.198,0.011,0.397-0.063,0.587C1.147,17.094,1.127,17.118,1.101,17.137z"/>
	<path fill="#6D6D6D" d="M1.101,17.137c0.002-0.013,0.003-0.026,0.005-0.039c0.131-0.216,0.309-0.358,0.574-0.364
		c0.466,0.226,0.9,0.508,1.344,0.771c1.85,1.095,3.702,2.186,5.554,3.277c0.639,0.376,1.264,0.775,1.914,1.133
		c0.188,0.104,0.381,0.163,0.595,0.161c0.167-0.002,0.333,0,0.5,0c38.166,0,76.332-0.001,114.498,0.01
		c0.576,0,1.068-0.136,1.556-0.425c2.25-1.334,4.518-2.637,6.781-3.95c0.425-0.247,0.845-0.502,1.276-0.739
		c0.124-0.068,0.244-0.147,0.393-0.146c0.372,0.023,0.386,0.012,0.386-0.376c0.001-1.872,0-3.743,0.001-5.615
		c0-0.133-0.006-0.267,0.013-0.399c0.013-0.091,0.025-0.188,0.155-0.184c0.003,0.491,0.009,0.983,0.01,1.474
		c0.001,1.75-0.006,3.5,0.005,5.25c0.001,0.227-0.081,0.34-0.267,0.447c-2.827,1.636-5.65,3.278-8.473,4.918
		c-0.274,0.159-0.549,0.316-0.819,0.481c-0.076,0.046-0.148,0.065-0.235,0.063c-0.15-0.005-0.3-0.003-0.45-0.003
		c-38.383,0-76.765,0-115.148,0c-0.083,0-0.167-0.004-0.25,0.001c-0.172,0.011-0.31-0.04-0.459-0.139
		c-0.366-0.245-0.754-0.459-1.135-0.683c-2.713-1.6-5.426-3.199-8.138-4.799C1.222,17.225,1.162,17.179,1.101,17.137z"/>
	<path fill="#6B6B6B" d="M136.644,10.252c-0.062,0.117-0.044,0.244-0.044,0.368c-0.001,2.066,0,4.133-0.002,6.199
		c0,0.104,0.052,0.247-0.047,0.303c-0.103,0.058-0.185-0.077-0.278-0.124c-0.059-0.03-0.116-0.065-0.174-0.098
		c-0.091-0.053-0.108-0.141-0.115-0.235c-0.007-0.091-0.008-0.183-0.008-0.274c-0.001-3.195-0.002-6.389,0.003-9.584
		c0-0.173-0.061-0.372,0.121-0.506c0.108-0.062,0.213-0.132,0.326-0.184c0.113-0.052,0.155-0.025,0.169,0.093
		c0.009,0.074,0.005,0.15,0.005,0.224c0,1.14,0,2.281,0.001,3.421c0,0.116-0.015,0.234,0.045,0.342
		C136.645,10.216,136.645,10.234,136.644,10.252z"/>
	<path fill="#797979" d="M136.1,6.3c0,3.533-0.001,7.067-0.001,10.6c-0.401,0.188-0.767,0.436-1.15,0.655
		c-0.939,0.538-1.875,1.082-2.811,1.626c-1.497,0.871-2.993,1.744-4.49,2.615c-0.086,0.05-0.188,0.079-0.264,0.141
		c-0.307,0.247-0.659,0.267-1.035,0.267C88.014,22.2,49.678,22.2,11.342,22.2c-0.631,0-0.631,0-1.168-0.319
		c-1.095-0.651-2.188-1.305-3.285-1.953c-0.839-0.495-1.684-0.98-2.524-1.474c-0.732-0.431-1.459-0.869-2.189-1.303
		C1.982,17.036,1.782,16.933,1.6,16.8c-0.108-0.053-0.113-0.157-0.116-0.255c-0.014-0.379-0.014-0.759,0-1.139
		c0.004-0.098,0.008-0.202,0.116-0.255c0.068-0.115,0.049-0.243,0.049-0.367c0.001-2.716,0.006-5.433-0.006-8.149
		c-0.001-0.315,0.092-0.498,0.37-0.653c1.061-0.593,2.109-1.21,3.161-1.82c1.095-0.635,2.187-1.274,3.281-1.911
		c0.734-0.427,1.469-0.852,2.202-1.28c0.075-0.044,0.151-0.068,0.236-0.069c0.083-0.001,0.167-0.001,0.25-0.001
		c38.489,0,76.978,0,115.467-0.003c0.25,0,0.462,0.054,0.68,0.186c0.754,0.458,1.525,0.888,2.286,1.337
		c0.825,0.486,1.637,0.994,2.468,1.468c0.998,0.57,1.976,1.173,2.972,1.747C135.383,5.848,135.758,6.048,136.1,6.3z"/>
	<path fill="#6B6B6B" d="M1.6,15.15c0,0.55,0,1.099,0,1.649c-0.136,0.148-0.32,0.215-0.495,0.298c-0.002-0.1-0.005-0.2-0.005-0.3
		c0-3.498,0-6.996,0-10.494c0-0.075-0.004-0.15,0.003-0.225C1.118,5.931,1.162,5.913,1.3,5.984C1.525,6.098,1.606,6.272,1.605,6.53
		C1.597,9.404,1.6,12.277,1.6,15.15z"/>
	<path fill="#6C6C6C" d="M2.9,6.7c0.668-0.392,1.333-0.788,2.004-1.176c1.225-0.709,2.454-1.412,3.68-2.119
		c0.62-0.358,1.239-0.718,1.858-1.077c0.014-0.008,0.034-0.013,0.043-0.025C10.652,2.068,10.9,2.1,11.14,2.1
		C49.593,2.1,88.045,2.1,126.497,2.095c0.34,0,0.628,0.081,0.917,0.255c1.364,0.818,2.736,1.622,4.106,2.43
		c0.961,0.567,1.923,1.132,2.884,1.7c0.086,0.051,0.164,0.114,0.245,0.171c0.149,0.196,0.136,0.273-0.078,0.363
		c-0.111,0.046-0.201,0.106-0.259,0.212c-0.046,0.084-0.119,0.132-0.209,0.158c-0.158-0.008-0.278-0.106-0.405-0.181
		c-2.155-1.267-4.311-2.53-6.46-3.806c-0.26-0.154-0.528-0.224-0.83-0.223c-2.783,0.005-5.566,0.003-8.349,0.003
		c-35.489,0-70.978,0-106.468,0c-0.183,0-0.367-0.003-0.55,0.003c-0.144,0.004-0.281,0.034-0.405,0.11
		C9.551,3.954,8.435,4.571,7.333,5.211C6.173,5.884,5.018,6.566,3.847,7.22C3.774,7.261,3.703,7.31,3.616,7.317
		c-0.242-0.112-0.451-0.28-0.679-0.416C2.866,6.859,2.871,6.775,2.9,6.7z"/>
	<path fill="#6C6C6C" d="M134.5,16.6c-0.619,0.36-1.238,0.72-1.858,1.079c-1.448,0.84-2.895,1.68-4.344,2.518
		c-0.411,0.238-0.828,0.464-1.238,0.703c-0.128,0.075-0.259,0.107-0.404,0.101c-0.083-0.004-0.167-0.001-0.25-0.001
		c-38.423,0-76.846,0-115.269,0c-0.075,0-0.15-0.003-0.225,0.001c-0.147,0.008-0.265-0.04-0.392-0.123
		c-0.327-0.214-0.673-0.399-1.01-0.598c-1.161-0.686-2.322-1.375-3.483-2.06c-0.861-0.508-1.723-1.014-2.583-1.521
		C3.394,16.669,3.348,16.633,3.3,16.6c-0.03-0.029-0.065-0.051-0.097-0.077c-0.231-0.184-0.234-0.299,0.034-0.434
		c0.171-0.086,0.166-0.311,0.35-0.367c0.137-0.019,0.237,0.066,0.343,0.128c1.834,1.072,3.664,2.151,5.494,3.231
		c0.402,0.237,0.811,0.462,1.196,0.727c0.114,0.078,0.241,0.11,0.377,0.115c0.133,0.005,0.267,0.003,0.4,0.003
		c38.263,0,76.526,0,114.789,0.006c0.469,0,0.873-0.108,1.276-0.344c2.107-1.232,4.225-2.446,6.338-3.668
		c0.106-0.061,0.205-0.147,0.339-0.146c0.215,0.112,0.373,0.302,0.585,0.421c0.098,0.055,0.098,0.161-0.016,0.237
		C134.634,16.482,134.545,16.514,134.5,16.6z"/>
	<path fill="#707070" d="M3.553,15.792c0.007,0.207-0.047,0.36-0.28,0.423c-0.169,0.046-0.174,0.123-0.057,0.266
		C3.247,16.519,3.272,16.56,3.3,16.6c-0.19-0.067-0.349-0.192-0.522-0.29c-0.079-0.045-0.119-0.114-0.123-0.204
		c-0.003-0.066-0.004-0.133-0.004-0.2c0-2.888,0-5.776,0-8.665c0-0.05,0.002-0.1,0.001-0.15C2.648,6.907,2.723,6.771,2.9,6.7
		C3,6.859,3.17,6.913,3.328,6.981C3.452,7.034,3.545,7.1,3.549,7.247C3.682,7.326,3.66,7.458,3.662,7.581
		C3.674,8.237,3.616,8.892,3.62,9.549c0.011,1.919,0.004,3.839,0.002,5.758C3.622,15.47,3.648,15.641,3.553,15.792z"/>
	<path fill="#707070" d="M134.5,16.6c0.017-0.078,0.073-0.122,0.132-0.169c0.094-0.076,0.089-0.116-0.017-0.18
		c-0.055-0.034-0.117-0.06-0.18-0.078c-0.166-0.048-0.244-0.155-0.238-0.326c-0.11-0.078-0.114-0.196-0.117-0.313
		c-0.008-0.25-0.004-0.499-0.004-0.749c0-2.321-0.001-4.642,0.002-6.963c0-0.172-0.028-0.351,0.069-0.512
		c0.023-0.061,0.052-0.121,0.069-0.184c0.039-0.143,0.119-0.216,0.275-0.23c0.18-0.016,0.179-0.03,0.159-0.245
		c0.092,0.018,0.169,0.065,0.247,0.115c0.1,0.063,0.154,0.148,0.152,0.268c-0.001,0.075,0.001,0.15,0.001,0.224
		c0,2.877-0.004,5.754,0.006,8.631c0.001,0.286-0.069,0.481-0.34,0.589C134.64,16.506,134.572,16.558,134.5,16.6z"/>
	<path fill="#2E2E2E" d="M134.147,7.308c0.063,0.097,0.056,0.207,0.056,0.315c-0.002,2.741-0.004,5.482-0.006,8.222
		c-0.477,0.273-0.954,0.545-1.43,0.819c-1.191,0.687-2.38,1.374-3.57,2.062c-0.714,0.412-1.428,0.824-2.141,1.239
		c-0.09,0.052-0.182,0.079-0.284,0.079c-0.1,0-0.2,0.001-0.3,0.001c-38.47,0-76.94,0-115.41,0c-0.083,0-0.167-0.001-0.25,0
		c-0.121,0.002-0.23-0.007-0.294-0.137c-0.038-0.077-0.123-0.109-0.195-0.151c-1.486-0.875-2.972-1.75-4.457-2.625
		c-0.696-0.41-1.391-0.822-2.088-1.232c-0.071-0.042-0.149-0.073-0.224-0.109c-0.06-0.108-0.049-0.226-0.049-0.342
		c0.003-1.805,0.011-3.609,0.009-5.414c-0.001-0.715-0.011-1.429,0.02-2.144c0.009-0.214,0.015-0.431,0.017-0.646
		c0.802-0.461,1.604-0.92,2.405-1.382c1.256-0.724,2.512-1.446,3.764-2.177c0.293-0.171,0.618-0.295,0.858-0.55
		c0.054-0.057,0.133-0.068,0.208-0.073C10.892,3.058,11,3.057,11.108,3.057c38.481,0,76.962,0,115.443-0.004
		c0.252,0,0.466,0.06,0.682,0.189c1.418,0.843,2.841,1.676,4.262,2.513c0.797,0.469,1.592,0.942,2.388,1.412
		C133.97,7.216,134.059,7.261,134.147,7.308z"/>
</g>
</svg>
