<?xml version="1.0" encoding="utf-8"?>
<!-- Generator: Adobe Illustrator 20.1.0, SVG Export Plug-In . SVG Version: 6.00 Build 0)  -->
<svg version="1.1" id="Layer_1" xmlns="http://www.w3.org/2000/svg" xmlns:xlink="http://www.w3.org/1999/xlink" x="0px" y="0px"
	 width="137.5px" height="22.925px" viewBox="0 0 137.5 22.925" enable-background="new 0 0 137.5 22.925" xml:space="preserve">
<g>
	<path fill="#9D5401" d="M1.1,17.136c-0.067-0.05-0.037-0.123-0.037-0.185c0-2.608,0.001-5.216,0.003-7.824
		c0-1.008,0.006-2.016-0.003-3.024C1.06,5.914,1.111,5.805,1.28,5.707c2.953-1.706,5.903-3.419,8.852-5.133
		c0.179-0.104,0.372-0.188,0.528-0.329c0.042-0.038,0.086-0.045,0.137-0.045c0.075,0,0.15,0,0.225,0c38.57,0,77.141,0,115.711,0
		c0.067,0,0.133-0.001,0.2,0c0.033,0.001,0.082-0.008,0.097,0.01c0.27,0.336,0.676,0.47,1.027,0.679
		c2.804,1.666,5.617,3.318,8.425,4.976c0.069,0.041,0.19,0.051,0.164,0.184c-0.208,0.08-0.363,0.288-0.619,0.256
		c-0.936-0.496-1.831-1.062-2.743-1.597c-1.61-0.944-3.215-1.897-4.824-2.843c-0.424-0.249-0.845-0.502-1.27-0.749
		c-0.164-0.095-0.334-0.146-0.523-0.14c-0.092,0.003-0.183,0-0.275,0c-38.365,0-76.73,0-115.096-0.004
		c-0.327,0-0.608,0.066-0.894,0.235C7.633,2.843,4.845,4.447,2.06,6.055C1.809,6.2,1.722,6.371,1.723,6.654
		c0.009,2.6,0.005,5.2,0.005,7.8c0,0.108,0.009,0.218-0.011,0.324c-0.014,0.073,0.001,0.179-0.129,0.166
		c-0.096-0.134-0.066-0.289-0.066-0.436C1.52,11.9,1.52,9.293,1.52,6.685c0-0.133,0.016-0.27-0.035-0.396
		C1.443,6.187,1.365,6.076,1.251,6.096c-0.112,0.02-0.069,0.153-0.069,0.237C1.179,8.074,1.18,9.815,1.18,11.556
		c0,1.725,0.001,3.449-0.002,5.174C1.178,16.869,1.209,17.017,1.1,17.136z"/>
	<path fill="#9C5502" d="M136.645,12.851c0.003,0.741,0.007,1.483,0.009,2.224c0.001,0.667-0.004,1.333,0.004,2
		c0.002,0.146-0.049,0.222-0.171,0.292c-1.916,1.108-3.83,2.22-5.743,3.332c-1.223,0.711-2.444,1.423-3.665,2.138
		c-0.062,0.036-0.117,0.048-0.186,0.047c-0.292-0.005-0.583-0.005-0.875-0.005c-38.264,0-76.529,0-114.793,0
		c-0.05,0-0.1-0.003-0.15,0.001c-0.202,0.015-0.37-0.032-0.549-0.155c-0.362-0.25-0.754-0.456-1.134-0.68
		c-2.63-1.551-5.261-3.102-7.89-4.656c-0.121-0.071-0.256-0.122-0.357-0.225c0.081-0.261,0.31-0.311,0.532-0.372
		c0.859,0.478,1.699,0.99,2.545,1.489c2.081,1.228,4.164,2.452,6.242,3.685c0.178,0.105,0.36,0.168,0.567,0.158
		c0.116-0.006,0.233-0.001,0.35-0.001c38.311,0,76.623,0,114.934,0.006c0.425,0,0.79-0.092,1.156-0.308
		c2.454-1.449,4.927-2.863,7.389-4.298c0.309-0.18,0.622-0.355,0.929-0.539c0.093-0.056,0.187-0.111,0.299-0.117
		c0.042,0.001,0.082,0.013,0.119,0.031c0.316,0.152,0.317,0.152,0.317-0.215c0-1.163-0.002-2.326,0.003-3.489
		C136.528,13.072,136.478,12.92,136.645,12.851z"/>
	<path fill="#914E01" d="M136.645,12.851c-0.075,0.077-0.043,0.173-0.043,0.261c-0.002,1.269,0,2.538-0.004,3.807
		c0,0.085,0.053,0.207-0.044,0.249c-0.086,0.038-0.159-0.059-0.23-0.115c-0.071-0.056-0.15-0.102-0.225-0.153
		c-0.092-0.094-0.078-0.216-0.078-0.33c-0.002-3.313-0.002-6.627,0-9.94c0-0.115-0.012-0.236,0.081-0.329
		c0.174-0.099,0.313-0.276,0.544-0.25c0.003,0.606,0.009,1.212,0.009,1.818c0.001,1.611,0,3.223-0.001,4.834
		C136.654,12.752,136.648,12.802,136.645,12.851z"/>
	<path fill="#914F02" d="M1.601,16.798c-0.046,0.104-0.142,0.146-0.234,0.195c-0.083,0.044-0.184,0.065-0.222,0.169
		c-0.015-0.009-0.03-0.018-0.045-0.027c0-3.735,0-7.47,0-11.232C1.295,5.952,1.414,6.05,1.529,6.155
		C1.581,6.203,1.602,6.263,1.6,6.334c-0.002,0.067,0,0.133,0,0.2c0,2.806,0.001,5.612,0.001,8.417
		c0.074,0.07,0.075,0.163,0.076,0.254c0.005,0.447,0.005,0.893,0,1.34C1.676,16.635,1.675,16.729,1.601,16.798z"/>
	<path fill="#C16B02" d="M1.601,16.798c0-0.616,0-1.231,0-1.847c0.083-0.084,0.046-0.19,0.046-0.286
		C1.65,12.008,1.649,9.35,1.65,6.691c0-0.1,0.007-0.201-0.001-0.3C1.637,6.258,1.69,6.182,1.809,6.116
		c0.507-0.285,1.008-0.578,1.508-0.874c0.671-0.397,1.35-0.78,2.02-1.18c0.72-0.431,1.458-0.83,2.184-1.25
		c0.733-0.424,1.459-0.859,2.19-1.288c0.251-0.147,0.505-0.288,0.758-0.432c0.014-0.008,0.034-0.012,0.043-0.024
		C10.675,0.855,10.908,0.9,11.127,0.9c38.421,0,76.843,0,115.264,0c0.621,0,0.619,0.004,1.144,0.319
		c0.712,0.427,1.428,0.847,2.142,1.271c0.864,0.513,1.725,1.029,2.59,1.54c0.794,0.469,1.591,0.931,2.386,1.397
		c0.423,0.248,0.837,0.51,1.271,0.739c0.065,0.034,0.119,0.089,0.177,0.134c-0.001,3.4-0.001,6.8-0.002,10.199
		c0,0.133-0.001,0.267-0.002,0.4c-0.575,0.333-1.149,0.667-1.724,1c-0.481,0.279-0.963,0.557-1.445,0.836
		c-0.582,0.337-1.165,0.673-1.748,1.009c-0.59,0.341-1.18,0.681-1.768,1.023c-0.531,0.309-1.06,0.622-1.59,0.932
		c-0.258,0.151-0.517,0.3-0.776,0.45c-0.058,0.034-0.121,0.053-0.191,0.05c-0.083-0.003-0.167,0-0.25,0
		c-38.525,0-77.05,0-115.575,0.005c-0.237,0-0.432-0.062-0.629-0.181c-0.697-0.42-1.399-0.832-2.098-1.247
		c-0.707-0.419-1.413-0.841-2.121-1.258c-0.802-0.472-1.606-0.938-2.408-1.409c-0.487-0.286-0.971-0.577-1.456-0.865
		C2.076,17.102,1.819,16.982,1.601,16.798z"/>
	<path fill="#985201" d="M2.949,6.699C3.213,6.48,3.526,6.34,3.818,6.168C4.483,5.775,5.153,5.39,5.822,5.003
		C6.31,4.72,6.8,4.438,7.288,4.155c0.46-0.266,0.92-0.533,1.38-0.799c0.489-0.283,0.978-0.565,1.466-0.849
		c0.177-0.103,0.38-0.169,0.501-0.354c0.03-0.045,0.083-0.051,0.135-0.051c0.067,0,0.133-0.001,0.2-0.001
		c38.581,0,77.163,0,115.744-0.007c0.289,0,0.489,0.145,0.706,0.271c0.919,0.534,1.832,1.078,2.747,1.619
		c0.7,0.414,1.398,0.833,2.1,1.245c0.637,0.374,1.279,0.742,1.917,1.115c0.128,0.075,0.256,0.153,0.367,0.254
		c0.249,0.199,0.239,0.294-0.054,0.426c-0.093,0.042-0.174,0.091-0.231,0.179c-0.045,0.071-0.098,0.136-0.197,0.127
		c-0.557-0.249-1.061-0.593-1.586-0.898c-1.764-1.027-3.519-2.07-5.277-3.107c-0.172-0.101-0.346-0.157-0.544-0.147
		c-0.083,0.004-0.167,0.001-0.25,0.001c-38.405,0-76.81,0-115.215-0.004c-0.317,0-0.582,0.071-0.863,0.238
		C8.667,4.408,6.979,5.369,5.297,6.338C4.842,6.6,4.386,6.86,3.934,7.125c-0.1,0.059-0.196,0.126-0.314,0.143
		C3.425,7.102,3.217,6.956,2.984,6.844C2.931,6.819,2.904,6.761,2.949,6.699z"/>
	<path fill="#975201" d="M134.75,16.45c-0.46,0.315-0.964,0.555-1.44,0.843c-0.455,0.275-0.918,0.536-1.379,0.801
		c-0.409,0.236-0.82,0.469-1.229,0.706c-0.539,0.312-1.076,0.627-1.615,0.94c-0.488,0.284-0.977,0.567-1.465,0.85
		c-0.129,0.075-0.27,0.134-0.388,0.223c-0.204,0.155-0.426,0.192-0.678,0.192c-38.52-0.004-77.04-0.004-115.561-0.002
		c-0.204,0-0.372-0.032-0.55-0.162c-0.293-0.215-0.624-0.378-0.94-0.562c-0.516-0.301-1.034-0.601-1.549-0.904
		c-0.701-0.413-1.4-0.83-2.1-1.245c-0.707-0.419-1.412-0.841-2.122-1.256c-0.201-0.117-0.409-0.219-0.587-0.372
		c-0.139-0.1-0.169-0.23-0.015-0.315c0.179-0.1,0.324-0.216,0.419-0.397c0.01-0.02,0.045-0.016,0.07-0.018
		c0.314,0.1,0.574,0.302,0.853,0.465c1.955,1.146,3.916,2.283,5.852,3.462c0.347,0.211,0.665,0.277,1.043,0.277
		c38.323-0.003,76.646-0.003,114.968,0.003c0.4,0,0.736-0.098,1.081-0.298c2.111-1.226,4.223-2.45,6.339-3.668
		c0.1-0.058,0.199-0.124,0.317-0.141c0.189,0.178,0.4,0.323,0.636,0.434C134.769,16.329,134.796,16.387,134.75,16.45z"/>
	<path fill="#A55901" d="M3.551,15.797c-0.005,0.192-0.076,0.318-0.282,0.377c-0.206,0.059-0.213,0.117-0.12,0.327
		c-0.047-0.016-0.095-0.029-0.14-0.048c-0.246-0.105-0.371-0.247-0.369-0.56c0.017-2.886,0.01-5.772,0.01-8.657
		c0-0.05-0.001-0.1,0-0.15c0.006-0.248,0.046-0.3,0.298-0.388C3.012,6.87,3.18,6.893,3.319,6.944
		c0.152,0.055,0.236,0.139,0.23,0.303C3.594,7.323,3.583,7.408,3.582,7.49c-0.004,2.687-0.002,5.375-0.001,8.062
		C3.582,15.635,3.592,15.72,3.551,15.797z"/>
	<path fill="#A55901" d="M134.75,16.45c-0.037-0.158-0.19-0.192-0.3-0.213c-0.211-0.041-0.279-0.165-0.305-0.348
		c-0.038-0.079-0.027-0.163-0.027-0.246c0.002-2.695,0.002-5.391,0-8.086c0-0.083-0.011-0.167,0.027-0.246
		c0.067-0.187,0.173-0.32,0.387-0.37c0.172-0.04,0.182-0.122,0.074-0.262c-0.02-0.026-0.037-0.054-0.055-0.081
		c0.165,0.02,0.272,0.154,0.418,0.214c0.059,0.024,0.08,0.081,0.081,0.144c0.001,0.067,0.001,0.133,0.001,0.2
		c0,2.936-0.004,5.872,0.007,8.808C135.057,16.219,134.997,16.379,134.75,16.45z"/>
	<path fill="#131313" d="M134.145,7.311c0.09,0.088,0.062,0.201,0.062,0.306c0,2.221-0.001,4.443-0.003,6.664
		c0,0.449-0.001,0.899-0.002,1.348c0,0.09,0.016,0.185-0.057,0.259c-0.694,0.396-1.389,0.789-2.081,1.188
		c-1.118,0.645-2.233,1.293-3.349,1.94c-0.554,0.321-1.11,0.642-1.661,0.967c-0.068,0.04-0.132,0.065-0.209,0.063
		c-0.075-0.002-0.15,0-0.225,0c-38.563,0-77.126,0-115.689,0c-0.075,0-0.15-0.001-0.225,0c-0.077,0-0.146,0.001-0.168-0.103
		c-0.019-0.089-0.109-0.118-0.181-0.16c-1.392-0.819-2.783-1.639-4.175-2.459c-0.854-0.503-1.707-1.005-2.561-1.507
		c-0.021-0.012-0.047-0.014-0.071-0.021c-0.061-0.08-0.047-0.174-0.047-0.265c0.002-2.664,0.004-5.328,0.006-7.993
		c0-0.099-0.013-0.201,0.039-0.293C4.033,6.97,4.518,6.696,5.001,6.418c0.851-0.49,1.702-0.981,2.553-1.472
		c0.951-0.55,1.902-1.1,2.853-1.651c0.014-0.008,0.035-0.014,0.042-0.026c0.117-0.224,0.327-0.177,0.519-0.177
		c38.545,0,77.09,0,115.635-0.004c0.25,0,0.458,0.057,0.676,0.187c1.551,0.925,3.112,1.835,4.669,2.75
		c0.689,0.405,1.376,0.812,2.065,1.218C134.055,7.269,134.101,7.289,134.145,7.311z"/>
</g>
</svg>
