<?xml version="1.0" encoding="utf-8"?>
<!-- Generator: Adobe Illustrator 20.1.0, SVG Export Plug-In . SVG Version: 6.00 Build 0)  -->
<svg version="1.1" id="Layer_1" xmlns="http://www.w3.org/2000/svg" xmlns:xlink="http://www.w3.org/1999/xlink" x="0px" y="0px"
	 width="122.88px" height="122.88px" viewBox="0 0 122.88 122.88" style="enable-background:new 0 0 122.88 122.88;"
	 xml:space="preserve">
<style type="text/css">
	.st0{fill:#D6A832;}
	.st1{fill:#161719;}
	.st2{fill:#A4A7AB;}
	.st3{fill:#48494D;}
	.st4{fill:#8D9091;}
	.st5{fill:#4C5052;}
	.st6{fill:#6A6C6F;}
	.st7{fill:#252729;}
	.st8{fill:#919396;}
	.st9{fill:#3B3E3F;}
	.st10{fill:#969A9D;}
	.st11{fill:#3B3B3D;}
	.st12{fill:#575759;}
	.st13{fill:#020202;}
	.st14{fill:#59595B;}
	.st15{fill:#464446;}
	.st16{fill:#3D3D40;}
	.st17{fill:#5A5A5B;}
	.st18{fill:#636365;}
	.st19{fill:#5F6264;}
	.st20{fill:#40B1E5;}
	.st21{fill:#212021;}
	.st22{fill:#474647;}
	.st23{fill:#262526;}
	.st24{fill:#3A3A3C;}
</style>
<g>
	<path class="st0" d="M105.779,52.071c-0.043,11.864-2.407,22.593-8.198,32.42c-5.557,9.43-13.329,16.578-22.841,21.897
		c-3.988,2.23-8.152,4.046-12.543,5.335c-0.762,0.224-1.429,0.203-2.185-0.094c-8.324-3.267-16.054-7.536-22.803-13.462
		c-9.96-8.744-16-19.697-18.243-32.73c-2.116-12.294-0.77-24.355,2.677-36.25c0.89-3.072,1.918-6.093,3.179-9.035
		c0.482-1.125,1.246-1.885,2.389-2.359c7.059-2.927,14.408-4.704,21.983-5.581c16.565-1.919,32.657,0.303,48.398,5.563
		c1.172,0.392,2.045,1.148,2.424,2.303C103.466,30.578,105.732,41.95,105.779,52.071z"/>
	<path class="st1" d="M99.6,36.001c0.636,2.189,0.882,4.451,1.169,6.698c0.623,4.881,0.799,9.785,0.478,14.697
		c-0.377,5.764-1.526,11.37-3.571,16.783c-0.283,0.461-0.692,0.735-1.201,0.926c-3.585,1.338-7.134,2.775-10.751,4.027
		c-0.494,0.171-1.062,0.535-1.47-0.183c-0.262-1.187-0.155-2.388-0.094-3.577c0.296-5.781,0.312-11.56-0.018-17.338
		c-0.043-0.75,0.127-1.521-0.19-2.248c-0.042-0.555,0.41-0.653,0.772-0.74c3.911-0.936,7.754-2.16,11.739-2.785
		c0.105-0.017,0.235-0.095,0.252-0.025c-3.349,0.464-6.753-0.038-10.139,0.324c-0.942,0.101-1.898,0.315-2.806-0.182
		c-0.083-0.134-0.089-0.271-0.021-0.413c0.623-1.252,0.36-2.583,0.283-3.877c-0.057-0.954-0.176-1.905-0.148-2.862
		c0.103-3.629-0.388-7.244-0.255-10.873c0.022-0.595-0.054-1.199,0.18-1.772c0.27-0.444,0.702-0.326,1.076-0.257
		c4.715,0.871,9.409,1.835,13.992,3.27C99.147,35.678,99.388,35.812,99.6,36.001z"/>
	<path class="st2" d="M25.891,74.187c-1.247-2.902-2.017-5.947-2.57-9.039c-0.659-3.688-0.997-7.417-0.972-11.169
		c0.038-5.828,0.651-11.594,1.954-17.281c1.729-1.045,3.706-1.382,5.598-1.96c0.873-0.267,1.777-0.422,2.65-0.7
		c1.813-0.473,3.646-0.853,5.49-1.167c1.519-0.259,1.897,0.104,1.68,1.64c-0.551,3.899-1.007,7.81-1.41,11.726
		c-0.11,1.066-0.087,2.146-0.364,3.193c-0.403,0.992,0.069,2.093-0.374,3.079c-0.294,0.343-0.701,0.385-1.096,0.323
		c-2.22-0.349-4.457-0.079-6.706-0.207c2.198,0.647,4.408,1.158,6.603,1.727c0.458,0.119,0.945,0.216,1.179,0.719
		c0.185,4.081-0.315,8.146-0.243,12.225c0.058,3.277,0.282,6.546,0.357,9.822c0.028,1.225-0.291,1.544-1.491,1.178
		c-1.069-0.326-2.136-0.671-3.165-1.11c-1.729-0.819-3.542-1.43-5.341-2.073C27.033,74.888,26.378,74.702,25.891,74.187z"/>
	<path class="st3" d="M82.308,95.8c-6.085,5.164-12.92,8.989-20.505,11.472c-0.11,0.036-0.237,0.021-0.356,0.03
		c-0.371-0.381-0.359-0.865-0.363-1.345c-0.048-5.579,0.016-11.159-0.035-16.737c-0.016-1.737,1.199-2.05,2.419-2.457
		c6.271-2.238,12.486-4.636,18.736-6.936c0.477-0.176,1.016-0.623,1.508,0.023c0.204,0.495,0.189,1.018,0.164,1.531
		C83.633,86.217,83.51,91.067,82.308,95.8z"/>
	<path class="st4" d="M60.615,107.061c-3.026-0.92-5.786-2.432-8.556-3.906c-4.227-2.25-8.161-4.941-11.777-8.088
		c-0.087-0.076-0.142-0.189-0.213-0.284c-0.332-0.553-0.511-1.15-0.614-1.79c-0.603-3.769-1.009-7.561-1.381-11.358
		c-0.019-0.198-0.021-0.397-0.019-0.596c0.012-1.505,0.301-1.72,1.69-1.25c0.716,0.242,1.419,0.518,2.12,0.796
		c3.383,1.307,6.832,2.435,10.214,3.754c2.353,0.884,4.739,1.669,7.085,2.567c1.437,0.55,1.664,0.842,1.67,2.379
		c0.017,4.545,0.005,9.091,0.006,13.636c0,0.957-0.008,1.911,0.138,2.864C61.049,106.242,61.147,106.755,60.615,107.061z"/>
	<path class="st5" d="M61.204,16.058c6.453-0.117,12.821,0.685,19.158,1.801c0.976,0.172,1.947,0.373,2.92,0.561
		c-0.033,0.062-0.066,0.124-0.097,0.187c-0.505,0.412-0.449,0.965-0.423,1.536c0.141,3.069,0.447,6.131,0.39,9.209
		c-0.023,0.519-0.005,1.038-0.02,1.556c-0.039,1.406-0.34,1.665-1.768,1.464c-2.053-0.288-4.097-0.634-6.162-0.843
		c-4.125-0.419-8.252-0.776-12.406-0.701c-0.657,0.012-1.39,0.138-1.813-0.606c-0.18-0.42-0.139-0.864-0.139-1.301
		c-0.003-3.756-0.003-7.512-0.001-11.268C60.843,17.094,60.79,16.522,61.204,16.058z"/>
	<path class="st6" d="M42.704,17.751c1.511-0.518,3.101-0.663,4.662-0.882c4.265-0.597,8.554-0.96,12.871-0.808
		c0.354,0.393,0.336,0.88,0.337,1.36c0.004,3.834,0.015,7.669-0.005,11.503c-0.007,1.405-0.253,1.611-1.708,1.688
		c-5.579,0.298-11.164,0.536-16.69,1.457c-0.393,0.065-0.79,0.137-1.186,0.023c-0.746-0.483-0.474-1.194-0.356-1.827
		c0.678-3.63,1.233-7.283,2.065-10.883C42.82,18.84,42.952,18.297,42.704,17.751z"/>
	<path class="st7" d="M99.6,36.001c-1.898-0.24-3.67-0.977-5.519-1.413c-3.16-0.745-6.335-1.409-9.532-1.974
		c-0.192-0.034-0.373-0.135-0.559-0.205c-0.612-0.109-0.56-0.629-0.568-1.033c-0.074-3.712-0.383-7.413-0.508-11.123
		c-0.02-0.586-0.106-1.211,0.347-1.712c0.013-0.039,0.02-0.08,0.021-0.121c4.085,0.764,8.067,1.915,12.015,3.195
		c0.38,0.123,0.753,0.246,0.893,0.702C97.569,26.817,98.859,31.341,99.6,36.001z"/>
	<path class="st8" d="M24.528,35.779c0.994-4.425,2.215-8.781,3.918-12.993c0.268-0.663,0.649-1.081,1.362-1.351
		c4.132-1.566,8.303-2.975,12.687-3.659c0.353,0.432,0.207,0.904,0.11,1.372c-0.798,3.827-1.644,7.646-2.228,11.514
		c-0.181,1.198-0.761,1.835-1.967,2.029c-1.968,0.317-3.906,0.794-5.848,1.244c-2.253,0.461-4.464,1.086-6.669,1.733
		C25.451,35.798,25.009,36.076,24.528,35.779z"/>
	<path class="st9" d="M84.491,79.214c4.159-1.534,8.319-3.066,12.474-4.609c0.254-0.094,0.474-0.283,0.709-0.427
		c-3.081,8.216-7.904,15.213-14.604,20.9c-0.344-0.323-0.27-0.73-0.2-1.118c0.818-4.513,0.961-9.088,1.256-13.649
		C84.152,79.915,84.155,79.508,84.491,79.214z"/>
	<path class="st10" d="M39.058,93.865c-5.773-5.222-10.121-11.423-12.869-18.724c0.67-0.249,1.23,0.133,1.812,0.336
		c1.642,0.573,3.223,1.311,4.894,1.811c1.196,0.438,2.404,0.841,3.603,1.269c0.799,0.285,1.219,0.771,1.321,1.638
		c0.35,2.96,0.537,5.937,0.91,8.895c0.144,1.145,0.326,2.284,0.476,3.427C39.265,92.965,39.487,93.459,39.058,93.865z"/>
	<path class="st11" d="M60.615,107.061c-0.032-2.63-0.078-5.259-0.092-7.889c-0.019-3.313-0.058-6.628,0.009-9.94
		c0.022-1.088-0.26-1.636-1.355-1.973c-2.166-0.668-4.276-1.517-6.416-2.274c-0.338-0.12-0.671-0.23-0.954-0.455
		c-0.05-0.634,0.373-0.724,0.856-0.746c2.133,0.527,4.147,1.415,6.239,2.072c1.164,0.365,1.212,0.348,1.213-0.876
		c0.004-7.22-0.002-14.441,0.009-21.661c0.001-0.665-0.132-1.368,0.338-1.959c0.84-0.353,1.189,0.068,1.302,0.837
		c0.076,0.516,0.05,1.038,0.05,1.557c0.001,6.957-0.001,13.915,0.002,20.872c0.001,1.604,0.008,1.604,1.598,1.359
		c0.677,0.045,0.524,0.488,0.43,0.903c-0.025,0.031-0.046,0.085-0.076,0.09c-2.122,0.375-2.428,1.724-2.377,3.678
		c0.145,5.545,0.055,11.096,0.057,16.645C61.097,107.473,60.861,107.249,60.615,107.061z"/>
	<path class="st12" d="M39.058,93.865c-0.632-4.092-1.137-8.198-1.403-12.332c-0.038-0.595-0.16-1.184-0.201-1.778
		c-0.04-0.586-0.493-0.654-0.899-0.804c-1.304-0.481-2.607-0.964-3.91-1.447c-0.169-0.319-0.337-0.637,0.238-0.706
		c1.239,0.422,2.487,0.823,3.715,1.276c0.689,0.254,0.817,0.044,0.778-0.634c-0.316-5.527-0.623-11.053-0.229-16.592
		c0.107-1.51,0.056-3.03,0.082-4.546c0.008-0.436-0.043-0.883,0.2-1.283c0.419-0.221,0.697-0.029,0.922,0.316
		c0.264,0.738,0.189,1.502,0.145,2.257c-0.347,5.909-0.208,11.815-0.067,17.729c0.054,2.248,0.575,3.667,2.89,4.106
		c0.341,0.065,0.657,0.295,0.83,0.645c0.101,0.312,0.087,0.601-0.169,0.842c-1.153-0.386-2.306-0.772-3.543-1.186
		c-0.15,1.802,0.144,3.492,0.329,5.173c0.365,3.301,0.861,6.588,1.303,9.881C39.633,94.586,39.353,94.218,39.058,93.865z"/>
	<path class="st13" d="M84.491,79.214c-0.159,5.316-0.492,10.617-1.42,15.864c-0.254,0.241-0.509,0.481-0.763,0.722
		c-0.378-0.286-0.185-0.638-0.114-0.978c0.665-3.149,0.927-6.341,1.117-9.548c0.11-1.862,0.27-3.719,0.202-5.586
		c-0.279-0.316-0.327-0.698-0.313-1.098c0.343-2.941,0.144-5.894,0.169-8.842c0.034-4.027,0.005-8.054,0.012-12.081
		c0.001-0.595-0.059-1.2,0.178-1.773c0.074-0.152,0.194-0.241,0.361-0.266c0.44,0.07,0.582,0.348,0.562,0.766
		c-0.079,1.714,0.294,3.4,0.26,5.121c-0.073,3.712-0.021,7.427-0.023,11.14C84.717,74.844,84.309,77.019,84.491,79.214z"/>
	<path class="st14" d="M32.395,33.619c2.198-0.484,4.39-0.999,6.598-1.433c0.575-0.113,0.782-0.33,0.886-0.89
		c0.683-3.656,1.405-7.304,2.115-10.955c0.166-0.855,0.334-1.71,0.501-2.565c0.068-0.024,0.138-0.033,0.209-0.025
		c0.453,0.001,0.722,0.027,0.567,0.673c-0.951,3.952-1.573,7.971-2.333,11.962c-0.098,0.517-0.115,1.019-0.135,1.531
		c-0.542,0.362-0.48,0.825-0.218,1.324c0.112,1.537-0.281,3.021-0.486,4.52c-0.58,4.238-1.074,8.483-1.367,12.752
		c-0.051,0.748-0.068,1.535-0.737,2.077c-0.15,0.058-0.282,0.029-0.394-0.086c-0.033-1.021-0.118-2.043,0.05-3.061
		c0.487-5.126,0.988-10.253,1.776-15.34c0.169-1.09-0.231-1.072-0.934-0.939c-1.675,0.316-3.346,0.66-5.01,1.031
		c-0.353,0.079-0.694,0.162-1.055,0.144C31.737,34.128,32.059,33.874,32.395,33.619z"/>
	<path class="st15" d="M40.332,32.888c-0.252-0.037-0.501-0.111-0.452-0.428c0.083-0.533,0.514-0.532,0.922-0.542
		c3.519-0.561,7.048-1.004,10.61-1.244c2.575-0.173,5.153-0.277,7.728-0.395c0.909-0.041,1.135-0.307,1.126-1.179
		c-0.044-4.346-0.026-8.692-0.03-13.038c0.08-0.001,0.161-0.003,0.241-0.004c0.305,0.355,0.361,0.78,0.358,1.227
		c-0.022,4.207,0.052,8.414-0.035,12.62c-0.18,0.536-0.245,1.134-0.766,1.499c-1.847,0.363-3.731,0.232-5.592,0.329
		c-4.224,0.219-8.416,0.653-12.598,1.244C41.345,33.045,40.819,33.208,40.332,32.888z"/>
	<path class="st16" d="M60.487,30.253c-0.003-4.732-0.006-9.464-0.009-14.196c0.242,0,0.484,0,0.726,0.001
		c-0.002,4.729-0.005,9.457-0.007,14.186C60.963,30.436,60.727,30.458,60.487,30.253z"/>
	<path class="st17" d="M32.395,33.619c-0.087,0.244-0.375,0.497,0.032,0.719c-2.708,0.787-5.416,1.574-8.124,2.361
		c0.075-0.306,0.15-0.613,0.225-0.919C27.115,34.929,29.739,34.216,32.395,33.619z"/>
	<path class="st18" d="M32.882,76.798c-0.283,0.167-0.236,0.445-0.238,0.706c-2.152-0.788-4.304-1.575-6.455-2.363
		c-0.18-0.293-0.309-0.601-0.298-0.953C28.258,74.959,30.612,75.766,32.882,76.798z"/>
	<path class="st19" d="M83.71,52.111c0.008,0.055,0.019,0.11,0.033,0.164c-0.422,0.496-1.012,0.426-1.557,0.42
		c-5.784-0.066-11.56,0.427-17.345,0.251c-0.72-0.022-1.433,0.052-2.147,0.146c-0.709,0.094-1.431,0.196-2.111-0.16
		c-0.14-0.102-0.189-0.238-0.149-0.407c0.49-0.427,0.406-1.006,0.406-1.559c0.003-6.03-0.001-12.06,0.005-18.089
		c0.001-0.553-0.084-1.125,0.23-1.636c0.402-0.426,0.936-0.393,1.449-0.39c6.419,0.041,12.782,0.707,19.11,1.753
		c0.584,0.097,1.189,0.206,1.561,0.764c0.448,1.719,0.351,3.501,0.381,5.233c0.068,3.954,0.407,7.9,0.324,11.856
		C83.889,51.014,83.932,51.577,83.71,52.111z"/>
	<path class="st20" d="M60.477,52.715c2.623-0.052,5.245-0.105,7.868-0.155c5.133-0.097,10.265-0.191,15.398-0.286
		c4.47,0,8.94,0,13.317,0c-4.291,1.095-8.715,2.225-13.14,3.354c-0.069-0.01-0.135,0.002-0.196,0.036
		c-0.357,0.431-0.875,0.528-1.376,0.655c-6.525,1.655-13.079,3.19-19.588,4.909c-0.763,0.202-1.501,0.043-2.248,0.099
		c-0.49,0.173-0.954-0.004-1.408-0.134c-6.494-1.871-13.086-3.382-19.569-5.294c-0.498-0.147-1.015-0.249-1.384-0.663
		c-0.241-0.072-0.481-0.145-0.722-0.217c-2.978-0.792-5.955-1.585-9.158-2.437c0.552-0.356,0.942-0.252,1.294-0.248
		c2.621,0.03,5.242,0.076,7.863,0.118c0.086-0.031,0.163-0.015,0.229,0.048c0.103,0,0.205,0.001,0.308,0.001
		c0.543-0.309,1.139-0.33,1.742-0.33c5.47,0.001,10.941-0.04,16.41,0.028C57.571,52.219,59.063,52.213,60.477,52.715z"/>
	<path class="st13" d="M83.71,52.111c-0.254-0.214-0.194-0.511-0.186-0.781c0.104-3.638-0.234-7.265-0.262-10.9
		c-0.018-2.355-0.148-4.709-0.228-7.063c-0.487-0.587-0.067-1.229-0.11-1.843c-0.053-0.75,0.108-1.51-0.098-2.254
		c-0.07-3.174-0.234-6.343-0.452-9.511c-0.038-0.556-0.399-1.541,0.886-1.218c-0.093,2.747,0.253,5.479,0.321,8.222
		c0.041,1.66,0.158,3.329,0.181,4.997c0.003,0.243,0.017,0.48,0.227,0.649c0.003,0.398,0.018,0.796,0.006,1.193
		c-0.134,4.37,0.316,8.728,0.299,13.099c-0.006,1.488,0.155,3,0.195,4.505C84.506,51.794,84.334,52.122,83.71,52.111z"/>
	<path class="st8" d="M37.655,52.501l-0.119,0l-0.109-0.049c0.113-1.001-0.216-2.035,0.223-3.011
		C37.652,50.462,37.653,51.481,37.655,52.501z"/>
	<path class="st21" d="M83.528,78.734c-0.005,0.318-0.01,0.636-0.015,0.954c-5.432,2.031-10.861,4.069-16.298,6.086
		c-1.109,0.412-2.247,0.745-3.372,1.114c-0.386-0.242-0.084-0.477,0.006-0.714c0.153-0.497,0.616-0.598,1.011-0.755
		c5.817-2.307,11.74-4.335,17.543-6.679C82.761,78.597,83.153,78.409,83.528,78.734z"/>
	<path class="st22" d="M41.98,80.915c0.007-0.258,0.014-0.516,0.02-0.774c0.3-0.231,0.608-0.107,0.905-0.005
		c3.001,1.029,5.991,2.091,8.965,3.198c0.301,0.112,0.739,0.16,0.678,0.671c-0.372-0.001-0.602,0.198-0.741,0.525
		C48.531,83.324,45.256,82.119,41.98,80.915z"/>
	<path class="st23" d="M82.826,29.27c0.443,1.347,0.115,2.733,0.207,4.097c-1.482-0.631-3.087-0.693-4.642-0.904
		c-5.5-0.744-11.021-1.296-16.583-1.269c-0.199,0.001-0.398,0.01-0.597,0.015c-0.194,0.17-0.416,0.24-0.673,0.185
		c-0.121-0.034-0.219-0.102-0.295-0.201c-0.343-0.423-0.045-0.68,0.244-0.939c0.237-0.003,0.473-0.006,0.71-0.01
		c0.317,0.361,0.745,0.238,1.126,0.225c3.909-0.129,7.801,0.18,11.684,0.526c2.562,0.229,5.108,0.668,7.65,1.081
		c0.812,0.132,1.228,0.05,1.156-0.892C82.764,30.55,82.818,29.908,82.826,29.27z"/>
	<path class="st8" d="M52.548,84.004c-2.015-1.025-4.219-1.552-6.311-2.378c-1.391-0.549-2.823-0.994-4.236-1.486
		c-0.878-0.565-1.896-0.792-2.855-1.159c-0.681-0.261-0.956-0.642-0.998-1.407c-0.336-6.054-0.28-12.112-0.184-18.169
		c0.022-1.386,0.212-2.774,0.187-4.169c6.483,1.738,12.966,3.474,19.448,5.213c0.959,0.257,1.914,0.526,2.872,0.79
		c0.09,0.036,0.124,0.08,0.102,0.131c-0.023,0.054-0.048,0.082-0.075,0.082c0,8.404,0,16.808,0,25.36
		C57.764,85.847,55.156,84.926,52.548,84.004z"/>
	<path class="st19" d="M60.498,61.452c-0.017-0.07-0.026-0.141-0.027-0.212c2.511-0.205,4.872-1.074,7.297-1.659
		c5.324-1.285,10.638-2.608,15.957-3.915c0,6.857-0.001,13.714,0.004,20.572c0.001,0.839-0.04,1.672-0.2,2.497
		c-2.724,1.023-5.45,2.04-8.171,3.069c-3.838,1.452-7.672,2.913-11.508,4.371c-0.607,0.179-1.222,0.335-1.819,0.545
		c-0.444,0.156-0.588-0.007-0.588-0.421c0-0.279-0.003-0.558-0.003-0.837c-0.003-7.61-0.009-15.219-0.006-22.829
		C61.434,61.971,61.523,61.281,60.498,61.452z"/>
	<path class="st8" d="M60.243,31.192c0.053,0.029,0.109,0.044,0.169,0.045c0.471,0.378,0.423,0.914,0.424,1.429
		c0.004,6.175,0.003,12.35,0.001,18.525c0,0.478,0.028,0.965-0.334,1.354c-0.012,0.056-0.021,0.112-0.026,0.169
		c-1.479,0.234-2.941-0.124-4.414-0.13c-6.033-0.022-12.066-0.055-18.1-0.083c0.714-1.608,0.468-3.354,0.66-5.029
		c0.374-3.252,0.693-6.508,1.149-9.752c0.225-1.602,0.616-3.195,0.56-4.833c2.132-0.478,4.303-0.711,6.467-0.942
		C51.266,31.47,55.748,31.198,60.243,31.192z"/>
	<path class="st24" d="M60.503,52.546c-0.022-6.464-0.044-12.929-0.068-19.393c-0.002-0.638-0.015-1.277-0.023-1.915
		c0.266-0.01,0.533-0.019,0.799-0.029c0,6.727,0.004,13.454-0.01,20.181C61.201,51.877,61.481,52.615,60.503,52.546z"/>
</g>
</svg>
